<svg id="Layer_1" data-name="Layer 1" xmlns="http://www.w3.org/2000/svg" xmlns:xlink="http://www.w3.org/1999/xlink" viewBox="0 0 778.74 778.53"><defs><style>.cls-1,.cls-11,.cls-12,.cls-13,.cls-16,.cls-9{fill:none;}.cls-2,.cls-7{fill:#fff;}.cls-11,.cls-2{stroke:#fff;}.cls-11,.cls-12,.cls-13,.cls-16,.cls-2,.cls-21,.cls-3,.cls-9{stroke-miterlimit:10;}.cls-2{stroke-width:30px;}.cls-17,.cls-3{fill:#333;}.cls-12,.cls-21,.cls-3{stroke:#000;}.cls-3{stroke-width:10px;}.cls-4{fill:#856ffb;}.cls-5{fill:#f2b21b;}.cls-6{fill:#ff44a9;}.cls-8{clip-path:url(#clip-path);}.cls-9{stroke:#f2b21b;stroke-width:0.07px;}.cls-10{clip-path:url(#clip-path-3);}.cls-11{stroke-width:5px;}.cls-12{stroke-width:2px;}.cls-13{stroke:#856ffb;}.cls-13,.cls-16{stroke-width:0.27px;}.cls-14{clip-path:url(#clip-path-5);}.cls-15{fill:#45d8dd;}.cls-16{stroke:#45d8dd;}.cls-18{fill:#006837;}.cls-19{fill:#4d4d4d;}.cls-20{fill:#009245;}.cls-21{fill:#3a3a3a;stroke-width:0.69px;}.cls-22{fill:#999;}.cls-23{fill:#666;}.cls-24{fill:#1a1a1a;}</style><clipPath id="clip-path"><rect class="cls-1" x="255.87" y="193.3" width="12.08" height="12.57" transform="translate(23.05 426.26) rotate(-80.81)"/></clipPath><clipPath id="clip-path-3"><rect class="cls-1" x="150.74" y="65.62" width="56.04" height="54.03"/></clipPath><clipPath id="clip-path-5"><rect class="cls-1" x="74.74" y="122.62" width="56.04" height="54.03"/></clipPath></defs><path class="cls-2" d="M763.07,303.2c0-6.13-2.33-10.35-6-12.13L734,277.68c-3.37-2-8-1.69-13.12,1.28L605.34,345.69l34.89-220.31A22.22,22.22,0,0,0,621.76,100L87.07,15.28A22.21,22.21,0,0,0,61.66,33.74L15.28,326.59A22.2,22.2,0,0,0,33.74,352l127.5,20.2L48.41,399.27A22.51,22.51,0,0,0,32,426L94.37,686a20.6,20.6,0,0,0,.85,2.73l6.48,27C105.35,731,118,741,130,738.15l8.85-2.12a23.08,23.08,0,0,0,2.82-.48l32.6-7.82-.1-.42,166.29-39.89a21.74,21.74,0,0,0,16.07-26.22l-62.37-260a21.74,21.74,0,0,0-4.23-8.6L473.7,421.69l-86,49.64c-10.19,5.9-18.42,20.13-18.54,31.84V736.68l.87.5c.11,5.55,2.14,9.5,5.37,11.38l22.88,13.31c3.39,2.39,8.3,2.28,13.77-.88l333.28-192.4c10.18-5.88,18.39-20.13,18.39-31.84ZM393.53,750.41v0l-1.54-.9Z"/><path class="cls-3" d="M763.07,300.2c0-6.13-2.33-10.35-6-12.13L734,274.68c-3.37-2-8-1.69-13.12,1.28L605.34,342.69l34.89-220.31A22.22,22.22,0,0,0,621.76,97L87.08,12.28A22.21,22.21,0,0,0,61.66,30.74L15.28,323.59A22.2,22.2,0,0,0,33.74,349l127.5,20.2L48.41,396.27A22.51,22.51,0,0,0,32,423L94.37,683a20.6,20.6,0,0,0,.85,2.73l6.48,27C105.35,728,118,738,130,735.15l8.85-2.12a23.08,23.08,0,0,0,2.82-.48l32.6-7.82-.1-.42,166.29-39.89a21.74,21.74,0,0,0,16.07-26.22l-62.37-260a21.74,21.74,0,0,0-4.23-8.6L473.7,418.69l-86,49.64c-10.19,5.9-18.42,20.13-18.54,31.84V733.68l.87.5c.11,5.55,2.14,9.5,5.37,11.38l22.88,13.31c3.39,2.39,8.3,2.28,13.77-.88l333.28-192.4c10.18-5.88,18.39-20.13,18.39-31.84ZM393.53,747.41v0l-1.54-.9Z"/><rect class="cls-4" x="59.11" y="368.17" width="247.57" height="310.9" rx="21.75" transform="translate(482.88 990.14) rotate(166.51)"/><path class="cls-5" d="M40.1,415.19l198.45-47.61a21.75,21.75,0,0,1,26.22,16.08l62.37,260a21.73,21.73,0,0,1-16.07,26.21L112.62,717.51a23.24,23.24,0,0,1-2.71.46L37.47,416A21.09,21.09,0,0,1,40.1,415.19Z"/><rect class="cls-4" x="80.15" y="401.61" width="247.57" height="310.9" rx="21.75" transform="translate(532.19 1051.18) rotate(166.51)"/><polygon class="cls-4" points="65.77 418.5 47.41 396.26 37.48 416 93.71 682.51 132.26 677.86 65.77 418.5"/><path class="cls-6" d="M47.06,396.79A21.74,21.74,0,0,0,31,423L93.37,683a20.6,20.6,0,0,0,.85,2.73l6.48,27C104.35,728,117,738,129,735.15l8.85-2.12a23.08,23.08,0,0,0,2.82-.48l32.6-7.82-.83-3.48-4-16.68-3.9-16.23-6.71-28-57.07-237.9v0l-32.43,7.77-.17.05c-.38.09-.76.19-1.13.3l-1.79.43a6.34,6.34,0,0,1-7.64-4.69l-1.92-8a6.32,6.32,0,0,1,3.28-7.11l.05,0,36.92-8.86,0-.16L92,386Z"/><rect class="cls-5" x="52.39" y="390.14" width="185.32" height="20.93" rx="7.27" transform="translate(379.55 756.31) rotate(166.51)"/><path class="cls-7" d="M416.8,264.24a5.37,5.37,0,0,1-2.95-1.34,2.31,2.31,0,0,1-.9-2l3.43-21.18a2.16,2.16,0,0,1,1.5-1.7,5.93,5.93,0,0,1,3.2-.22,4.78,4.78,0,0,1,2.55,1.15,2.23,2.23,0,0,1,.81,2.07l-.21,1.28a7.68,7.68,0,0,1,3.2-2.48,8.37,8.37,0,0,1,4.93-.54,7.84,7.84,0,0,1,4.44,2.34,11.69,11.69,0,0,1,2.77,4.79,13.37,13.37,0,0,1,.36,6.07l-2,12.45a2.18,2.18,0,0,1-1.69,1.79,6.77,6.77,0,0,1-3.08.18,6.68,6.68,0,0,1-2.78-1.13,2.19,2.19,0,0,1-1.07-2.23l2-12.45a4.16,4.16,0,0,0-.21-2.09,4.54,4.54,0,0,0-1.19-1.79,3.66,3.66,0,0,0-1.93-.94,3.56,3.56,0,0,0-1.83.22,4.06,4.06,0,0,0-1.65,1.19,4.36,4.36,0,0,0-.92,2.16l-2,12.45c-.11.67-.64,1.21-1.58,1.63A5.54,5.54,0,0,1,416.8,264.24Z"/><path class="cls-7" d="M397,253.9a3.63,3.63,0,0,0,2.13-.29,4.57,4.57,0,0,0,1.72-1.34,4.14,4.14,0,0,0,.9-2l.63-3.89a4.06,4.06,0,0,0-.23-2.09,4.71,4.71,0,0,0-1.23-1.79,3.72,3.72,0,0,0-4.05-.66,4.52,4.52,0,0,0-1.7,1.32,4,4,0,0,0-.85,1.92l-.63,3.89a4.47,4.47,0,0,0,1.38,4A3.66,3.66,0,0,0,397,253.9Zm-1.22,7.5a12.53,12.53,0,0,1-6-2.65,13.53,13.53,0,0,1-3.91-5.08,10.71,10.71,0,0,1-.81-6.09l.63-3.9a10.71,10.71,0,0,1,2.63-5.5,12.71,12.71,0,0,1,5.28-3.54,13.33,13.33,0,0,1,16.58,7,10.53,10.53,0,0,1,.8,6.15l-.63,3.89a10.5,10.5,0,0,1-2.68,5.47,13.61,13.61,0,0,1-5.35,3.61A12.46,12.46,0,0,1,395.75,261.4Z"/><path class="cls-7" d="M367.46,256.82a12.49,12.49,0,0,1-6-2.65,13.35,13.35,0,0,1-3.91-5.08,10.54,10.54,0,0,1-.81-6.09l.63-3.89A10.66,10.66,0,0,1,360,233.6a12.65,12.65,0,0,1,5.28-3.54,13,13,0,0,1,6.59-.59,13.28,13.28,0,0,1,10,7.58,10.53,10.53,0,0,1,.8,6.15l-.63,3.89a10.5,10.5,0,0,1-2.68,5.47,13.61,13.61,0,0,1-5.35,3.61A12.47,12.47,0,0,1,367.46,256.82Zm1.21-7.5a3.62,3.62,0,0,0,2.13-.28,4.73,4.73,0,0,0,1.73-1.35,4.14,4.14,0,0,0,.89-2l.63-3.9a3.86,3.86,0,0,0-.23-2.09,4.76,4.76,0,0,0-1.22-1.79,3.73,3.73,0,0,0-4.06-.66,4.6,4.6,0,0,0-1.7,1.32,4.26,4.26,0,0,0-.85,1.92l-.63,3.89a4.44,4.44,0,0,0,.19,2.17,4.54,4.54,0,0,0,1.19,1.82A3.62,3.62,0,0,0,368.67,249.32Z"/><path class="cls-7" d="M341.22,252.58A18.66,18.66,0,0,1,336,251a11.08,11.08,0,0,1-3.53-2.51,3.29,3.29,0,0,1-1-2.73,4.12,4.12,0,0,1,.61-1.5,5,5,0,0,1,1.25-1.4,2,2,0,0,1,1.58-.43,3.13,3.13,0,0,1,1.68.93,14.25,14.25,0,0,0,2,1.61,8.58,8.58,0,0,0,3.43,1.18c1.49.24,2.46.18,2.94-.18a1.84,1.84,0,0,0,.81-1.1,1.65,1.65,0,0,0-.71-1.62A9.65,9.65,0,0,0,342.8,242c-.95-.4-1.95-.85-3-1.35a14.35,14.35,0,0,1-2.93-1.81,7,7,0,0,1-2.05-2.67,6.94,6.94,0,0,1-.33-3.93,9.15,9.15,0,0,1,1.62-3.88,7.74,7.74,0,0,1,3.78-2.72,12.84,12.84,0,0,1,6.43-.27,19.88,19.88,0,0,1,4.51,1.24,10.79,10.79,0,0,1,3.27,2,2.62,2.62,0,0,1,1,2.31,5,5,0,0,1-.61,1.47,5.66,5.66,0,0,1-1.34,1.58,2.23,2.23,0,0,1-1.82.5,3.94,3.94,0,0,1-1.55-.67c-.55-.38-1.17-.76-1.86-1.16a7.5,7.5,0,0,0-2.55-.84,5,5,0,0,0-1.85,0,2.74,2.74,0,0,0-1.14.5,1.24,1.24,0,0,0,.29,2.13,14.91,14.91,0,0,0,2.32,1.18c1,.4,2,.85,3,1.34a13.08,13.08,0,0,1,2.94,1.9,7.39,7.39,0,0,1,2,2.85,7.52,7.52,0,0,1,.31,4.12,7.84,7.84,0,0,1-3.76,5.78Q346.45,253.42,341.22,252.58Z"/><path class="cls-7" d="M303.28,258.25a20.28,20.28,0,0,1-6-1.95,11.46,11.46,0,0,1-4.25-3.51,6.07,6.07,0,0,1-1.08-4.65,5.78,5.78,0,0,1,1.62-3.28,8.2,8.2,0,0,1,3-1.9,4.88,4.88,0,0,1-1.22-1.62,3.72,3.72,0,0,1-.22-2.15,4.13,4.13,0,0,1,1.22-2.46,10.9,10.9,0,0,1,2.34-1.59,9.17,9.17,0,0,1-2.17-3.51,8.67,8.67,0,0,1-.3-4.13l.14-.83a8.29,8.29,0,0,1,2.19-4.56,9.57,9.57,0,0,1,4.52-2.57,14.52,14.52,0,0,1,6.17-.2,15.4,15.4,0,0,1,3.33.91,13.49,13.49,0,0,1,2.73,1.44,10.81,10.81,0,0,1,2.24-2.89,2.12,2.12,0,0,1,1.56-.49,3.25,3.25,0,0,1,2.27,1.28,2.58,2.58,0,0,1,.6,1.81,1.79,1.79,0,0,1-.37.82,2.87,2.87,0,0,1-.79.7c-.38.24-.81.49-1.29.73a11.15,11.15,0,0,0-1.43.89,7.36,7.36,0,0,1,1.18,2.75,8.42,8.42,0,0,1,0,3.09l-.13.83a8.2,8.2,0,0,1-2.24,4.52,10.36,10.36,0,0,1-4.62,2.65,14.37,14.37,0,0,1-6.21.25,15.5,15.5,0,0,1-3.28-.88,3.47,3.47,0,0,0-.23.37,1.21,1.21,0,0,0-.11.32c-.08.52.26.95,1,1.31a21.37,21.37,0,0,0,3,1.05c1.21.35,2.51.76,3.87,1.25a17.52,17.52,0,0,1,3.78,1.87,7.77,7.77,0,0,1,2.67,2.91,6.94,6.94,0,0,1,.51,4.39,7.53,7.53,0,0,1-2.71,5,10.86,10.86,0,0,1-5.2,2.13A20.62,20.62,0,0,1,303.28,258.25Zm.72-5.48a5.42,5.42,0,0,0,3.18-.42,2.91,2.91,0,0,0,1.76-2.26,2.32,2.32,0,0,0-.28-1.64,3.58,3.58,0,0,0-1.29-1.2,9.73,9.73,0,0,0-2-.9c-.78-.26-1.58-.52-2.41-.76a4.09,4.09,0,0,0-1.91,1.17,3.6,3.6,0,0,0-.86,1.8,3,3,0,0,0,.94,2.83A5.51,5.51,0,0,0,304,252.77Zm3-19.13a2.67,2.67,0,0,0,2.47-.82,5.36,5.36,0,0,0,1.33-2.95L311,229a5.37,5.37,0,0,0-.33-3.07,2.69,2.69,0,0,0-2.17-1.61,2.63,2.63,0,0,0-2.5.85,5.35,5.35,0,0,0-1.29,2.82l-.12.77a5.58,5.58,0,0,0,.31,3.22A2.66,2.66,0,0,0,307,233.64Z"/><path class="cls-7" d="M269,240.32A5.36,5.36,0,0,1,266,239a2.33,2.33,0,0,1-.9-2l3.43-21.18a2.17,2.17,0,0,1,1.5-1.7,6,6,0,0,1,3.2-.22,4.79,4.79,0,0,1,2.55,1.16,2.2,2.2,0,0,1,.81,2.07l-.21,1.27a7.67,7.67,0,0,1,3.2-2.47,8.38,8.38,0,0,1,4.93-.55,7.86,7.86,0,0,1,4.45,2.35,11.74,11.74,0,0,1,2.76,4.78,13.42,13.42,0,0,1,.36,6.08l-2,12.45a2.15,2.15,0,0,1-1.68,1.78,6.81,6.81,0,0,1-3.09.19,6.7,6.7,0,0,1-2.78-1.14,2.18,2.18,0,0,1-1.07-2.22l2-12.46a4.11,4.11,0,0,0-.2-2.08,4.53,4.53,0,0,0-1.2-1.79,3.59,3.59,0,0,0-1.93-.94,3.45,3.45,0,0,0-1.83.21,4.06,4.06,0,0,0-1.65,1.19,4.36,4.36,0,0,0-.92,2.16l-2,12.46c-.11.66-.64,1.2-1.58,1.62A5.53,5.53,0,0,1,269,240.32Z"/><path class="cls-7" d="M255.43,238.13a5.33,5.33,0,0,1-3-1.34,2.31,2.31,0,0,1-.9-2L255,213.59a2.16,2.16,0,0,1,1.5-1.7,5.93,5.93,0,0,1,3.2-.22,6.22,6.22,0,0,1,2.94,1.21,2.17,2.17,0,0,1,1,2.1l-3.43,21.18c-.1.67-.63,1.21-1.57,1.63A5.54,5.54,0,0,1,255.43,238.13Z"/><path class="cls-7" d="M241.7,235.91q-5.28-.85-7.73-3.56t-1.65-7.6l4.2-26a2.18,2.18,0,0,1,1.7-1.67,6.42,6.42,0,0,1,5.86.95,2.19,2.19,0,0,1,1.06,2.11l-1.44,8.9,6.28,1a1.75,1.75,0,0,1,1.43,1.23,4.45,4.45,0,0,1,.19,2.17,4.38,4.38,0,0,1-.87,2,1.76,1.76,0,0,1-1.74.69l-6.28-1-1.77,10.95a2.35,2.35,0,0,0,.22,1.78,2.65,2.65,0,0,0,1.71.76l2.39.39a3.32,3.32,0,0,1,2.59,1.59,4,4,0,0,1,.49,2.61,3.94,3.94,0,0,1-1.29,2.36,3.36,3.36,0,0,1-3,.66Z"/><path class="cls-7" d="M213.24,231.3a5.29,5.29,0,0,1-2.9-1.32,2.33,2.33,0,0,1-.9-2l3.43-21.18a2.17,2.17,0,0,1,1.5-1.7,5.86,5.86,0,0,1,3.15-.23,4.92,4.92,0,0,1,2.6,1.16,2.2,2.2,0,0,1,.81,2.07l-.33,2.06a9.41,9.41,0,0,1,2-2.11,9.92,9.92,0,0,1,2.64-1.51,5.42,5.42,0,0,1,2.82-.31l1.61.26a2.74,2.74,0,0,1,2,1.46,4,4,0,0,1,.5,2.76,4.12,4.12,0,0,1-1.35,2.52,2.76,2.76,0,0,1-2.32.76l-1.61-.26a4.92,4.92,0,0,0-3.06.56,7.69,7.69,0,0,0-2.74,2.5,10,10,0,0,0-1.6,4.24l-1.35,8.34c-.11.67-.63,1.21-1.58,1.63A5.59,5.59,0,0,1,213.24,231.3Z"/><path class="cls-7" d="M187.71,227.24a7.52,7.52,0,0,1-4.71-2.61q-1.83-2.15-1.21-5.93a7.37,7.37,0,0,1,2.49-4.84,9,9,0,0,1,5-1.82,28.73,28.73,0,0,1,6.88.37l2,.32.09-.55a5,5,0,0,0-.09-2,3.68,3.68,0,0,0-1-1.8,4.25,4.25,0,0,0-2.4-1,9.6,9.6,0,0,0-3.46-.1,7.5,7.5,0,0,0-1.87.63,2.21,2.21,0,0,1-1.47.25,2.37,2.37,0,0,1-1.91-1.73,6.15,6.15,0,0,1-.29-3,2.86,2.86,0,0,1,1.91-2.08,12.37,12.37,0,0,1,4-1,17.29,17.29,0,0,1,4.34.14,15.16,15.16,0,0,1,7.09,2.74,9.89,9.89,0,0,1,3.4,4.69,11.41,11.41,0,0,1,.42,5.51l-2.14,13.23a2.28,2.28,0,0,1-1.5,1.7,5.6,5.6,0,0,1-3.16.29,4.69,4.69,0,0,1-2.59-1.22,2.29,2.29,0,0,1-.81-2.07l.2-1.23a18.32,18.32,0,0,1-4,2.52A8.71,8.71,0,0,1,187.71,227.24Zm4.74-5.67a3.23,3.23,0,0,0,2-.4,6.4,6.4,0,0,0,1.94-1.6,5,5,0,0,0,1.11-2.44l0-.23-.22,0a21.39,21.39,0,0,0-3-.29,4.9,4.9,0,0,0-2.41.47,2.82,2.82,0,0,0-.86,3.71A2.33,2.33,0,0,0,192.45,221.57Z"/><path class="cls-7" d="M172.66,224.73c-3.53-.56-6.1-1.75-7.73-3.56s-2.18-4.33-1.65-7.59l4.2-26a2.18,2.18,0,0,1,1.7-1.67,6.42,6.42,0,0,1,5.86,1A2.19,2.19,0,0,1,176.1,189l-1.44,8.9,6.28,1a1.75,1.75,0,0,1,1.43,1.23,4.45,4.45,0,0,1,.19,2.17,4.38,4.38,0,0,1-.87,2A1.76,1.76,0,0,1,180,205l-6.28-1L171.9,215a2.3,2.3,0,0,0,.22,1.78,2.65,2.65,0,0,0,1.7.76l2.4.38a3.39,3.39,0,0,1,2.59,1.59,4,4,0,0,1,.49,2.62,4,4,0,0,1-1.29,2.36,3.36,3.36,0,0,1-3,.66Z"/><path class="cls-7" d="M147.16,221.18A18.66,18.66,0,0,1,142,219.6a11.08,11.08,0,0,1-3.53-2.51,3.29,3.29,0,0,1-1-2.73,4.12,4.12,0,0,1,.61-1.5,5.09,5.09,0,0,1,1.25-1.4,2,2,0,0,1,1.58-.42,3,3,0,0,1,1.68.92,13.57,13.57,0,0,0,2,1.61,8.58,8.58,0,0,0,3.43,1.18q2.24.36,2.94-.18a1.82,1.82,0,0,0,.81-1.1,1.65,1.65,0,0,0-.71-1.62,10,10,0,0,0-2.27-1.28c-1-.4-2-.85-3-1.34a14.39,14.39,0,0,1-2.93-1.82,7,7,0,0,1-2.05-2.67,6.93,6.93,0,0,1-.33-3.93,9.12,9.12,0,0,1,1.62-3.87,7.75,7.75,0,0,1,3.78-2.73,12.84,12.84,0,0,1,6.43-.27,20.41,20.41,0,0,1,4.51,1.24,10.8,10.8,0,0,1,3.27,2,2.6,2.6,0,0,1,1,2.3,5,5,0,0,1-.61,1.47,5.5,5.5,0,0,1-1.34,1.58,2.23,2.23,0,0,1-1.82.5,3.86,3.86,0,0,1-1.55-.67c-.55-.38-1.17-.76-1.86-1.16a7.5,7.5,0,0,0-2.55-.84,5,5,0,0,0-1.85,0,2.75,2.75,0,0,0-1.14.51,1.29,1.29,0,0,0-.47.78,1.33,1.33,0,0,0,.76,1.34,14.09,14.09,0,0,0,2.32,1.18c1,.4,2,.85,3,1.34a12.79,12.79,0,0,1,2.94,1.91,7.28,7.28,0,0,1,2.05,2.84,7.56,7.56,0,0,1,.31,4.13,7.88,7.88,0,0,1-3.76,5.78C153.43,221.4,150.65,221.74,147.16,221.18Z"/><g id="Artwork_20" data-name="Artwork 20"><g class="cls-8"><g class="cls-8"><path class="cls-5" d="M263.85,194.52l.65,2.1a1.23,1.23,0,0,0,.81.82l2.1.66a1.23,1.23,0,0,1,.34,2.19l-1.8,1.27a1.24,1.24,0,0,0-.53,1l0,2.2a1.23,1.23,0,0,1-2,1l-1.76-1.32a1.23,1.23,0,0,0-1.13-.18l-2.09.7a1.24,1.24,0,0,1-1.56-1.58l.71-2.08a1.23,1.23,0,0,0-.18-1.14l-1.31-1.77a1.24,1.24,0,0,1,1-2l2.2,0a1.27,1.27,0,0,0,1-.52l1.27-1.8a1.24,1.24,0,0,1,2.19.36"/><path class="cls-9" d="M263.85,194.52l.65,2.1a1.23,1.23,0,0,0,.81.82l2.1.66a1.23,1.23,0,0,1,.34,2.19l-1.8,1.27a1.24,1.24,0,0,0-.53,1l0,2.2a1.23,1.23,0,0,1-2,1l-1.76-1.32a1.23,1.23,0,0,0-1.13-.18l-2.09.7a1.24,1.24,0,0,1-1.56-1.58l.71-2.08a1.23,1.23,0,0,0-.18-1.14l-1.31-1.77a1.24,1.24,0,0,1,1-2l2.2,0a1.27,1.27,0,0,0,1-.52l1.27-1.8A1.24,1.24,0,0,1,263.85,194.52Z"/></g></g></g><g id="Artwork_64" data-name="Artwork 64"><g class="cls-10"><g class="cls-10"><path class="cls-7" d="M183.28,70.94l4,8a5,5,0,0,0,3.8,2.76l8.89,1.3a5,5,0,0,1,2.79,8.6l-6.43,6.27a5.05,5.05,0,0,0-1.45,4.47l1.52,8.86a5,5,0,0,1-7.32,5.32l-8-4.19a5,5,0,0,0-4.69,0l-8,4.19a5,5,0,0,1-7.32-5.32l1.52-8.86a5.05,5.05,0,0,0-1.45-4.47l-6.43-6.27a5,5,0,0,1,2.79-8.6l8.89-1.3a5,5,0,0,0,3.8-2.76l4-8a5,5,0,0,1,9.05,0"/><path class="cls-11" d="M183.28,70.94l4,8a5,5,0,0,0,3.8,2.76l8.89,1.3a5,5,0,0,1,2.79,8.6l-6.43,6.27a5.05,5.05,0,0,0-1.45,4.47l1.52,8.86a5,5,0,0,1-7.32,5.32l-8-4.19a5,5,0,0,0-4.69,0l-8,4.19a5,5,0,0,1-7.32-5.32l1.52-8.86a5.05,5.05,0,0,0-1.45-4.47l-6.43-6.27a5,5,0,0,1,2.79-8.6l8.89-1.3a5,5,0,0,0,3.8-2.76l4-8A5,5,0,0,1,183.28,70.94Z"/><path d="M183.28,70.94l4,8a5,5,0,0,0,3.8,2.76l8.89,1.3a5,5,0,0,1,2.79,8.6l-6.43,6.27a5.05,5.05,0,0,0-1.45,4.47l1.52,8.86a5,5,0,0,1-7.32,5.32l-8-4.19a5,5,0,0,0-4.69,0l-8,4.19a5,5,0,0,1-7.32-5.32l1.52-8.86a5.05,5.05,0,0,0-1.45-4.47l-6.43-6.27a5,5,0,0,1,2.79-8.6l8.89-1.3a5,5,0,0,0,3.8-2.76l4-8a5,5,0,0,1,9.05,0"/><path class="cls-12" d="M183.28,70.94l4,8a5,5,0,0,0,3.8,2.76l8.89,1.3a5,5,0,0,1,2.79,8.6l-6.43,6.27a5.05,5.05,0,0,0-1.45,4.47l1.52,8.86a5,5,0,0,1-7.32,5.32l-8-4.19a5,5,0,0,0-4.69,0l-8,4.19a5,5,0,0,1-7.32-5.32l1.52-8.86a5.05,5.05,0,0,0-1.45-4.47l-6.43-6.27a5,5,0,0,1,2.79-8.6l8.89-1.3a5,5,0,0,0,3.8-2.76l4-8A5,5,0,0,1,183.28,70.94Z"/><path class="cls-4" d="M183.28,70.94l4,8a5,5,0,0,0,3.8,2.76l8.89,1.3a5,5,0,0,1,2.79,8.6l-6.43,6.27a5.05,5.05,0,0,0-1.45,4.47l1.52,8.86a5,5,0,0,1-7.32,5.32l-8-4.19a5,5,0,0,0-4.69,0l-8,4.19a5,5,0,0,1-7.32-5.32l1.52-8.86a5.05,5.05,0,0,0-1.45-4.47l-6.43-6.27a5,5,0,0,1,2.79-8.6l8.89-1.3a5,5,0,0,0,3.8-2.76l4-8a5,5,0,0,1,9.05,0"/><path class="cls-13" d="M183.28,70.94l4,8a5,5,0,0,0,3.8,2.76l8.89,1.3a5,5,0,0,1,2.79,8.6l-6.43,6.27a5.05,5.05,0,0,0-1.45,4.47l1.52,8.86a5,5,0,0,1-7.32,5.32l-8-4.19a5,5,0,0,0-4.69,0l-8,4.19a5,5,0,0,1-7.32-5.32l1.52-8.86a5.05,5.05,0,0,0-1.45-4.47l-6.43-6.27a5,5,0,0,1,2.79-8.6l8.89-1.3a5,5,0,0,0,3.8-2.76l4-8A5,5,0,0,1,183.28,70.94Z"/></g></g></g><g id="Artwork_63" data-name="Artwork 63"><g class="cls-14"><g class="cls-14"><path class="cls-7" d="M107.28,127.94l4,8.05a5,5,0,0,0,3.8,2.76l8.89,1.3a5,5,0,0,1,2.79,8.6l-6.43,6.27a5.05,5.05,0,0,0-1.45,4.47l1.52,8.86a5,5,0,0,1-7.32,5.32l-8-4.19a5,5,0,0,0-4.69,0l-8,4.19a5,5,0,0,1-7.32-5.32l1.52-8.86a5.05,5.05,0,0,0-1.45-4.47l-6.43-6.27a5,5,0,0,1,2.79-8.6l8.89-1.3a5,5,0,0,0,3.8-2.76l4-8.05a5,5,0,0,1,9,0"/><path class="cls-11" d="M107.28,127.94l4,8.05a5,5,0,0,0,3.8,2.76l8.89,1.3a5,5,0,0,1,2.79,8.6l-6.43,6.27a5.05,5.05,0,0,0-1.45,4.47l1.52,8.86a5,5,0,0,1-7.32,5.32l-8-4.19a5,5,0,0,0-4.69,0l-8,4.19a5,5,0,0,1-7.32-5.32l1.52-8.86a5.05,5.05,0,0,0-1.45-4.47l-6.43-6.27a5,5,0,0,1,2.79-8.6l8.89-1.3a5,5,0,0,0,3.8-2.76l4-8.05A5,5,0,0,1,107.28,127.94Z"/><path d="M107.28,127.94l4,8.05a5,5,0,0,0,3.8,2.76l8.89,1.3a5,5,0,0,1,2.79,8.6l-6.43,6.27a5.05,5.05,0,0,0-1.45,4.47l1.52,8.86a5,5,0,0,1-7.32,5.32l-8-4.19a5,5,0,0,0-4.69,0l-8,4.19a5,5,0,0,1-7.32-5.32l1.52-8.86a5.05,5.05,0,0,0-1.45-4.47l-6.43-6.27a5,5,0,0,1,2.79-8.6l8.89-1.3a5,5,0,0,0,3.8-2.76l4-8.05a5,5,0,0,1,9,0"/><path class="cls-12" d="M107.28,127.94l4,8.05a5,5,0,0,0,3.8,2.76l8.89,1.3a5,5,0,0,1,2.79,8.6l-6.43,6.27a5.05,5.05,0,0,0-1.45,4.47l1.52,8.86a5,5,0,0,1-7.32,5.32l-8-4.19a5,5,0,0,0-4.69,0l-8,4.19a5,5,0,0,1-7.32-5.32l1.52-8.86a5.05,5.05,0,0,0-1.45-4.47l-6.43-6.27a5,5,0,0,1,2.79-8.6l8.89-1.3a5,5,0,0,0,3.8-2.76l4-8.05A5,5,0,0,1,107.28,127.94Z"/><path class="cls-15" d="M107.28,127.94l4,8.05a5,5,0,0,0,3.8,2.76l8.89,1.3a5,5,0,0,1,2.79,8.6l-6.43,6.27a5.05,5.05,0,0,0-1.45,4.47l1.52,8.86a5,5,0,0,1-7.32,5.32l-8-4.19a5,5,0,0,0-4.69,0l-8,4.19a5,5,0,0,1-7.32-5.32l1.52-8.86a5.05,5.05,0,0,0-1.45-4.47l-6.43-6.27a5,5,0,0,1,2.79-8.6l8.89-1.3a5,5,0,0,0,3.8-2.76l4-8.05a5,5,0,0,1,9,0"/><path class="cls-16" d="M107.28,127.94l4,8.05a5,5,0,0,0,3.8,2.76l8.89,1.3a5,5,0,0,1,2.79,8.6l-6.43,6.27a5.05,5.05,0,0,0-1.45,4.47l1.52,8.86a5,5,0,0,1-7.32,5.32l-8-4.19a5,5,0,0,0-4.69,0l-8,4.19a5,5,0,0,1-7.32-5.32l1.52-8.86a5.05,5.05,0,0,0-1.45-4.47l-6.43-6.27a5,5,0,0,1,2.79-8.6l8.89-1.3a5,5,0,0,0,3.8-2.76l4-8.05A5,5,0,0,1,107.28,127.94Z"/></g></g></g><rect class="cls-15" x="475.78" y="98.8" width="129.97" height="311.89" rx="19.91" transform="matrix(0.99, 0.16, -0.16, 0.99, 47.12, -82.35)"/><g id="retrotaperainbow"><g id="retrotaperainbow-2" data-name="retrotaperainbow"><g id="Layer_1-2" data-name="Layer 1"><path id="Path_14330" data-name="Path 14330" d="M398,758.28l-23.58-13.72c-3.31-1.93-5.36-6-5.38-11.79l23.59,13.73C392.64,752.22,394.69,756.32,398,758.28Z"/><path id="Path_14331" data-name="Path 14331" class="cls-17" d="M743.54,288.65c10.17-5.89,18.46-1.16,18.53,10.55l.67,233.55c0,11.71-8.21,26-18.39,31.84L411.07,757c-10.19,5.9-18.48,1.17-18.54-10.54l-.65-233.55c0-11.71,8.2-26,18.38-31.85Z"/><path id="Path_14332" data-name="Path 14332" d="M736.54,371.18c10.35-6,18.76-1.17,18.79,10.72l.41,141.62c0,11.89-8.33,26.37-18.68,32.35L425.85,735.54c-10.35,6-18.77,1.19-18.8-10.7l-.41-141.62c0-11.89,8.34-26.39,18.68-32.36Z"/><path id="Path_14333" data-name="Path 14333" d="M733,273.68c-3.37-2-8-1.69-13.12,1.28L386.72,467.33c-10.19,5.9-18.42,20.13-18.54,31.84V732.68l24.35,13.73V512.9c-.6-11.71,7.6-26,17.78-31.84L743.54,288.69c5.13-3,9.77-3.24,13.13-1.29Z"/><path id="Path_14334" data-name="Path 14334" class="cls-18" d="M700.23,341.88l7.88,4.58c-1.83-1.06-4.36-.91-7.15.7l-7.87-4.58C695.88,341,698.4,340.83,700.23,341.88Z"/><path id="Path_14335" data-name="Path 14335" class="cls-19" d="M445.1,505.48c1.83,1,4.34.88,7.11-.72l7.87,4.58c-2.77,1.6-5.28,1.76-7.1.71Z"/><path id="Path_14336" data-name="Path 14336" class="cls-19" d="M462.22,487.43c0-3.17-1.13-5.39-2.93-6.44l7.88,4.58c1.8,1.05,2.92,3.27,2.93,6.43,0,6.37-4.46,14.14-10,17.34l-7.87-4.6a21,21,0,0,0,7.64-8.43A19.72,19.72,0,0,0,462.22,487.43Z"/><path id="Path_14337" data-name="Path 14337" class="cls-20" d="M445.06,505.46h0l7.88,4.58h0Z"/><path id="Path_14338" data-name="Path 14338" class="cls-18" d="M459.29,481l7.88,4.58c-1.83-1.07-4.36-.91-7.15.7l-7.88-4.58C454.94,480.08,457.47,479.93,459.29,481Z"/><path id="Path_14339" data-name="Path 14339" class="cls-18" d="M452.94,510l-7.88-4.58c-1.8-1-2.91-3.27-2.92-6.44,0-6.37,4.46-14.13,10-17.33l7.88,4.58c-5.55,3.2-10,11-10,17.33C450,506.76,451.14,509,452.94,510Z"/><path id="Path_14340" data-name="Path 14340" class="cls-19" d="M686,366.38c1.82,1,4.34.84,7.12-.73l7.86,4.57c-2.77,1.61-5.29,1.77-7.11.73Z"/><path id="Path_14341" data-name="Path 14341" class="cls-19" d="M703.16,348.32c0-3.16-1.12-5.39-2.93-6.44l7.88,4.58c1.8,1.05,2.91,3.27,2.92,6.44,0,6.37-4.45,14.12-10,17.33l-7.87-4.58C698.7,362.45,703.17,354.69,703.16,348.32Z"/><path id="Path_14342" data-name="Path 14342" class="cls-20" d="M686,366.35h0l7.87,4.57h0Z"/><path id="Path_14343" data-name="Path 14343" class="cls-18" d="M693.88,370.93,686,366.35c-1.8-1-2.92-3.27-2.93-6.43,0-6.37,4.47-14.13,10-17.34l7.87,4.58c-5.55,3.21-10,10.95-10,17.33C691,367.66,692.08,369.88,693.88,370.93Z"/><path id="Path_14344" data-name="Path 14344" class="cls-21" d="M418.08,489.08,740,303.19l.11,40.62L717.3,383.37,442.14,542.26,418.19,529.7Zm42,20.26c5.55-3.2,10-10.95,10-17.33s-4.53-8.94-10.11-5.74-10,11-10,17.34,4.53,8.94,10.11,5.73M701,370.23c5.55-3.2,10-11,10-17.32s-4.52-8.94-10.1-5.74-10,10.95-10,17.34,4.53,8.93,10.11,5.72"/><path id="Path_14345" data-name="Path 14345" d="M740.1,303.11l-7.88-4.58-322.06,186V525.2l7.77,4.58V489.13Z"/><path id="Path_14346" data-name="Path 14346" d="M741.36,305.31l-7.88-4.59-322.29,186V527.4L419,532V491.33Z"/><g id="Group_4984" data-name="Group 4984"><path id="Path_14347" data-name="Path 14347" class="cls-17" d="M701,347.58c5.55-3.2,10-.63,10.11,5.74s-4.46,14.13-10,17.33-10,.64-10.1-5.74S695.41,350.78,701,347.58Z"/></g><g id="Group_4985" data-name="Group 4985"><path id="Path_14348" data-name="Path 14348" class="cls-17" d="M460.12,486.43c5.54-3.21,10.05-.64,10.06,5.73s-4.46,14.13-10,17.33-10.1.64-10.1-5.73S454.57,489.63,460.12,486.43Z"/></g><path id="Path_14349" data-name="Path 14349" class="cls-5" d="M718.28,409.72c7.57-4.36,13.7-.84,13.73,7.82l.32,113.62c0,8.68-6.08,19.26-13.64,23.63l-273.56,158c-7.58,4.37-13.7.85-13.72-7.82l-.32-113.62c0-8.69,6.08-19.26,13.64-23.62Zm.25,120.08-.27-98.52c0-5.28-3.75-7.42-8.35-4.76L454.21,574.14c-4.59,2.65-8.31,9.09-8.29,14.33l.28,98.43c0,5.27,3.76,7.4,8.35,4.75L710.24,544.06c4.6-2.65,8.31-9.09,8.29-14.33"/><path id="Path_14350" data-name="Path 14350" class="cls-4" d="M695.06,449.06c6.08-3.51,11-.68,11,6.3l.18,65.3c0,7-4.88,15.5-11,19L469.92,669.81c-6.09,3.51-11,.69-11-6.29l-.19-65.32c0-7,4.89-15.49,11-19Z"/><path id="Path_14351" data-name="Path 14351" class="cls-15" d="M709.68,426.74c4.59-2.64,8.32-.51,8.34,4.76l.27,98.25c0,5.26-3.68,11.69-8.28,14.3L454.78,691.45c-4.59,2.65-8.33.53-8.34-4.73l-.28-98.26c0-5.27,3.69-11.7,8.28-14.31ZM706.1,521l-.19-65.43c0-7-4.95-9.79-11-6.29L469.82,579.18c-6.07,3.5-10.94,12-10.94,19l.18,65.22c0,7,4.95,9.79,11,6.28L695.15,539.71c6.07-3.51,10.94-12,10.94-19"/><path id="Path_14352" data-name="Path 14352" class="cls-6" d="M733.52,385.75c7.44-4.29,13.47-.84,13.52,7.71l.4,144.38c0,8.55-6,19-13.42,23.26L429.89,736.69c-7.44,4.3-13.46.84-13.51-7.7L416,584.61c0-8.56,6-19,13.47-23.27ZM732,531.35l-.3-113.75c0-8.69-6.17-12.18-13.73-7.82L444.52,567.65c-7.57,4.37-13.66,14.93-13.63,23.62l.3,113.57c0,8.69,6.17,12.18,13.72,7.82L718.37,554.79C726,550.42,732,539.85,732,531.17"/><g id="Group_4986" data-name="Group 4986"><path id="Path_14353" data-name="Path 14353" class="cls-22" d="M675,514.24l3.56,2,.62.35-2.49,4.32-.57-.31-3.62-2.07Z"/><path id="Path_14354" data-name="Path 14354" class="cls-17" d="M666.74,492.68c3.34-1.58,6.39-1.82,8.82-.91l-3.35,5.81,2.47,1.4,3.29-5.76a10.77,10.77,0,0,1,3.3,7L676.55,503v4.61l4.72-2.73a31.66,31.66,0,0,1-3.17,11.43l-3.42-1.95-2.43,4.15,3.48,2a32.74,32.74,0,0,1-8.51,9.16v-5.53l-3.62,2.1v6a12,12,0,0,1-8.23,1l3.43-5.94-2.53-1.43-3.51,6.08c-2.15-1.63-3.58-4.43-3.93-8.2l4.92-2.84v-4.23l-4.83,2.79a33.52,33.52,0,0,1,3.54-11.73l3.32,1.86,2.49-4.25L655,503.46a33.65,33.65,0,0,1,8.08-8.58v5l3.63-2.1Z"/><path id="Path_14355" data-name="Path 14355" class="cls-22" d="M654.26,502.92l.87.5,3.32,1.89L656,509.63l-3.35-1.89-.85-.48Z"/></g><path id="Path_14356" data-name="Path 14356" class="cls-22" d="M502.93,585.85v6.81l-4.15,2.05.52-5.21v-1.56Z"/><path id="Path_14357" data-name="Path 14357" class="cls-22" d="M518.48,594.65v4l-.94.53-4.77,2.76,0-3.94,4.69-2.7Z"/><path id="Path_14358" data-name="Path 14358" class="cls-22" d="M512.44,585.19l2.52,1.43-.76,1.3-3.41,5.91-2.51-1.44,3.44-5.95Z"/><path id="Path_14359" data-name="Path 14359" class="cls-22" d="M510.83,609l3.58,2,.62.35-2.5,4.33-.55-.31-3.64-2.08Z"/><path id="Path_14360" data-name="Path 14360" class="cls-22" d="M666.71,491.07v6.83l-3.64,2.1.52-5.3v-1.59Z"/><path id="Path_14361" data-name="Path 14361" class="cls-22" d="M682.77,499.86v3.93l-1,.56-4.75,2.74v-3.94l4.66-2.69Z"/><path id="Path_14362" data-name="Path 14362" class="cls-22" d="M676.64,490.38l2.52,1.44-.77,1.32L675,499l-2.52-1.45,3.43-5.93Z"/><path id="Path_14363" data-name="Path 14363" class="cls-1" d="M682.77,503.8v-4.05l-1.1.63a11.39,11.39,0,0,0-3.38-7.26l.77-1.33-2.55-1.44-.73,1.27c-2.54-.93-5.64-.68-9.07.94V491l-3.63,2.09v1.81a33.58,33.58,0,0,0-8.05,8.55l-.82-.48-2.48,4.24.83.48A33.29,33.29,0,0,0,649,519.42l-1,.57v4.38l1-.55c.35,3.72,1.76,6.47,3.89,8.09l-.65,1.12,2.49,1.41.73-1.26a11.7,11.7,0,0,0,8.12-1V533l3.62-2.1v-.76a34.43,34.43,0,0,0,8.86-9.54l.56.32,2.53-4.32-.62-.35a33.39,33.39,0,0,0,3.3-11.9Z"/><path id="Path_14364" data-name="Path 14364" class="cls-22" d="M665.37,487.82c-11.79,6.79-21.32,23.33-21.29,36.86s9.66,19,21.42,12.2,21.32-23.33,21.29-36.86S677.14,481,665.37,487.82Zm13.8,28.8-2.53,4.32-.56-.32a34.15,34.15,0,0,1-8.86,9.54v.76L663.6,533v-.85a11.81,11.81,0,0,1-8.12,1l-.73,1.26L652.26,533l.65-1.12c-2.13-1.62-3.54-4.37-3.89-8.1l-1,.56v-4l1-.59a34.43,34.43,0,0,1,3.64-12.09l-.85-.5,2.56-4.39.86.51a34.51,34.51,0,0,1,8.32-8.85v-1.4l3.11-2v1.5c3.43-1.63,6.56-1.87,9.07-.94l.73-1.27,2.55,1.44-.78,1.33a11,11,0,0,1,3.39,7.26l1.1-.64v4.06l-1,.57a33.34,33.34,0,0,1-3.3,11.89Z"/><path id="Path_14365" data-name="Path 14365" class="cls-22" d="M502.93,619l.52,6v.79l-4.15,2,.52-.78v-6Z"/><path id="Path_14366" data-name="Path 14366" class="cls-17" d="M502.41,587.27c3.5-1.66,6.7-1.92,9.26-1l-3.52,6.11,2.59,1.47,3.5-6a11.46,11.46,0,0,1,3.5,7.41l-5,2.87v3.77l5-2.9a33.52,33.52,0,0,1-3.36,12.09L510.79,609l-2.56,4.39,3.69,2.11a34.6,34.6,0,0,1-9,9.65V619l-3.63,2v5.73a11.23,11.23,0,0,1-7.78,1l3.23-5.59-2.39-1.35-3.31,5.73c-2.05-1.54-3.39-4.18-3.73-7.76L490,616v-4.54l-4.81,2.78a33.34,33.34,0,0,1,3.53-11.74L492,604.4l2.49-4.26-3.24-1.85a34.25,34.25,0,0,1,8.08-8.6v5l3.11-2.05Z"/><path id="Path_14367" data-name="Path 14367" class="cls-22" d="M490.06,597.72l.88.5,3.31,1.9-2.5,4.32-3.32-1.9-.86-.49Z"/><path id="Path_14368" data-name="Path 14368" class="cls-22" d="M501.21,582.6c-11.8,6.8-21.32,23.34-21.28,36.86s9.64,19,21.42,12.21,21.32-23.33,21.28-36.86S513,575.81,501.21,582.6Zm13.62,28.82-2.52,4.32-.54-.31a34.33,34.33,0,0,1-8.84,9.49v.79l-3.63,2.1V627a11.76,11.76,0,0,1-8.1,1l-.74,1.27L488,627.82l.65-1.13c-2.13-1.61-3.53-4.37-3.88-8.09l-1,.56v-4l1-.58a34.16,34.16,0,0,1,3.63-12.08l-.85-.49,2.56-4.4.86.51a35,35,0,0,1,8.31-8.84v-1.41l3.11-2v1.51c3.43-1.63,6.56-1.88,9.06-1l.73-1.25,2.54,1.43-.76,1.31a11.22,11.22,0,0,1,3.43,7.25l1.07-.61v4.09l-1,.56a32.77,32.77,0,0,1-3.3,11.87Z"/><path id="Path_14369" data-name="Path 14369" class="cls-22" d="M489.45,611.75l0,3.94-4.76,2.73-1,.56v-3.93l1-.57Z"/><path id="Path_14370" data-name="Path 14370" class="cls-23" d="M667.44,472.48c18.9-11,34.28-2.16,34.34,19.56s-15.21,48.19-34.12,59.1L499.47,648.25c-18.9,11-34.28,2.15-34.34-19.57s15.21-48.18,34.11-59.1Zm-32.87,87.38-.16-57.38L530.16,562.66l-.28.34.16,57.5,32.45-18.74,39-22.69L634,560.55l.53-.57M501.33,631.67c11.79-6.8,21.32-23.33,21.28-36.86s-9.61-19-21.41-12.21-21.31,23.34-21.27,36.86,9.64,19,21.42,12.21m164.17-94.79c11.79-6.8,21.32-23.33,21.29-36.86s-9.66-19-21.43-12.21-21.31,23.34-21.28,36.87,9.65,19,21.42,12.2"/><path id="Path_14371" data-name="Path 14371" class="cls-22" d="M667.22,524l.52,6.12v.78l-4.14,2v-.66l0-6.19Z"/><path id="Path_14372" data-name="Path 14372" class="cls-22" d="M492.26,620.67l2.51,1.43L491.36,628l-.75,1.29-2.51-1.43.66-1.15Z"/><path id="Path_14373" data-name="Path 14373" class="cls-22" d="M653.75,517l0,3.92L649,523.64l-1,.54v-3.93l1-.56Z"/><path id="Path_14374" data-name="Path 14374" class="cls-22" d="M656.46,525.86l2.52,1.43-3.43,6-.74,1.27-2.52-1.43L653,532Z"/><path id="Path_14375" data-name="Path 14375" class="cls-24" d="M563.19,543.68c3.13,6.66,4.87,15,4.9,24.71a108.09,108.09,0,0,1-5.66,33.16l-.08.23-32.47,18.75L529.72,563l.28-.16Z"/><path id="Path_14376" data-name="Path 14376" class="cls-17" d="M634.57,502.45V560l-.52.31V503l-33.63,19.33a104.64,104.64,0,0,0-4.76,30.32c0,10.64,2.11,19.53,5.8,26.46l-38.91,22.46a107.14,107.14,0,0,0,5.66-33.15c0-9.75-1.77-18-4.91-24.71l-33.19,19.16Z"/><path id="Path_14377" data-name="Path 14377" class="cls-24" d="M633.54,503.05l.51,57.28v.26l-32.49,18.69-.1-.2c-3.69-6.92-5.77-15.82-5.81-26.46a105.38,105.38,0,0,1,4.76-30.32Z"/></g></g></g><rect class="cls-7" x="542.76" y="119.62" width="68.12" height="40.86" rx="5.74" transform="translate(29.42 -89.5) rotate(9.1)"/><circle class="cls-6" cx="522.74" cy="129.62" r="12"/><rect class="cls-7" x="502.76" y="168.62" width="68.12" height="40.86" rx="5.74" transform="translate(36.67 -82.56) rotate(9.1)"/><circle class="cls-4" cx="589.74" cy="199.62" r="12"/><rect class="cls-7" x="521.76" y="236.62" width="68.12" height="40.86" rx="5.74" transform="translate(47.67 -84.71) rotate(9.1)"/><circle class="cls-5" cx="501.74" cy="246.62" r="12"/><rect class="cls-7" x="481.76" y="285.62" width="68.12" height="40.86" rx="5.74" transform="translate(54.92 -77.76) rotate(9.1)"/><circle class="cls-17" cx="568.74" cy="316.62" r="12"/></svg>