<svg xmlns="http://www.w3.org/2000/svg" width="508.696" height="506.752" viewBox="0 0 508.696 506.752">
  <g id="Artwork_2" data-name="Artwork 2" transform="translate(254.396 253.376)">
    <g id="Group_6" data-name="Group 6" transform="translate(-242 -241.083)">
      <g id="Group_1" data-name="Group 1">
        <path id="Path_1" data-name="Path 1" d="M461.565,322.511c-18.538-20.574-45.4-31.687-73.086-32.209l-2.3-.044a5.008,5.008,0,0,0-3.3,8.856l3.826,3.2c6.648,5.537,12.033,16.065,7.219,29-3.339,8.994-12.421,15.145-22.6,15.313-18.661.2-23-12.072-24.685-35.031.241-25.2.167-50.811.1-75.585q-.052-18.086-.074-36.162a29.794,29.794,0,0,0-29.7-29.794h-6.879a29.424,29.424,0,0,0-11.939,2.547c-25.157-15.15-63.842-17-82.818-14.482.157-.9.31-1.824.457-2.793,6.447-42.191-1.19-73.78-23.348-96.577a97.446,97.446,0,0,0-32.012-21.489c-1.588-.639-3.86-3.28-5.227-4.868-12.274-14.236-33.866-19.95-50.26-13.3l-5.232,2.124,1.156,5.522c.182.87.32,1.755.462,2.646a52.044,52.044,0,0,0,1.106,5.158c-.477-.241-.826-.408-.841-.413C99.028,32.993,92,30.145,85.747,27.618c-4.352-1.755-8.315-3.363-10.11-4.121-3.511-1.485-6.23-2.754-8.832-3.968-3.6-1.682-7.007-3.27-11.979-5.2a213.557,213.557,0,0,0-34.4-10.179c-1.79-.4-5.055-.728-8.212-1.042-1.79-.182-3.536-.354-4.883-.531C4.9,2.264,3.361,2.893,2.737,4.438,1.69,7.054,4.227,8.9,8.058,11.71a26.114,26.114,0,0,1,2.257,1.741,107.777,107.777,0,0,0,10.6,9.166c2.178,1.711,4.455,3.5,7.051,5.768,8.114,7.061,13.311,10.184,27.8,16.7a165.949,165.949,0,0,1,16.222,8.891c3.5,2.085,7.027,4.17,10.567,6.088C77.707,64.11,72.927,68.2,68.236,72.223L64.405,75.5c-5.227,4.455-10.631,9.053-14.87,14.85C40.2,103.089,42.6,121.967,54.9,132.421c12.726,10.823,31.855,10.322,42.648-1.131,2.587-2.744,5.468-3.909,9.574-4.8-1.406,5.37-4.755,9.727-8.994,14.757-7.169,8.527-12.234,17.152-17.594,26.283l-.457.787c-2.542,4.317-4,10.867-4.573,20.264a20.874,20.874,0,0,0-.059,2.99l.025,123.558.7,131.667c0,18.548,14.767,33.644,32.922,33.644H110.9c2.08,0,4.131.1,6.117.192,9.4.438,22.305,1.052,26.446-12.874l.275-.944V328.874c0-5.36,3.84-11.1,9.545-11.1h1.21c5.709,0,9.545,5.739,9.545,11.1V463.428l.211,1.687c4.121,15.986,17.3,15.672,27.852,15.406,1.608-.039,3.29-.079,5.021-.079l5.773.025c9.486.113,18.465.2,24.356-5.625,3.363-3.329,5.07-8.074,5.07-14.093V328.874c0-5.7,5.188-11.1,10.671-11.1h1.21c5.34,0,10.027,5.188,10.027,11.1V462.513c0,5.852,1.642,10.4,4.888,13.518,5.463,5.247,13.424,4.927,21.863,4.588,2.164-.089,4.44-.177,6.776-.177h1.81c14.777,0,27.311-10.041,31.476-23.824a96.2,96.2,0,0,0,68.223,28.048c2.936,0,5.9-.128,8.876-.388,46.759-4.135,84.633-42.584,88.085-89.437A96.438,96.438,0,0,0,461.565,322.511ZM308.989,418.886v27.729c0,11-8.9,20.3-19.424,20.3h-1.81c-2.523,0-4.981.1-7.322.192-4.49.182-10.636.428-11.949-.831-.27-.261-.733-1.347-.733-3.762V328.874c0-13.346-10.784-24.626-23.549-24.626h-1.21c-12.888,0-24.193,11.507-24.193,24.626V460.748c0,1.279-.138,3.565-1.062,4.48-1.873,1.849-8.674,1.77-14.7,1.716l-5.916-.029c-1.844,0-3.629.039-5.345.084-11.448.28-13.026-.369-14.216-4.47V328.874c0-13.577-10.346-24.626-23.067-24.626h-1.21c-12.721,0-23.067,11.049-23.067,24.626V464.721c-.959,2.355-2.936,2.857-12.559,2.4-2.193-.1-4.46-.207-6.756-.207h-1.814c-10.69,0-19.4-9.023-19.4-20.156l-.7-131.662V195.506l.5-.821-.5-2.164-.029-1.446a7.7,7.7,0,0,1,.02-1.328c.59-9.6,1.982-13.257,2.759-14.58l.462-.787c5.281-9,9.84-16.773,16.272-24.42,7.051-8.374,13.847-17.752,12.79-32.189l-.561-7.612-7.489,1.47c-1.239.241-2.473.447-3.693.659-7.061,1.2-15.072,2.562-21.818,9.722-5.832,6.191-16.842,6.235-24.041.108-6.889-5.857-8.36-16.748-3.206-23.78,3.3-4.519,7.873-8.414,12.721-12.539l3.865-3.314C87.183,73.792,97.671,64.8,108.426,56.7c8.945-6.747,11.359-14.757,7.386-24.493a12.415,12.415,0,0,1-.595-2.016c10.3-1.7,22.492,2.621,29.735,11.025,2.444,2.842,5.788,6.737,10.454,8.6a83.163,83.163,0,0,1,27.336,18.361c19.266,19.822,25.521,46.867,19.679,85.114-.285,1.854-.59,3.506-.92,5.276-.354,1.908-.733,3.944-1.126,6.442l-1.234,7.819h11.8l.974-.3c10.779-3.314,57.041-3.821,82.061,13.469l3.693,2.552,2.08-1.323L318.008,431.5Zm163.743-25.039c-2.97,40.317-35.552,73.4-75.781,76.956a83.089,83.089,0,0,1-75.7-34.766l-1.869-2.611c0-46.179,1.067-157.262,1.544-196.551.359-29.691-7.253-45.21-13.611-53.014a15.464,15.464,0,0,1,2.773-.28h6.879a16.175,16.175,0,0,1,16.173,16.139q0,18.16.069,36.324c.069,24.828.143,50.491-.1,75.7l0,.275.02.275c1.052,14.5,3.531,48.362,38.419,47.856,15.706-.261,29.794-9.953,35.056-24.12a39.762,39.762,0,0,0-.846-30.571,83.708,83.708,0,0,1,66.974,88.389Z" transform="translate(-2.5 -2.5)" fill="#fff" stroke="#fff" stroke-miterlimit="10" stroke-width="24.587"/>
        <path id="Path_2" data-name="Path 2" d="M37.771,16.092a12.633,12.633,0,0,0-12.6,12.6,3.612,3.612,0,1,0,7.224,0,5.36,5.36,0,0,1,10.72,0,3.624,3.624,0,1,0,7.248,0A12.616,12.616,0,0,0,37.771,16.092Z" transform="translate(86.319 50.745)" fill="#fff" stroke="#fff" stroke-miterlimit="10" stroke-width="24.587"/>
      </g>
      <g id="Group_5" data-name="Group 5">
        <g id="Group_2" data-name="Group 2">
          <path id="Path_3" data-name="Path 3" d="M4.875,3.1c3.693.482,10.263.954,12.869,1.534A209.305,209.305,0,0,1,51.771,14.7c8.482,3.28,12.362,5.591,20.732,9.132,4.372,1.849,21.577,8.694,25.919,10.612,2.05.91,6.717,3.654,7.4,5.68,1.3,3.875-4.593,8.979-6.673,11.625-1.49,1.883-2.965,5.837-5.468,6.53-2.985.826-8.91-.944-11.551-2.36-9.3-4.981-18.435-11.271-27.4-15.3-14.806-6.663-19.5-9.623-27.149-16.291C20.9,18.5,16.332,15.792,10.058,9.517,8.332,7.791-.8,2.358,4.875,3.1Z" transform="translate(-0.389 -0.42)" stroke="#000" stroke-miterlimit="10" stroke-width="4.917"/>
          <path id="Path_4" data-name="Path 4" d="M93.969,63.19A27.374,27.374,0,0,1,83,60.313c-3.688-1.982-7.366-4.17-11.01-6.338a165.949,165.949,0,0,0-16.222-8.891c-14.487-6.515-19.684-9.638-27.8-16.7-2.6-2.267-4.873-4.057-7.051-5.768a107.777,107.777,0,0,1-10.6-9.166A26.114,26.114,0,0,0,8.058,11.71C4.227,8.9,1.69,7.049,2.737,4.438,3.361,2.893,4.9,2.264,7.33,2.579h0c1.347.177,3.093.349,4.883.531,3.157.315,6.422.644,8.212,1.042a213.557,213.557,0,0,1,34.4,10.179c4.971,1.928,8.374,3.516,11.979,5.2,2.6,1.215,5.321,2.478,8.832,3.968,1.795.757,5.758,2.365,10.11,4.121C92,30.145,99.028,32.993,101.6,34.128c.074.034,7.533,3.427,8.827,7.233,1.524,4.544-2.567,9.038-5.552,12.318-.6.669-1.161,1.269-1.554,1.77a17.409,17.409,0,0,0-1.136,1.78c-1.293,2.178-2.9,4.888-5.689,5.655A9.511,9.511,0,0,1,93.969,63.19ZM12.395,8.4a17.66,17.66,0,0,1,1.628,1.342,102.512,102.512,0,0,0,10.135,8.753c2.242,1.765,4.578,3.6,7.258,5.935,7.278,6.338,11.634,9.186,26.5,15.878a170.55,170.55,0,0,1,16.748,9.161c3.585,2.134,7.184,4.278,10.808,6.22,2.582,1.382,7.72,2.69,9.613,2.144.757-.207,1.9-2.129,2.582-3.275A22.017,22.017,0,0,1,99.2,52.2c.462-.585,1.092-1.283,1.795-2.051,1.628-1.785,5-5.5,4.46-7.115-.418-.851-3.609-3.068-5.98-4.116-2.542-1.121-9.505-3.939-15.691-6.442-4.381-1.77-8.374-3.393-10.189-4.155-3.58-1.515-6.353-2.808-9-4.047-3.521-1.642-6.85-3.2-11.654-5.05A205.685,205.685,0,0,0,19.279,9.271C17.917,8.971,15.07,8.671,12.395,8.4Z" transform="translate(-2.5 -2.5)" stroke="#000" stroke-miterlimit="10" stroke-width="4.917"/>
        </g>
        <g id="Group_3" data-name="Group 3" transform="translate(41.346 13.83)">
          <path id="Path_5" data-name="Path 5" d="M356.327,473.648A96.2,96.2,0,0,1,288.1,445.6c-4.165,13.783-16.7,23.825-31.476,23.825h-1.81c-2.336,0-4.612.089-6.776.177-8.438.339-16.4.659-21.863-4.588-3.245-3.118-4.888-7.666-4.888-13.518V317.857c0-5.911-4.686-11.1-10.026-11.1h-1.21c-5.483,0-10.671,5.394-10.671,11.1V449.73c0,6.019-1.706,10.764-5.07,14.093-5.886,5.822-14.87,5.739-24.356,5.626l-5.773-.025c-1.731,0-3.413.039-5.021.079-10.553.266-23.731.58-27.852-15.406l-.211-1.687V317.857c0-5.36-3.836-11.1-9.545-11.1h-1.21c-5.7,0-9.545,5.739-9.545,11.1V455.8l-.275.944c-4.14,13.926-17.048,13.311-26.445,12.874-1.987-.094-4.037-.192-6.117-.192H76.152c-18.155,0-32.922-15.1-32.922-33.644l-.7-131.667L42.5,180.555a20.875,20.875,0,0,1,.059-2.99c.575-9.4,2.036-15.947,4.573-20.264l.457-.787c5.36-9.132,10.425-17.757,17.594-26.283,4.239-5.03,7.587-9.387,8.994-14.757-4.106.89-6.988,2.055-9.574,4.8-10.789,11.452-29.922,11.954-42.648,1.131C9.664,110.95,7.264,92.072,16.6,79.331c4.239-5.8,9.643-10.4,14.87-14.85L35.3,61.206c10.3-8.836,20.958-17.973,32.046-26.327,4.524-3.413,4.406-5.148,3-8.581a35.233,35.233,0,0,1-1.957-7.932c-.143-.89-.28-1.775-.462-2.646L66.774,10.2l5.232-2.124c16.394-6.648,37.986-.934,50.26,13.3,1.367,1.588,3.639,4.229,5.227,4.868a97.444,97.444,0,0,1,32.012,21.489c22.158,22.8,29.794,54.386,23.348,96.577-.148.969-.3,1.888-.457,2.793,18.976-2.518,57.666-.669,82.818,14.482a29.424,29.424,0,0,1,11.939-2.547h6.879a29.794,29.794,0,0,1,29.7,29.794q0,18.071.074,36.162c.069,24.774.143,50.383-.1,75.585,1.687,22.959,6.024,35.233,24.685,35.031,10.179-.167,19.261-6.319,22.6-15.313,4.814-12.938-.57-23.466-7.214-29l-3.831-3.2a5.008,5.008,0,0,1,3.3-8.856l2.3.044c27.69.521,54.548,11.635,73.087,32.209a96.438,96.438,0,0,1,24.66,72.329c-3.452,46.853-41.32,85.3-88.084,89.437C362.228,473.52,359.263,473.648,356.327,473.648Zm-80.276-65.779,12.264,17.152a83.089,83.089,0,0,0,75.7,34.766c40.229-3.555,72.811-36.639,75.781-76.957A83.708,83.708,0,0,0,372.82,294.44a39.762,39.762,0,0,1,.846,30.571c-5.262,14.167-19.35,23.859-35.056,24.12-34.889.507-37.367-33.359-38.419-47.856l-.02-.275,0-.275c.241-25.206.167-50.87.1-75.7q-.052-18.16-.069-36.324a16.175,16.175,0,0,0-16.173-16.139h-6.879a16.1,16.1,0,0,0-8.635,2.557l-3.786,2.41-3.693-2.552c-25.019-17.289-71.282-16.783-82.061-13.469l-.974.3H166.2l1.234-7.819c.393-2.5.772-4.534,1.126-6.442.329-1.77.634-3.422.92-5.276,5.842-38.247-.413-65.293-19.679-85.114A83.164,83.164,0,0,0,122.468,38.8c-4.667-1.864-8.005-5.758-10.454-8.6-7.243-8.4-19.438-12.726-29.735-11.025a12.418,12.418,0,0,0,.595,2.016c3.973,9.736,1.559,17.747-7.386,24.493C64.734,53.78,54.245,62.774,44.1,71.468l-3.865,3.314c-4.849,4.126-9.417,8.02-12.721,12.539-5.153,7.032-3.683,17.924,3.206,23.78,7.2,6.127,18.209,6.083,24.041-.108,6.747-7.16,14.757-8.522,21.818-9.722,1.219-.211,2.454-.418,3.693-.659l7.489-1.47.561,7.612c1.057,14.437-5.739,23.815-12.785,32.189-6.437,7.646-11,15.416-16.276,24.42l-.462.787c-.777,1.323-2.169,4.976-2.759,14.58a7.7,7.7,0,0,0-.02,1.328l.029,1.446.5,2.164-.5.821v119.59l.7,131.662c0,11.133,8.709,20.156,19.4,20.156h1.815c2.3,0,4.563.1,6.756.207,9.623.457,11.6-.044,12.559-2.4V317.857c0-13.577,10.346-24.626,23.067-24.626h1.21c12.721,0,23.067,11.049,23.067,24.626V451.51c1.19,4.1,2.768,4.75,14.216,4.47,1.716-.044,3.5-.084,5.345-.084l5.916.029c6.024.054,12.824.133,14.7-1.716.924-.915,1.062-3.2,1.062-4.48V317.857c0-13.119,11.3-24.626,24.193-24.626h1.21c12.765,0,23.549,11.28,23.549,24.626V451.5c0,2.414.462,3.5.738,3.762,1.308,1.259,7.455,1.013,11.944.831,2.341-.093,4.8-.192,7.322-.192h1.81c10.523,0,19.423-9.294,19.423-20.3ZM48.069,175.908l1.175,6.393Z" transform="translate(-10.908 -5.312)" stroke="#000" stroke-miterlimit="10" stroke-width="4.917"/>
        </g>
        <path id="Path_6" data-name="Path 6" d="M164.272,158.247c9.79,8.158,14.614,22.074,9.23,36.556-4.435,11.934-16.1,19.507-28.835,19.719-26.977.447-30.212-22.915-31.56-41.581.359-37.342.025-74.734.029-112.086A22.927,22.927,0,0,0,90.2,37.949H83.323A22.937,22.937,0,0,0,60.388,60.883V249.867a22.929,22.929,0,0,0,14.59,21.346,90.468,90.468,0,0,0,95.8,67.461c43.681-3.86,78.707-39.462,81.933-83.2A90.4,90.4,0,0,0,164.272,158.247Z" transform="translate(224.269 136.366)" fill="#856ffb"/>
        <g id="Group_4" data-name="Group 4" transform="translate(48.067 20.586)">
          <path id="Path_7" data-name="Path 7" d="M274.685,181.909a37.986,37.986,0,0,0-6.3-10.154c-9.313-10.6-23.328-16.217-36.7-19.605a157.134,157.134,0,0,0-35.67-4.578c-7.937-.148-16.694-.27-24.37,2.095h-2.872c.762-4.834,1.456-7.878,2.051-11.757,4.967-32.533,2.882-65.745-21.518-90.848a90.557,90.557,0,0,0-29.666-19.925c-3.034-1.21-5.611-4.131-7.843-6.727C101.541,8.514,83.022,3.341,69.194,8.956c.654,3.113.861,6.461,2.065,9.4,2.911,7.14,1,11.861-5.2,16.537C54.487,43.614,43.5,53.109,32.486,62.55c-5.581,4.794-11.507,9.545-15.79,15.4-7.533,10.292-5.006,25.019,4.283,32.927,9.628,8.187,24.7,8.546,33.349-.62,6.2-6.584,13.906-6.82,21.892-8.389C77.1,113.828,71.584,121.4,65.01,129.2c-7,8.325-11.92,16.808-17.4,26.141-2.306,3.924-3.27,10.882-3.678,17.589a26.791,26.791,0,0,0,0,3.014V298.7l.713,131.7c0,14.57,11.585,26.878,26.16,26.878h1.8c11.885,0,22.861,3,26.082-7.843V312.475c0-9.318,6.983-17.86,16.306-17.86h1.21c9.318,0,16.306,8.541,16.306,17.86V447.028c3.221,12.485,13.267,10.248,26.323,10.248h1.81c14.57,0,26.627,1.642,26.627-12.928V312.475c0-9.318,8.109-17.86,17.427-17.86h1.215c9.318,0,16.788,8.541,16.788,17.86V446.113c0,14.57,12.2,11.162,26.765,11.162h1.81c14.57,0,26.185-12.485,26.185-27.06V372.963c0-27.109-.339-54.248.079-81.357.3-20.141,1.495-40.253,2.031-60.39C280,214.919,281.294,197.251,274.685,181.909Z" transform="translate(-12.275 -6.686)" fill="#fff"/>
          <path id="Path_8" data-name="Path 8" d="M18.829,41.331h-.192A.724.724,0,0,0,18.829,41.331Z" transform="translate(12.648 129.028)" fill="#fff"/>
        </g>
        <path id="Path_9" data-name="Path 9" d="M62.946,37.6s22.58,9.6,21.966,60.223-2.2,220.543-1.239,217.062" transform="translate(234.289 135.003)" fill="none" stroke="#000" stroke-miterlimit="10" stroke-width="9.835"/>
        <path id="Path_10" data-name="Path 10" d="M25.173,28.69a12.6,12.6,0,1,1,25.192,0,3.624,3.624,0,1,1-7.248,0,5.36,5.36,0,0,0-10.72,0,3.612,3.612,0,1,1-7.224,0" transform="translate(86.319 50.745)"/>
        <path id="Path_11" data-name="Path 11" d="M23.652,32.144c-10.774-4.8-2.8-14.988-6.112-24.09,10.2,4.313,18.445,7.819,26.691,11.31.049.762.1,1.534.148,2.3C36.55,23.686,34.136,36.816,23.652,32.144Z" transform="translate(56.418 19.257)" fill="#f2b21b"/>
        <path id="Path_12" data-name="Path 12" d="M14.47,6.507c15.563,5.207,13.356,2,12.461,22.792C12.435,22.533,12.071,21.825,14.47,6.507Z" transform="translate(40.02 13.197)" fill="#f2b21b"/>
        <path id="Path_13" data-name="Path 13" d="M24.878,7.952l-2.8,10.568L4.629,3.666Z" transform="translate(5.841 2.067)" fill="#f2b21b"/>
        <path id="Path_14" data-name="Path 14" d="M10.51,4.895c15.563,5.207,13.356,2,12.465,22.792C8.474,20.921,8.111,20.217,10.51,4.895Z" transform="translate(24.507 6.882)" fill="#f2b21b"/>
      </g>
    </g>
  </g>
</svg>
