<svg xmlns="http://www.w3.org/2000/svg" width="459.901" height="455.176" viewBox="0 0 459.901 455.176">
  <g id="Artwork_5" data-name="Artwork 5" transform="translate(229.95 227.588)">
    <g id="Group_860" data-name="Group 860" transform="translate(-229.95 -227.588)">
      <path id="Path_6997" data-name="Path 6997" d="M150.44,401.846" transform="translate(-57.269 -152.973)" fill="#fff"/>
      <path id="Path_6998" data-name="Path 6998" d="M108.964,233.08c.5-39.62-.074-68.789,2.109-108.33l5.013-90.783a10.867,10.867,0,0,1,7.777-9.527L212.7,1.761c15.216-4.441,31.181.556,46.241,3.585l37.645,7.571c29.215,5.874,58.139,11.769,87.355,17.645,13.631,2.741,27.864,4.691,41.495,7.432C436.1,40.137,451.7,40.42,456.708,52.025c5.246,12.154,2.555,27.483,2.09,40.382l-2.5,69.45c0,15.378-1.112,30.841-1.667,46.21-.287,7.95-.554,15.9-.86,23.85-.239,6.2-.458,8.6-1.706,20.056-.87,7.985-4.326,5.261-19.425,17.057-7.089,5.538-14.337,11.792-21.441,17.312-4.955,3.1-21.367,15.691-24.764,18.588-5.4,4.6-10.611,12.205-3.631,18.511,5.76,5.2,12.384,8.257,18.005,14.087,6.37,6.606,13.732,12.162,13.083,22.162-.927,14.282-13.026,21.66-22.553,30.479l-28.47,26.355-38.63,35.759a10.866,10.866,0,0,1-10.171,2.528L8.718,373.7c-13.811-3.671-8.376-25.433-2.944-34,4.532-7.144,12.151-13.406,17.915-19.586,16.972-18.194,35.479-35.4,52.451-53.6,2.472-2.65,4.96-4.782,7.432-7.432" transform="translate(0 0)" fill="#fff"/>
      <path id="Path_6999" data-name="Path 6999" d="M700.642,288.216l-23.51,20.328,13.6-200.9,16.734,4.832Z" transform="translate(-257.768 -40.976)" fill="#666"/>
      <path id="Path_7000" data-name="Path 7000" d="M224.853,52.97l94.7-25.328L535.291,82.02,474.629,102.3Z" transform="translate(-85.596 -10.523)" fill="#4d4d4d"/>
      <path id="Path_7001" data-name="Path 7001" d="M453.627,102.327,203.851,53l-9.7,199.727,243.941,54.559Z" transform="translate(-73.909 -20.175)" fill="#ccc"/>
      <path id="Path_7002" data-name="Path 7002" d="M450.034,111.724,213.2,65.709,203.47,251.794,434.82,302.68Z" transform="translate(-77.456 -25.014)"/>
      <path id="Path_7003" data-name="Path 7003" d="M209.812,37.431,304.51,12.1l217.71,39.87L459.588,86.759Z" transform="translate(-79.87 -4.607)" fill="#e6e6e6"/>
      <path id="Path_7004" data-name="Path 7004" d="M660.431,77.424l-13.293,214.19-64.751,51.2,18.448-231.5Z" transform="translate(-221.7 -29.473)" fill="gray"/>
      <g id="Group_761" data-name="Group 761" transform="translate(139.493 63.979)">
        <path id="Path_7005" data-name="Path 7005" d="M425.447,141.35c10.291-6.05-197.29-46.382-187.811-36.492-9.479-9.891-18.01,153.212-7.719,147.57-10.291,5.643,192.486,50.245,183.465,40.354C422.4,302.672,435.738,135.3,425.447,141.35Z" transform="translate(-225.234 -103.304)" fill="#333"/>
      </g>
      <g id="Group_762" data-name="Group 762" transform="translate(150.612 71.337)">
        <path id="Path_7006" data-name="Path 7006" d="M416.91,147.111c8.9-5.69-172.523-39.331-164.149-30.438-8.375-8.894-13.945,140.255-5.041,134.944-8.9,5.311,168.385,42.927,160.4,34.034C416.1,294.545,425.815,141.422,416.91,147.111Z" transform="translate(-243.187 -115.186)" fill="#0062ff"/>
      </g>
      <path id="Path_7007" data-name="Path 7007" d="M437.628,430l-237.06-53.663-4.721,9.443,234.437,54.187Z" transform="translate(-74.554 -143.262)" fill="#e6e6e6"/>
      <path id="Path_7008" data-name="Path 7008" d="M195.2,391.585l-1.049,21.509L427.6,467.652l2.038-21.88Z" transform="translate(-73.909 -149.066)" fill="#ccc"/>
      <path id="Path_7009" data-name="Path 7009" d="M578.895,487.288l-7.519,5.946,1.4-22.558,9.443-11.891Z" transform="translate(-217.508 -174.648)" fill="gray"/>
      <rect id="Rectangle_852" data-name="Rectangle 852" width="55.341" height="10.763" transform="translate(197.365 249.006) rotate(13.139)" fill="#4d4d4d"/>
      <g id="Group_763" data-name="Group 763" transform="translate(232.648 260.789)">
        <rect id="Rectangle_853" data-name="Rectangle 853" width="13.866" height="1.488" transform="translate(0.338 2.813) rotate(13.139)" fill="#00cad7"/>
        <rect id="Rectangle_854" data-name="Rectangle 854" width="13.866" height="1.488" transform="translate(0.676 1.364) rotate(13.139)" fill="#fc0"/>
        <rect id="Rectangle_855" data-name="Rectangle 855" width="13.866" height="1.488" transform="translate(0.995 0) rotate(13.139)" fill="#ef5da8"/>
      </g>
      <rect id="Rectangle_856" data-name="Rectangle 856" width="9.589" height="8.446" transform="translate(336.019 281.662) rotate(13.139)" fill="#4d4d4d"/>
      <circle id="Ellipse_74" data-name="Ellipse 74" cx="4.197" cy="4.197" r="4.197" transform="translate(306.52 293.798)" fill="#fc0"/>
      <circle id="Ellipse_75" data-name="Ellipse 75" cx="4.197" cy="4.197" r="4.197" transform="translate(317.944 296.21)" fill="#f2f2f2"/>
      <path id="Path_7010" data-name="Path 7010" d="M501.027,649.824l87.479-77.443s8.748-14.651-21.87-34.535l-83.1,88.955S475.876,637.266,501.027,649.824Z" transform="translate(-183.651 -204.745)" fill="gray"/>
      <path id="Path_7011" data-name="Path 7011" d="M94.313,427.391,20.346,506.633s-7.728,23.244,1.1,25.357l303.592,77.129s-16.56-7.4,3.312-31.7l51.886-68.676,11.04-12.679Z" transform="translate(-6.554 -162.697)" fill="#ccc"/>
      <g id="Group_764" data-name="Group 764" transform="translate(94.439 296.842)">
        <path id="Path_7012" data-name="Path 7012" d="M161.556,479.3a2.864,2.864,0,0,1,.7.077l5.064,1.246c1.356.333,1.5,1.653.323,2.949l-4.4,4.844a5.734,5.734,0,0,1-3.876,1.82,2.886,2.886,0,0,1-.707-.077l-5.06-1.246c-1.356-.333-1.5-1.652-.323-2.949l4.394-4.844A5.749,5.749,0,0,1,161.556,479.3Z" transform="translate(-152.487 -479.299)" fill="#039"/>
      </g>
      <g id="Group_765" data-name="Group 765" transform="translate(121.273 303.444)">
        <path id="Path_7013" data-name="Path 7013" d="M204.884,489.959a2.878,2.878,0,0,1,.706.076l5.064,1.246c1.352.333,1.5,1.653.323,2.95l-4.4,4.844a5.747,5.747,0,0,1-3.878,1.819,2.871,2.871,0,0,1-.7-.077l-5.064-1.245c-1.356-.333-1.5-1.657-.323-2.95l4.4-4.844A5.733,5.733,0,0,1,204.884,489.959Z" transform="translate(-195.815 -489.959)" fill="#039"/>
      </g>
      <g id="Group_766" data-name="Group 766" transform="translate(107.856 300.143)">
        <path id="Path_7014" data-name="Path 7014" d="M183.221,484.629a2.876,2.876,0,0,1,.707.077l5.061,1.246c1.356.333,1.5,1.652.326,2.949l-4.4,4.844a5.75,5.75,0,0,1-3.879,1.819,2.858,2.858,0,0,1-.7-.076l-5.064-1.246c-1.356-.333-1.5-1.653-.323-2.949l4.4-4.844A5.736,5.736,0,0,1,183.221,484.629Z" transform="translate(-174.152 -484.629)" fill="#039"/>
      </g>
      <g id="Group_769" data-name="Group 769" transform="translate(148.108 310.045)" style="isolation: isolate">
        <g id="Group_767" data-name="Group 767">
          <path id="Path_7015" data-name="Path 7015" d="M248.213,500.618a2.869,2.869,0,0,1,.7.077l5.064,1.245c1.356.333,1.5,1.653.323,2.95l-4.4,4.841a5.737,5.737,0,0,1-3.873,1.821,2.87,2.87,0,0,1-.709-.078l-5.062-1.242c-1.354-.336-1.5-1.656-.32-2.953l4.392-4.841A5.752,5.752,0,0,1,248.213,500.618Z" transform="translate(-239.145 -500.618)" fill="#039"/>
        </g>
        <g id="Group_768" data-name="Group 768" transform="translate(13.418 3.3)">
          <path id="Path_7016" data-name="Path 7016" d="M269.876,505.946a2.842,2.842,0,0,1,.709.077l5.062,1.243c1.354.336,1.5,1.656.323,2.949l-4.393,4.844a5.75,5.75,0,0,1-3.878,1.82,2.861,2.861,0,0,1-.7-.077l-5.064-1.246c-1.356-.333-1.5-1.653-.323-2.949l4.4-4.841A5.733,5.733,0,0,1,269.876,505.946Z" transform="translate(-260.811 -505.946)" fill="#039"/>
        </g>
      </g>
      <g id="Group_770" data-name="Group 770" transform="translate(134.691 306.744)">
        <path id="Path_7017" data-name="Path 7017" d="M226.548,495.288a2.883,2.883,0,0,1,.707.077l5.064,1.246c1.356.333,1.5,1.653.322,2.949l-4.4,4.841a5.745,5.745,0,0,1-3.88,1.822,2.837,2.837,0,0,1-.7-.076L218.6,504.9c-1.35-.336-1.5-1.656-.323-2.949l4.4-4.844A5.734,5.734,0,0,1,226.548,495.288Z" transform="translate(-217.481 -495.288)" fill="#039"/>
      </g>
      <g id="Group_771" data-name="Group 771" transform="translate(174.942 316.643)">
        <path id="Path_7018" data-name="Path 7018" d="M291.544,511.272a2.9,2.9,0,0,1,.7.076l5.064,1.246c1.352.333,1.5,1.656.323,2.95l-4.4,4.844a5.738,5.738,0,0,1-3.876,1.819,2.883,2.883,0,0,1-.707-.077l-5.064-1.245c-1.356-.333-1.5-1.653-.323-2.95l4.4-4.841A5.745,5.745,0,0,1,291.544,511.272Z" transform="translate(-282.473 -511.272)" fill="#039"/>
      </g>
      <g id="Group_772" data-name="Group 772" transform="translate(201.776 323.245)">
        <path id="Path_7019" data-name="Path 7019" d="M334.869,521.931a2.873,2.873,0,0,1,.705.077l5.064,1.245c1.356.333,1.5,1.653.323,2.95l-4.4,4.844a5.732,5.732,0,0,1-3.876,1.819,2.875,2.875,0,0,1-.706-.076l-5.061-1.246c-1.356-.333-1.5-1.653-.326-2.95l4.4-4.844A5.742,5.742,0,0,1,334.869,521.931Z" transform="translate(-325.8 -521.931)" fill="#039"/>
      </g>
      <g id="Group_773" data-name="Group 773" transform="translate(188.36 319.944)">
        <path id="Path_7020" data-name="Path 7020" d="M313.207,516.6a2.833,2.833,0,0,1,.7.076l5.064,1.246c1.356.333,1.5,1.653.323,2.949l-4.4,4.844a5.735,5.735,0,0,1-3.876,1.82,2.886,2.886,0,0,1-.707-.077l-5.064-1.246c-1.351-.333-1.5-1.653-.323-2.949l4.4-4.844A5.744,5.744,0,0,1,313.207,516.6Z" transform="translate(-304.137 -516.602)" fill="#039"/>
      </g>
      <g id="Group_774" data-name="Group 774" transform="translate(100.786 339.801)">
        <path id="Path_7021" data-name="Path 7021" d="M171.8,548.664a2.864,2.864,0,0,1,.7.077l5.064,1.246c1.356.333,1.5,1.653.323,2.949l-4.4,4.844a5.736,5.736,0,0,1-3.876,1.82,2.886,2.886,0,0,1-.707-.077l-5.064-1.246c-1.352-.333-1.5-1.652-.323-2.949l4.4-4.844A5.744,5.744,0,0,1,171.8,548.664Z" transform="translate(-162.735 -548.664)" fill="#039"/>
      </g>
      <g id="Group_775" data-name="Group 775" transform="translate(87.368 336.501)">
        <path id="Path_7022" data-name="Path 7022" d="M150.142,543.335a2.865,2.865,0,0,1,.7.077l5.064,1.245c1.356.333,1.5,1.653.323,2.95l-4.4,4.844a5.736,5.736,0,0,1-3.876,1.819,2.853,2.853,0,0,1-.707-.076l-5.064-1.246c-1.356-.333-1.5-1.653-.323-2.949l4.4-4.845A5.748,5.748,0,0,1,150.142,543.335Z" transform="translate(-141.071 -543.335)" fill="#039"/>
      </g>
      <g id="Group_776" data-name="Group 776" transform="translate(127.621 346.403)">
        <path id="Path_7023" data-name="Path 7023" d="M215.134,559.324a2.877,2.877,0,0,1,.707.076l5.061,1.246c1.356.333,1.5,1.653.326,2.95l-4.4,4.841a5.75,5.75,0,0,1-3.881,1.823,2.857,2.857,0,0,1-.7-.077l-5.064-1.245c-1.356-.333-1.5-1.657-.323-2.95l4.4-4.844A5.735,5.735,0,0,1,215.134,559.324Z" transform="translate(-206.065 -559.324)" fill="#039"/>
      </g>
      <g id="Group_777" data-name="Group 777" transform="translate(114.203 343.102)">
        <path id="Path_7024" data-name="Path 7024" d="M193.47,553.994a2.883,2.883,0,0,1,.707.077l5.06,1.246c1.356.333,1.5,1.652.323,2.949l-4.4,4.844a5.742,5.742,0,0,1-3.878,1.819,2.874,2.874,0,0,1-.7-.076l-5.06-1.246c-1.356-.333-1.5-1.653-.323-2.949l4.394-4.844A5.749,5.749,0,0,1,193.47,553.994Z" transform="translate(-184.399 -553.994)" fill="#039"/>
      </g>
      <g id="Group_778" data-name="Group 778" transform="translate(154.456 353.003)">
        <path id="Path_7025" data-name="Path 7025" d="M258.458,569.981a2.847,2.847,0,0,1,.709.078l5.066,1.242c1.354.336,1.5,1.656.32,2.953l-4.4,4.841a5.736,5.736,0,0,1-3.876,1.82,2.879,2.879,0,0,1-.707-.077l-5.064-1.246c-1.352-.333-1.5-1.652-.323-2.949l4.4-4.841A5.735,5.735,0,0,1,258.458,569.981Z" transform="translate(-249.394 -569.981)" fill="#039"/>
      </g>
      <g id="Group_779" data-name="Group 779" transform="translate(141.038 349.704)">
        <path id="Path_7026" data-name="Path 7026" d="M236.8,564.653a2.878,2.878,0,0,1,.706.077l5.064,1.246c1.352.333,1.5,1.653.323,2.949l-4.4,4.841a5.733,5.733,0,0,1-3.873,1.82,2.864,2.864,0,0,1-.709-.077l-5.067-1.243c-1.354-.336-1.5-1.656-.323-2.949l4.4-4.844A5.734,5.734,0,0,1,236.8,564.653Z" transform="translate(-227.728 -564.653)" fill="#039"/>
      </g>
      <g id="Group_780" data-name="Group 780" transform="translate(77.969 350.19)">
        <path id="Path_7027" data-name="Path 7027" d="M138.338,565.442a4.09,4.09,0,0,1,.819.106l106.938,25.8c1.6.385,1.726,1.678.278,2.89l-6.735,5.62a7.561,7.561,0,0,1-4.7,1.6,4.185,4.185,0,0,1-.819-.106l-106.938-25.8c-1.6-.385-1.727-1.679-.279-2.89l6.735-5.62A7.562,7.562,0,0,1,138.338,565.442Z" transform="translate(-125.894 -565.439)" fill="#039"/>
      </g>
      <g id="Group_783" data-name="Group 783" transform="translate(238.328 347.191)">
        <g id="Group_781" data-name="Group 781">
          <path id="Path_7028" data-name="Path 7028" d="M409.846,564.025c1.2.264,1.5,1.175.669,2.034l-5.628,5.82a4.378,4.378,0,0,1-3.682,1.081L385.952,569.6c-1.2-.264-1.492-1.177-.661-2.037l5.628-5.82a4.36,4.36,0,0,1,3.673-1.078Zm-5.525,7.729,5.628-5.82c.617-.638.4-1.311-.493-1.507L394.2,561.07a3.234,3.234,0,0,0-2.723.8l-5.628,5.82c-.617.638-.4,1.315.489,1.511l15.253,3.357a3.235,3.235,0,0,0,2.727-.8" transform="translate(-384.819 -560.596)" fill="#039"/>
        </g>
        <g id="Group_782" data-name="Group 782" transform="translate(0.683 0.421)">
          <path id="Path_7029" data-name="Path 7029" d="M409.877,564.686c.89.2,1.11.869.493,1.507l-5.628,5.82a3.235,3.235,0,0,1-2.727.8l-15.253-3.357c-.885-.2-1.107-.873-.489-1.511l5.628-5.82a3.233,3.233,0,0,1,2.723-.8Z" transform="translate(-385.922 -561.276)" fill="#039"/>
        </g>
      </g>
      <g id="Group_786" data-name="Group 786" transform="translate(234.257 361.149)">
        <g id="Group_784" data-name="Group 784" transform="translate(0)">
          <path id="Path_7030" data-name="Path 7030" d="M399.509,586.046c1.018.224,1.275,1,.569,1.729l-4.782,4.944a3.72,3.72,0,0,1-3.128.919l-12.959-2.852c-1.018-.224-1.268-1-.562-1.73l4.782-4.944a3.7,3.7,0,0,1,3.121-.916Zm-4.694,6.567,4.782-4.944c.525-.543.338-1.114-.418-1.281l-12.959-2.851a2.749,2.749,0,0,0-2.314.679l-4.782,4.945c-.525.542-.336,1.118.416,1.283l12.959,2.852a2.748,2.748,0,0,0,2.316-.682" transform="translate(-378.245 -583.133)" fill="#039"/>
        </g>
        <g id="Group_785" data-name="Group 785" transform="translate(0.581 0.358)">
          <path id="Path_7031" data-name="Path 7031" d="M399.535,586.608c.756.167.943.738.419,1.281l-4.782,4.944a2.748,2.748,0,0,1-2.316.682L379.9,590.663c-.752-.165-.94-.741-.416-1.283l4.782-4.945a2.749,2.749,0,0,1,2.314-.679Z" transform="translate(-379.183 -583.711)" fill="#039"/>
        </g>
      </g>
      <g id="Group_787" data-name="Group 787" transform="translate(217.567 369.764)">
        <path id="Path_7032" data-name="Path 7032" d="M360.36,597.043a2.863,2.863,0,0,1,.709.078l5.066,1.242c1.354.336,1.5,1.656.321,2.953l-4.4,4.841a5.736,5.736,0,0,1-3.876,1.819,2.874,2.874,0,0,1-.706-.077l-5.064-1.245c-1.352-.333-1.5-1.653-.323-2.95l4.4-4.841A5.736,5.736,0,0,1,360.36,597.043Z" transform="translate(-351.297 -597.043)" fill="#039"/>
      </g>
      <g id="Group_788" data-name="Group 788" transform="translate(229.572 372.896)">
        <path id="Path_7033" data-name="Path 7033" d="M379.744,602.1a2.837,2.837,0,0,1,.709.078l5.066,1.242c1.354.336,1.5,1.656.321,2.953l-4.4,4.841a5.733,5.733,0,0,1-3.876,1.82,2.883,2.883,0,0,1-.707-.077l-5.064-1.246c-1.351-.333-1.5-1.652-.322-2.949l4.4-4.841A5.738,5.738,0,0,1,379.744,602.1Z" transform="translate(-370.681 -602.101)" fill="#039"/>
      </g>
      <g id="Group_791" data-name="Group 791" transform="translate(66.197 332.703)">
        <g id="Group_789" data-name="Group 789">
          <path id="Path_7034" data-name="Path 7034" d="M128.149,540.116c1.018.224,1.275,1,.569,1.728l-4.782,4.944a3.718,3.718,0,0,1-3.128.919l-12.959-2.852c-1.018-.224-1.268-1-.562-1.73l4.782-4.945a3.7,3.7,0,0,1,3.121-.916Zm-4.694,6.566,4.782-4.944c.525-.543.338-1.114-.418-1.28l-12.959-2.852a2.749,2.749,0,0,0-2.314.679l-4.782,4.945c-.524.542-.336,1.118.416,1.283l12.959,2.852a2.748,2.748,0,0,0,2.316-.683" transform="translate(-106.885 -537.203)" fill="#039"/>
        </g>
        <g id="Group_790" data-name="Group 790" transform="translate(0.581 0.358)">
          <path id="Path_7035" data-name="Path 7035" d="M128.175,540.678c.756.166.943.738.418,1.28l-4.782,4.944a2.748,2.748,0,0,1-2.316.683l-12.959-2.852c-.751-.165-.94-.741-.416-1.283l4.782-4.944a2.747,2.747,0,0,1,2.314-.679Z" transform="translate(-107.823 -537.781)" fill="#039"/>
        </g>
      </g>
      <g id="Group_794" data-name="Group 794" transform="translate(85.367 308.539)">
        <g id="Group_792" data-name="Group 792" transform="translate(0 0)">
          <path id="Path_7036" data-name="Path 7036" d="M159.1,501.1c1.018.224,1.275,1,.569,1.728l-4.782,4.945a3.719,3.719,0,0,1-3.128.918L138.8,505.838c-1.018-.224-1.268-1-.562-1.73l4.782-4.945a3.7,3.7,0,0,1,3.121-.916Zm-4.694,6.567,4.782-4.945c.524-.542.338-1.114-.419-1.28l-12.959-2.852a2.745,2.745,0,0,0-2.313.679l-4.782,4.944c-.525.543-.336,1.118.416,1.283l12.959,2.852a2.748,2.748,0,0,0,2.316-.682" transform="translate(-137.839 -498.186)" fill="#039"/>
        </g>
        <g id="Group_793" data-name="Group 793" transform="translate(0.581 0.358)">
          <path id="Path_7037" data-name="Path 7037" d="M159.129,501.661c.756.167.943.738.419,1.28l-4.782,4.945a2.749,2.749,0,0,1-2.316.682l-12.959-2.852c-.752-.165-.94-.741-.416-1.283l4.782-4.944a2.745,2.745,0,0,1,2.313-.679Z" transform="translate(-138.777 -498.764)" fill="#039"/>
        </g>
      </g>
      <g id="Group_797" data-name="Group 797" transform="translate(215.194 326.545)">
        <g id="Group_795" data-name="Group 795">
          <path id="Path_7038" data-name="Path 7038" d="M356.535,527.26a2.88,2.88,0,0,1,.707.077l5.06,1.246c1.356.333,1.5,1.653.323,2.949l-4.394,4.844a5.762,5.762,0,0,1-3.881,1.82,2.867,2.867,0,0,1-.7-.077l-5.061-1.246c-1.356-.333-1.5-1.652-.323-2.949l4.4-4.844A5.733,5.733,0,0,1,356.535,527.26Z" transform="translate(-347.466 -527.26)" fill="#039"/>
        </g>
        <g id="Group_796" data-name="Group 796" transform="translate(13.112 3.288)">
          <path id="Path_7039" data-name="Path 7039" d="M377.706,532.569a2.877,2.877,0,0,1,.707.076l5.061,1.246c1.356.333,1.5,1.653.322,2.95l-4.393,4.844a5.764,5.764,0,0,1-3.881,1.819,2.861,2.861,0,0,1-.7-.077l-5.061-1.245c-1.356-.333-1.5-1.653-.323-2.95l4.4-4.844A5.735,5.735,0,0,1,377.706,532.569Z" transform="translate(-368.637 -532.569)" fill="#039"/>
        </g>
      </g>
      <g id="Group_800" data-name="Group 800" transform="translate(195.643 364.377)">
        <g id="Group_798" data-name="Group 798" transform="translate(0 0)">
          <path id="Path_7040" data-name="Path 7040" d="M340.673,591.74c1.186.261,1.486,1.162.663,2.013l-5.572,5.761a4.333,4.333,0,0,1-3.645,1.07l-15.1-3.323c-1.186-.261-1.477-1.165-.654-2.016l5.571-5.761a4.313,4.313,0,0,1,3.636-1.067Zm-5.469,7.651,5.571-5.761c.611-.632.393-1.3-.487-1.492l-15.1-3.323a3.2,3.2,0,0,0-2.7.792l-5.571,5.761c-.611.632-.392,1.3.484,1.5l15.1,3.323a3.2,3.2,0,0,0,2.7-.795" transform="translate(-315.898 -588.346)" fill="#039"/>
        </g>
        <g id="Group_799" data-name="Group 799" transform="translate(0.677 0.417)">
          <path id="Path_7041" data-name="Path 7041" d="M340.7,592.394c.881.194,1.1.86.487,1.492l-5.571,5.761a3.2,3.2,0,0,1-2.7.795l-15.1-3.323c-.876-.193-1.095-.863-.484-1.5l5.571-5.761a3.2,3.2,0,0,1,2.7-.792Z" transform="translate(-316.99 -589.019)" fill="#039"/>
        </g>
      </g>
      <g id="Group_807" data-name="Group 807" transform="translate(285.857 347.786)">
        <g id="Group_803" data-name="Group 803" transform="translate(11.53)">
          <g id="Group_801" data-name="Group 801">
            <path id="Path_7042" data-name="Path 7042" d="M508.812,565.017c1.387.268,1.764,1.306.837,2.319l-6.28,6.863a5.027,5.027,0,0,1-4.2,1.354l-17.653-3.4c-1.387-.267-1.755-1.309-.827-2.322l6.28-6.863a5.006,5.006,0,0,1,4.189-1.351Zm-6.1,9.056,6.28-6.863c.689-.752.414-1.52-.616-1.718l-17.652-3.4a3.714,3.714,0,0,0-3.105,1l-6.281,6.863c-.689.753-.411,1.525.612,1.722l17.653,3.4a3.715,3.715,0,0,0,3.109-1.006" transform="translate(-480.179 -561.556)" fill="#000f4e"/>
          </g>
          <g id="Group_802" data-name="Group 802" transform="translate(0.782 0.491)">
            <path id="Path_7043" data-name="Path 7043" d="M508.858,565.794c1.03.2,1.3.966.616,1.718l-6.28,6.863a3.715,3.715,0,0,1-3.109,1.006l-17.653-3.4c-1.024-.2-1.3-.97-.612-1.722L488.1,563.4a3.714,3.714,0,0,1,3.105-1Z" transform="translate(-481.441 -562.349)" fill="#000f4e"/>
          </g>
        </g>
        <g id="Group_806" data-name="Group 806" transform="translate(0 13.688)">
          <g id="Group_804" data-name="Group 804">
            <path id="Path_7044" data-name="Path 7044" d="M490.2,587.119c1.387.267,1.764,1.305.837,2.319l-6.281,6.863a5.026,5.026,0,0,1-4.2,1.354l-17.653-3.4c-1.387-.267-1.755-1.309-.827-2.322l6.281-6.863a5,5,0,0,1,4.188-1.351Zm-6.1,9.055,6.281-6.863c.689-.752.414-1.52-.616-1.718l-17.653-3.4a3.712,3.712,0,0,0-3.1,1l-6.281,6.863c-.689.752-.411,1.525.612,1.722l17.653,3.4a3.71,3.71,0,0,0,3.108-1.006" transform="translate(-461.562 -583.657)" fill="#000f4e"/>
          </g>
          <g id="Group_805" data-name="Group 805" transform="translate(0.782 0.491)">
            <path id="Path_7045" data-name="Path 7045" d="M490.242,587.9c1.03.2,1.3.966.616,1.718l-6.281,6.863a3.715,3.715,0,0,1-3.109,1.006l-17.652-3.4c-1.024-.2-1.3-.97-.612-1.722l6.281-6.863a3.711,3.711,0,0,1,3.1-1Z" transform="translate(-462.825 -584.45)" fill="#000f4e"/>
          </g>
        </g>
      </g>
      <g id="Group_814" data-name="Group 814" transform="translate(262.923 375.673)">
        <g id="Group_810" data-name="Group 810" transform="translate(11.53 0)">
          <g id="Group_808" data-name="Group 808">
            <path id="Path_7046" data-name="Path 7046" d="M471.78,610.046c1.387.267,1.764,1.306.837,2.319l-6.281,6.863a5.027,5.027,0,0,1-4.2,1.354l-17.653-3.4c-1.387-.267-1.755-1.309-.827-2.322L449.939,608a5,5,0,0,1,4.188-1.351Zm-6.1,9.056,6.281-6.863c.689-.753.413-1.52-.616-1.718l-17.653-3.4a3.715,3.715,0,0,0-3.105,1l-6.28,6.863c-.689.753-.412,1.525.612,1.722l17.652,3.4a3.715,3.715,0,0,0,3.109-1.006" transform="translate(-443.147 -606.585)" fill="#000f4e"/>
          </g>
          <g id="Group_809" data-name="Group 809" transform="translate(0.782 0.491)">
            <path id="Path_7047" data-name="Path 7047" d="M471.827,610.823c1.029.2,1.3.966.616,1.718l-6.281,6.863a3.715,3.715,0,0,1-3.109,1.006l-17.652-3.4c-1.024-.2-1.3-.97-.612-1.722l6.281-6.863a3.713,3.713,0,0,1,3.1-1Z" transform="translate(-444.41 -607.378)" fill="#000f4e"/>
          </g>
        </g>
        <g id="Group_813" data-name="Group 813" transform="translate(0 13.688)">
          <g id="Group_811" data-name="Group 811">
            <path id="Path_7048" data-name="Path 7048" d="M453.164,632.148c1.387.267,1.764,1.306.837,2.319l-6.28,6.863a5.027,5.027,0,0,1-4.2,1.354l-17.653-3.4c-1.387-.267-1.755-1.309-.827-2.322l6.28-6.863a5,5,0,0,1,4.189-1.351Zm-6.1,9.055,6.28-6.863c.689-.752.414-1.52-.616-1.718l-17.653-3.4a3.712,3.712,0,0,0-3.1,1l-6.281,6.863c-.689.753-.411,1.525.612,1.722l17.653,3.4a3.711,3.711,0,0,0,3.109-1.006" transform="translate(-424.531 -628.686)" fill="#000f4e"/>
          </g>
          <g id="Group_812" data-name="Group 812" transform="translate(0.782 0.491)">
            <path id="Path_7049" data-name="Path 7049" d="M453.21,632.924c1.03.2,1.3.966.616,1.718l-6.28,6.863a3.713,3.713,0,0,1-3.109,1.006l-17.653-3.4c-1.024-.2-1.3-.97-.613-1.722l6.281-6.863a3.713,3.713,0,0,1,3.105-1Z" transform="translate(-425.793 -629.479)" fill="#000f4e"/>
          </g>
        </g>
      </g>
      <g id="Group_817" data-name="Group 817" transform="translate(332.534 330.429)">
        <g id="Group_816" data-name="Group 816">
          <g id="Group_815" data-name="Group 815">
            <path id="Path_7050" data-name="Path 7050" d="M542.805,534.151c1.392.8,1.442,2.08.119,2.849a5.426,5.426,0,0,1-4.916-.061c-1.392-.8-1.442-2.08-.122-2.847A5.424,5.424,0,0,1,542.805,534.151Z" transform="translate(-536.93 -533.531)" fill="#ef5da8"/>
          </g>
        </g>
      </g>
      <g id="Group_820" data-name="Group 820" transform="translate(241.97 333.079)">
        <g id="Group_818" data-name="Group 818" transform="translate(0 0)">
          <path id="Path_7051" data-name="Path 7051" d="M399.769,537.81a2.883,2.883,0,0,1,.707.076l5.061,1.246c1.356.333,1.5,1.653.323,2.95l-4.394,4.844a5.764,5.764,0,0,1-3.881,1.819,2.867,2.867,0,0,1-.7-.077l-5.06-1.245c-1.356-.333-1.5-1.653-.323-2.95l4.4-4.844A5.735,5.735,0,0,1,399.769,537.81Z" transform="translate(-390.7 -537.81)" fill="#039"/>
        </g>
        <g id="Group_819" data-name="Group 819" transform="translate(13.112 3.287)">
          <path id="Path_7052" data-name="Path 7052" d="M420.94,543.118a2.882,2.882,0,0,1,.707.077l5.06,1.245c1.356.333,1.5,1.653.323,2.95l-4.393,4.844a5.761,5.761,0,0,1-3.881,1.819,2.9,2.9,0,0,1-.705-.076l-5.06-1.246c-1.356-.333-1.5-1.653-.323-2.95l4.4-4.844A5.738,5.738,0,0,1,420.94,543.118Z" transform="translate(-411.871 -543.118)" fill="#039"/>
        </g>
      </g>
      <g id="Group_833" data-name="Group 833" transform="translate(104.488 313.404)">
        <g id="Group_829" data-name="Group 829" transform="translate(0 0)">
          <g id="Group_821" data-name="Group 821" transform="translate(13.416 3.3)">
            <path id="Path_7053" data-name="Path 7053" d="M199.444,511.37a2.886,2.886,0,0,1,.707.077l5.064,1.245c1.351.333,1.5,1.653.323,2.95l-4.4,4.844a5.736,5.736,0,0,1-3.876,1.819,2.877,2.877,0,0,1-.707-.076l-5.064-1.246c-1.356-.333-1.5-1.653-.323-2.95l4.4-4.844A5.738,5.738,0,0,1,199.444,511.37Z" transform="translate(-190.375 -511.37)" fill="#039"/>
          </g>
          <g id="Group_822" data-name="Group 822">
            <path id="Path_7054" data-name="Path 7054" d="M177.784,506.041a2.839,2.839,0,0,1,.7.076l5.06,1.246c1.356.333,1.5,1.653.327,2.949l-4.4,4.844a5.74,5.74,0,0,1-3.877,1.82,2.867,2.867,0,0,1-.7-.077l-5.064-1.246c-1.356-.333-1.5-1.653-.323-2.949l4.4-4.844A5.741,5.741,0,0,1,177.784,506.041Z" transform="translate(-168.712 -506.041)" fill="#039"/>
          </g>
          <g id="Group_823" data-name="Group 823" transform="translate(67.086 16.502)">
            <path id="Path_7055" data-name="Path 7055" d="M286.1,532.686a2.866,2.866,0,0,1,.709.078l5.066,1.242c1.35.336,1.5,1.657.321,2.953l-4.4,4.841a5.735,5.735,0,0,1-3.873,1.82,2.866,2.866,0,0,1-.709-.077L278.15,542.3c-1.354-.336-1.5-1.656-.32-2.953l4.4-4.841A5.737,5.737,0,0,1,286.1,532.686Z" transform="translate(-277.033 -532.686)" fill="#039"/>
          </g>
          <g id="Group_824" data-name="Group 824" transform="translate(53.669 13.203)">
            <path id="Path_7056" data-name="Path 7056" d="M264.438,527.359a2.88,2.88,0,0,1,.707.076l5.06,1.246c1.356.333,1.5,1.653.322,2.95l-4.392,4.841a5.753,5.753,0,0,1-3.875,1.821,2.859,2.859,0,0,1-.708-.078l-5.066-1.242c-1.354-.336-1.5-1.657-.323-2.95l4.4-4.844A5.735,5.735,0,0,1,264.438,527.359Z" transform="translate(-255.37 -527.359)" fill="#039"/>
          </g>
          <g id="Group_825" data-name="Group 825" transform="translate(40.251 9.902)">
            <path id="Path_7057" data-name="Path 7057" d="M242.772,522.029a2.864,2.864,0,0,1,.7.077l5.064,1.246c1.356.333,1.5,1.652.323,2.949l-4.4,4.844a5.741,5.741,0,0,1-3.878,1.819,2.871,2.871,0,0,1-.7-.076l-5.06-1.246c-1.356-.333-1.5-1.656-.323-2.949l4.394-4.844A5.749,5.749,0,0,1,242.772,522.029Z" transform="translate(-233.704 -522.029)" fill="#039"/>
          </g>
          <g id="Group_826" data-name="Group 826" transform="translate(26.833 6.601)">
            <path id="Path_7058" data-name="Path 7058" d="M221.107,516.7a2.879,2.879,0,0,1,.707.077l5.064,1.246c1.356.333,1.5,1.653.323,2.949l-4.4,4.844a5.746,5.746,0,0,1-3.878,1.82,2.868,2.868,0,0,1-.7-.077l-5.064-1.246c-1.352-.333-1.5-1.652-.323-2.949l4.4-4.844A5.736,5.736,0,0,1,221.107,516.7Z" transform="translate(-212.039 -516.699)" fill="#039"/>
          </g>
          <g id="Group_827" data-name="Group 827" transform="translate(80.503 19.803)">
            <path id="Path_7059" data-name="Path 7059" d="M307.762,538.016a2.841,2.841,0,0,1,.709.078l5.066,1.242c1.354.336,1.5,1.656.323,2.949l-4.4,4.844a5.736,5.736,0,0,1-3.876,1.82,2.879,2.879,0,0,1-.707-.077l-5.064-1.246c-1.352-.333-1.5-1.652-.323-2.949l4.4-4.841A5.736,5.736,0,0,1,307.762,538.016Z" transform="translate(-298.698 -538.016)" fill="#039"/>
          </g>
          <g id="Group_828" data-name="Group 828" transform="translate(93.897 23.59)">
            <path id="Path_7060" data-name="Path 7060" d="M329.387,544.131a2.869,2.869,0,0,1,.709.077l5.066,1.243c1.354.336,1.5,1.656.323,2.949l-4.4,4.844a5.734,5.734,0,0,1-3.876,1.82,2.883,2.883,0,0,1-.707-.077l-5.064-1.246c-1.351-.333-1.5-1.653-.322-2.949l4.4-4.841A5.738,5.738,0,0,1,329.387,544.131Z" transform="translate(-320.323 -544.131)" fill="#039"/>
          </g>
        </g>
        <g id="Group_832" data-name="Group 832" transform="translate(107.76 26.786)">
          <g id="Group_830" data-name="Group 830">
            <path id="Path_7061" data-name="Path 7061" d="M351.778,549.292a2.883,2.883,0,0,1,.707.077l5.06,1.246c1.356.333,1.5,1.653.323,2.949l-4.394,4.844a5.761,5.761,0,0,1-3.881,1.82,2.867,2.867,0,0,1-.7-.077l-5.06-1.246c-1.356-.333-1.5-1.653-.323-2.949l4.4-4.844A5.734,5.734,0,0,1,351.778,549.292Z" transform="translate(-342.708 -549.292)" fill="#039"/>
          </g>
          <g id="Group_831" data-name="Group 831" transform="translate(13.112 3.287)">
            <path id="Path_7062" data-name="Path 7062" d="M372.949,554.6a2.878,2.878,0,0,1,.706.077l5.061,1.246c1.356.333,1.5,1.653.323,2.949l-4.394,4.844a5.761,5.761,0,0,1-3.881,1.82,2.865,2.865,0,0,1-.7-.077L365,564.213c-1.356-.333-1.5-1.652-.323-2.949l4.4-4.844A5.734,5.734,0,0,1,372.949,554.6Z" transform="translate(-363.879 -554.6)" fill="#039"/>
          </g>
        </g>
      </g>
      <g id="Group_836" data-name="Group 836" transform="translate(169.353 356.819)">
        <g id="Group_834" data-name="Group 834" transform="translate(0 0)">
          <path id="Path_7063" data-name="Path 7063" d="M282.518,576.142a2.875,2.875,0,0,1,.706.077l5.06,1.246c1.356.333,1.5,1.653.323,2.949l-4.394,4.844a5.759,5.759,0,0,1-3.881,1.819,2.842,2.842,0,0,1-.7-.076l-5.06-1.246c-1.356-.333-1.5-1.653-.322-2.949l4.4-4.844A5.734,5.734,0,0,1,282.518,576.142Z" transform="translate(-273.448 -576.142)" fill="#039"/>
        </g>
        <g id="Group_835" data-name="Group 835" transform="translate(13.112 3.287)">
          <path id="Path_7064" data-name="Path 7064" d="M303.688,581.45a2.879,2.879,0,0,1,.707.077l5.061,1.246c1.356.333,1.5,1.653.323,2.949l-4.394,4.844a5.762,5.762,0,0,1-3.881,1.82,2.864,2.864,0,0,1-.7-.077l-5.061-1.246c-1.356-.333-1.5-1.652-.323-2.949l4.4-4.844A5.736,5.736,0,0,1,303.688,581.45Z" transform="translate(-294.619 -581.45)" fill="#039"/>
        </g>
      </g>
      <g id="Group_849" data-name="Group 849" transform="translate(100.073 325.983)">
        <g id="Group_845" data-name="Group 845" transform="translate(0 0)">
          <g id="Group_837" data-name="Group 837" transform="translate(13.416 3.3)">
            <path id="Path_7065" data-name="Path 7065" d="M192.316,531.681a2.877,2.877,0,0,1,.707.077L198.087,533c1.352.333,1.5,1.653.323,2.949l-4.4,4.844a5.736,5.736,0,0,1-3.876,1.82,2.882,2.882,0,0,1-.707-.077l-5.064-1.246c-1.356-.333-1.5-1.653-.323-2.949l4.4-4.844A5.736,5.736,0,0,1,192.316,531.681Z" transform="translate(-183.247 -531.681)" fill="#039"/>
          </g>
          <g id="Group_838" data-name="Group 838">
            <path id="Path_7066" data-name="Path 7066" d="M170.656,526.352a2.9,2.9,0,0,1,.7.076l5.06,1.246c1.356.333,1.5,1.653.327,2.95l-4.4,4.844a5.742,5.742,0,0,1-3.878,1.819,2.867,2.867,0,0,1-.7-.077l-5.064-1.245c-1.356-.333-1.5-1.653-.323-2.95l4.4-4.844A5.745,5.745,0,0,1,170.656,526.352Z" transform="translate(-161.585 -526.352)" fill="#039"/>
          </g>
          <g id="Group_839" data-name="Group 839" transform="translate(67.086 16.503)">
            <path id="Path_7067" data-name="Path 7067" d="M278.97,553a2.875,2.875,0,0,1,.71.077l5.066,1.243c1.349.336,1.5,1.656.32,2.953l-4.4,4.841a5.736,5.736,0,0,1-3.873,1.821,2.869,2.869,0,0,1-.709-.078l-5.066-1.242c-1.354-.336-1.5-1.657-.321-2.953l4.4-4.841A5.735,5.735,0,0,1,278.97,553Z" transform="translate(-269.905 -552.998)" fill="#039"/>
          </g>
          <g id="Group_840" data-name="Group 840" transform="translate(53.669 13.203)">
            <path id="Path_7068" data-name="Path 7068" d="M257.31,547.67a2.882,2.882,0,0,1,.707.077l5.061,1.246c1.356.333,1.5,1.652.323,2.949l-4.392,4.841a5.751,5.751,0,0,1-3.875,1.82,2.83,2.83,0,0,1-.708-.078l-5.066-1.242c-1.354-.336-1.5-1.656-.323-2.949l4.4-4.844A5.733,5.733,0,0,1,257.31,547.67Z" transform="translate(-248.242 -547.67)" fill="#039"/>
          </g>
          <g id="Group_841" data-name="Group 841" transform="translate(40.251 9.902)">
            <path id="Path_7069" data-name="Path 7069" d="M235.644,542.34a2.861,2.861,0,0,1,.7.077l5.064,1.246c1.356.333,1.5,1.653.323,2.949l-4.4,4.845a5.747,5.747,0,0,1-3.878,1.819,2.874,2.874,0,0,1-.7-.077l-5.06-1.246c-1.356-.333-1.5-1.656-.323-2.949l4.394-4.844A5.75,5.75,0,0,1,235.644,542.34Z" transform="translate(-226.576 -542.34)" fill="#039"/>
          </g>
          <g id="Group_842" data-name="Group 842" transform="translate(26.833 6.601)">
            <path id="Path_7070" data-name="Path 7070" d="M213.979,537.011a2.873,2.873,0,0,1,.707.077l5.064,1.245c1.356.333,1.5,1.653.323,2.95l-4.4,4.844a5.745,5.745,0,0,1-3.878,1.819,2.9,2.9,0,0,1-.7-.076l-5.064-1.246c-1.351-.333-1.5-1.653-.323-2.949l4.4-4.845A5.738,5.738,0,0,1,213.979,537.011Z" transform="translate(-204.911 -537.011)" fill="#039"/>
          </g>
          <g id="Group_843" data-name="Group 843" transform="translate(80.503 19.803)">
            <path id="Path_7071" data-name="Path 7071" d="M300.634,558.327a2.87,2.87,0,0,1,.709.078l5.066,1.242c1.354.336,1.5,1.657.323,2.95l-4.4,4.844a5.735,5.735,0,0,1-3.876,1.819,2.848,2.848,0,0,1-.707-.076l-5.064-1.246c-1.352-.333-1.5-1.653-.323-2.949l4.4-4.841A5.736,5.736,0,0,1,300.634,558.327Z" transform="translate(-291.57 -558.327)" fill="#039"/>
          </g>
          <g id="Group_844" data-name="Group 844" transform="translate(93.896 23.59)">
            <path id="Path_7072" data-name="Path 7072" d="M322.259,564.442a2.866,2.866,0,0,1,.709.078l5.066,1.242c1.354.336,1.5,1.656.323,2.95l-4.4,4.844a5.735,5.735,0,0,1-3.876,1.819,2.875,2.875,0,0,1-.706-.077l-5.064-1.245c-1.352-.333-1.5-1.653-.323-2.95l4.4-4.841A5.736,5.736,0,0,1,322.259,564.442Z" transform="translate(-313.196 -564.442)" fill="#039"/>
          </g>
        </g>
        <g id="Group_848" data-name="Group 848" transform="translate(107.76 26.787)">
          <g id="Group_846" data-name="Group 846">
            <path id="Path_7073" data-name="Path 7073" d="M344.65,569.6a2.884,2.884,0,0,1,.707.076l5.06,1.246c1.356.333,1.5,1.653.323,2.95l-4.394,4.844a5.763,5.763,0,0,1-3.881,1.819,2.864,2.864,0,0,1-.7-.077l-5.06-1.246c-1.356-.333-1.5-1.653-.323-2.95l4.4-4.844A5.733,5.733,0,0,1,344.65,569.6Z" transform="translate(-335.581 -569.604)" fill="#039"/>
          </g>
          <g id="Group_847" data-name="Group 847" transform="translate(13.112 3.287)">
            <path id="Path_7074" data-name="Path 7074" d="M365.821,574.912a2.886,2.886,0,0,1,.707.077l5.06,1.245c1.356.333,1.5,1.653.323,2.95l-4.394,4.844a5.76,5.76,0,0,1-3.881,1.819,2.9,2.9,0,0,1-.7-.076l-5.06-1.246c-1.356-.333-1.5-1.653-.323-2.95l4.4-4.844A5.736,5.736,0,0,1,365.821,574.912Z" transform="translate(-356.751 -574.912)" fill="#039"/>
          </g>
        </g>
      </g>
      <g id="Group_852" data-name="Group 852" transform="translate(73.175 319.209)">
        <g id="Group_850" data-name="Group 850" transform="translate(0 0)">
          <path id="Path_7075" data-name="Path 7075" d="M127.222,515.414a2.889,2.889,0,0,1,.707.077l5.06,1.245c1.356.333,1.5,1.653.323,2.95l-4.394,4.844a5.763,5.763,0,0,1-3.881,1.819,2.9,2.9,0,0,1-.7-.076l-5.06-1.246c-1.356-.333-1.5-1.653-.323-2.95l4.4-4.844A5.735,5.735,0,0,1,127.222,515.414Z" transform="translate(-118.153 -515.414)" fill="#039"/>
        </g>
        <g id="Group_851" data-name="Group 851" transform="translate(13.112 3.287)">
          <path id="Path_7076" data-name="Path 7076" d="M148.393,520.722a2.886,2.886,0,0,1,.707.077l5.06,1.245c1.356.333,1.5,1.653.323,2.95l-4.394,4.844a5.76,5.76,0,0,1-3.881,1.819,2.9,2.9,0,0,1-.7-.076l-5.06-1.246c-1.356-.333-1.5-1.653-.323-2.949l4.4-4.845A5.735,5.735,0,0,1,148.393,520.722Z" transform="translate(-139.323 -520.722)" fill="#039"/>
        </g>
      </g>
      <g id="Group_853" data-name="Group 853" transform="translate(73.303 265.088)">
        <path id="Path_7077" data-name="Path 7077" d="M435.747,496.7,138.778,428.027l-3.647,3.907,297.094,68.814Z" transform="translate(-124.744 -428.027)" fill="#ccc"/>
        <path id="Path_7078" data-name="Path 7078" d="M120.279,448.992l297.739,68.963,1.035-1.37.634-.728-297.5-68.908Z" transform="translate(-119.09 -435.23)" fill="#ccc"/>
        <path id="Path_7079" data-name="Path 7079" d="M125.277,443.695l297.435,68.893,1.717-1.972L127.1,441.747Z" transform="translate(-120.993 -433.25)" fill="#ccc"/>
        <path id="Path_7080" data-name="Path 7080" d="M132.04,436.392l-1.906,2.042L427.4,507.288l1.8-2.067Z" transform="translate(-122.841 -431.211)" fill="#ccc"/>
        <path id="Path_7081" data-name="Path 7081" d="M431.495,503.149,134.4,434.335l-1.189,1.274,297.161,68.829Z" transform="translate(-124.013 -430.428)" fill="gray"/>
        <path id="Path_7082" data-name="Path 7082" d="M128.214,440.964l297.334,68.869,1.123-1.289L129.4,439.69Z" transform="translate(-122.111 -432.467)" fill="gray"/>
        <path id="Path_7083" data-name="Path 7083" d="M123.357,446.166l297.5,68.908,1.123-1.289L124.546,444.892Z" transform="translate(-120.262 -434.447)" fill="gray"/>
        <path id="Path_7084" data-name="Path 7084" d="M118.359,451.521l297.932,69.008,1-1.318L119.548,450.247Z" transform="translate(-118.359 -436.486)" fill="gray"/>
      </g>
      <ellipse id="Ellipse_76" data-name="Ellipse 76" cx="3.741" cy="3.58" rx="3.741" ry="3.58" transform="translate(327.928 329.26)" fill="#ef5da8"/>
      <g id="Group_854" data-name="Group 854" transform="translate(95.318 273.847)">
        <path id="Path_7085" data-name="Path 7085" d="M231.893,458.8l-5.981,6.771-72-16.706,6.083-6.557.135-.135Z" transform="translate(-153.907 -442.171)" fill="#4d4d4d"/>
      </g>
      <g id="Group_858" data-name="Group 858" transform="translate(137.122 284.725)">
        <g id="Group_855" data-name="Group 855" transform="translate(0 2.49)">
          <path id="Path_7086" data-name="Path 7086" d="M251.5,470.246l-1.268,1.3-28.831-6.491,1.213-1.241.055-.056Z" transform="translate(-221.405 -463.755)" fill="#00cad7"/>
        </g>
        <g id="Group_856" data-name="Group 856" transform="translate(1.213 1.249)">
          <path id="Path_7087" data-name="Path 7087" d="M253.462,468.242l-1.213,1.241-28.831-6.491-.055.056,1.22-1.249.047-.048Z" transform="translate(-223.363 -461.751)" fill="#fc0"/>
        </g>
        <g id="Group_857" data-name="Group 857" transform="translate(2.433 0)">
          <path id="Path_7088" data-name="Path 7088" d="M255.433,466.225l-1.22,1.249-28.832-6.491-.047.048,1.268-1.3Z" transform="translate(-225.334 -459.734)" fill="#ef5da8"/>
        </g>
      </g>
      <path id="Path_7089" data-name="Path 7089" d="M408.039,285.683,266.646,255.3l7.011-129.708L415.051,152.47Z" transform="translate(-101.506 -47.81)" fill="#039"/>
      <g id="Group_859" data-name="Group 859" transform="translate(165.635 78.23)" style="mix-blend-mode: overlay;isolation: isolate">
        <path id="Path_7090" data-name="Path 7090" d="M270.642,275.541l141.687,23.812.089-1.688L270.733,273.853Z" transform="translate(-268.661 -182.479)" fill="none" stroke="#0062ff" stroke-miterlimit="10" stroke-width="0.619"/>
        <path id="Path_7091" data-name="Path 7091" d="M270.789,272.709l141.684,23.811.1-1.861L270.89,270.849Z" transform="translate(-268.717 -181.336)" fill="none" stroke="#0062ff" stroke-miterlimit="10" stroke-width="0.619"/>
        <path id="Path_7092" data-name="Path 7092" d="M270.489,278.328,412.179,302.14l.092-1.75L270.584,276.578Z" transform="translate(-268.603 -183.517)" fill="none" stroke="#0062ff" stroke-miterlimit="10" stroke-width="0.619"/>
        <path id="Path_7093" data-name="Path 7093" d="M271.088,267.245l141.68,23.811.092-1.75L271.183,265.5Z" transform="translate(-268.831 -179.298)" fill="none" stroke="#0062ff" stroke-miterlimit="10" stroke-width="0.619"/>
        <path id="Path_7094" data-name="Path 7094" d="M270.952,269.886,412.634,293.7l.082-1.566-141.68-23.811Z" transform="translate(-268.779 -180.373)" fill="none" stroke="#0062ff" stroke-miterlimit="10" stroke-width="0.619"/>
        <path id="Path_7095" data-name="Path 7095" d="M269.889,289.443l141.7,23.814.092-1.75-141.7-23.813Z" transform="translate(-268.374 -187.748)" fill="none" stroke="#0062ff" stroke-miterlimit="10" stroke-width="0.619"/>
        <path id="Path_7096" data-name="Path 7096" d="M270.353,280.969l141.691,23.813.082-1.566L270.437,279.4Z" transform="translate(-268.551 -184.592)" fill="none" stroke="#0062ff" stroke-miterlimit="10" stroke-width="0.619"/>
        <path id="Path_7097" data-name="Path 7097" d="M270.041,286.643l141.7,23.813.09-1.708L270.134,284.936Z" transform="translate(-268.433 -186.698)" fill="none" stroke="#0062ff" stroke-miterlimit="10" stroke-width="0.619"/>
        <path id="Path_7098" data-name="Path 7098" d="M492.479,384.1l.013-.247-5.327-.9Z" transform="translate(-351.086 -224.015)" fill="none" stroke="#0062ff" stroke-miterlimit="10" stroke-width="0.619"/>
        <path id="Path_7099" data-name="Path 7099" d="M272.617,238.9l141.655,23.806.1-1.861L272.717,237.04Z" transform="translate(-269.413 -168.466)" fill="none" stroke="#0062ff" stroke-miterlimit="10" stroke-width="0.619"/>
        <path id="Path_7100" data-name="Path 7100" d="M272.306,244.727l141.66,23.807.092-1.75L272.4,242.977Z" transform="translate(-269.295 -170.726)" fill="none" stroke="#0062ff" stroke-miterlimit="10" stroke-width="0.619"/>
        <path id="Path_7101" data-name="Path 7101" d="M272.169,247.368l141.662,23.808.082-1.566L272.254,245.8Z" transform="translate(-269.243 -171.801)" fill="none" stroke="#0062ff" stroke-miterlimit="10" stroke-width="0.619"/>
        <path id="Path_7102" data-name="Path 7102" d="M271.241,264.324l141.677,23.81.1-1.907-141.674-23.81Z" transform="translate(-268.889 -178.126)" fill="none" stroke="#0062ff" stroke-miterlimit="10" stroke-width="0.619"/>
        <path id="Path_7103" data-name="Path 7103" d="M269.752,292.084l141.7,23.814.082-1.566-141.7-23.814Z" transform="translate(-268.322 -188.823)" fill="none" stroke="#0062ff" stroke-miterlimit="10" stroke-width="0.619"/>
        <path id="Path_7104" data-name="Path 7104" d="M272.007,250.191,413.671,274l.1-1.861L272.107,248.331Z" transform="translate(-269.181 -172.764)" fill="none" stroke="#0062ff" stroke-miterlimit="10" stroke-width="0.619"/>
        <path id="Path_7105" data-name="Path 7105" d="M271.57,258.451,413.242,282.26l.082-1.566L271.655,256.885Z" transform="translate(-269.014 -176.02)" fill="none" stroke="#0062ff" stroke-miterlimit="10" stroke-width="0.619"/>
        <path id="Path_7106" data-name="Path 7106" d="M271.408,261.274l141.674,23.81.1-1.861L271.508,259.413Z" transform="translate(-268.953 -176.983)" fill="none" stroke="#0062ff" stroke-miterlimit="10" stroke-width="0.619"/>
        <path id="Path_7107" data-name="Path 7107" d="M271.859,253.023l141.667,23.808.089-1.688L271.951,251.335Z" transform="translate(-269.125 -173.907)" fill="none" stroke="#0062ff" stroke-miterlimit="10" stroke-width="0.619"/>
        <path id="Path_7108" data-name="Path 7108" d="M271.707,255.81l141.67,23.809.092-1.75L271.8,254.06Z" transform="translate(-269.066 -174.945)" fill="none" stroke="#0062ff" stroke-miterlimit="10" stroke-width="0.619"/>
        <path id="Path_7109" data-name="Path 7109" d="M270.19,283.792l141.694,23.813.1-1.861L270.291,281.931Z" transform="translate(-268.489 -185.555)" fill="none" stroke="#0062ff" stroke-miterlimit="10" stroke-width="0.619"/>
        <path id="Path_7110" data-name="Path 7110" d="M268.072,323.043,409.8,346.862l.092-1.75L268.167,321.294Z" transform="translate(-267.683 -200.539)" fill="none" stroke="#0062ff" stroke-miterlimit="10" stroke-width="0.619"/>
        <path id="Path_7111" data-name="Path 7111" d="M267.644,331.128l141.735,23.82.078-1.477-141.733-23.82Z" transform="translate(-267.52 -203.72)" fill="none" stroke="#0062ff" stroke-miterlimit="10" stroke-width="0.619"/>
        <path id="Path_7112" data-name="Path 7112" d="M267.773,328.507l141.733,23.82.1-1.861-141.73-23.819Z" transform="translate(-267.569 -202.577)" fill="none" stroke="#0062ff" stroke-miterlimit="10" stroke-width="0.619"/>
        <path id="Path_7113" data-name="Path 7113" d="M267.936,325.684,409.666,349.5l.082-1.566L268.02,324.119Z" transform="translate(-267.631 -201.614)" fill="none" stroke="#0062ff" stroke-miterlimit="10" stroke-width="0.619"/>
        <path id="Path_7114" data-name="Path 7114" d="M267.492,333.785l141.738,23.82.092-1.75-141.735-23.82Z" transform="translate(-267.462 -204.628)" fill="none" stroke="#0062ff" stroke-miterlimit="10" stroke-width="0.619"/>
        <path id="Path_7115" data-name="Path 7115" d="M267.444,335.411l21.882,4.7,119.8,20.134.082-1.566-141.738-23.82Z" transform="translate(-267.444 -205.704)" fill="none" stroke="#0062ff" stroke-miterlimit="10" stroke-width="0.619"/>
        <path id="Path_7116" data-name="Path 7116" d="M463.983,377.981l5.327.9.092-1.75-43.133-7.249Z" transform="translate(-327.905 -219.034)" fill="none" stroke="#0062ff" stroke-miterlimit="10" stroke-width="0.619"/>
        <path id="Path_7117" data-name="Path 7117" d="M403.909,365.073l43.133,7.249.089-1.688-79.6-13.378Z" transform="translate(-305.544 -214.229)" fill="none" stroke="#0062ff" stroke-miterlimit="10" stroke-width="0.619"/>
        <path id="Path_7118" data-name="Path 7118" d="M342.879,351.959l79.6,13.378.1-1.861-119.8-20.134Z" transform="translate(-280.893 -208.932)" fill="none" stroke="#0062ff" stroke-miterlimit="10" stroke-width="0.619"/>
        <path id="Path_7119" data-name="Path 7119" d="M268.225,320.256l141.726,23.818.089-1.688L268.316,318.568Z" transform="translate(-267.741 -199.501)" fill="none" stroke="#0062ff" stroke-miterlimit="10" stroke-width="0.619"/>
        <path id="Path_7120" data-name="Path 7120" d="M269.29,300.525,411,324.341l.092-1.75L269.384,298.775Z" transform="translate(-268.146 -191.967)" fill="none" stroke="#0062ff" stroke-miterlimit="10" stroke-width="0.619"/>
        <path id="Path_7121" data-name="Path 7121" d="M268.991,305.989,410.7,329.806l.1-1.861L269.091,304.129Z" transform="translate(-268.033 -194.005)" fill="none" stroke="#0062ff" stroke-miterlimit="10" stroke-width="0.619"/>
        <path id="Path_7122" data-name="Path 7122" d="M269.153,303.166l141.711,23.816.082-1.566L269.238,301.6Z" transform="translate(-268.094 -193.042)" fill="none" stroke="#0062ff" stroke-miterlimit="10" stroke-width="0.619"/>
        <path id="Path_7123" data-name="Path 7123" d="M269.442,297.738l141.706,23.815.089-1.688-141.7-23.815Z" transform="translate(-268.204 -190.929)" fill="none" stroke="#0062ff" stroke-miterlimit="10" stroke-width="0.619"/>
        <path id="Path_7124" data-name="Path 7124" d="M268.671,311.961,410.39,335.778l.092-1.75L268.766,310.211Z" transform="translate(-267.911 -196.32)" fill="none" stroke="#0062ff" stroke-miterlimit="10" stroke-width="0.619"/>
        <path id="Path_7125" data-name="Path 7125" d="M268.824,309.039,410.54,332.856l.1-1.907L268.927,307.133Z" transform="translate(-267.969 -195.148)" fill="none" stroke="#0062ff" stroke-miterlimit="10" stroke-width="0.619"/>
        <path id="Path_7126" data-name="Path 7126" d="M268.372,317.425,410.1,341.243l.1-1.861L268.473,315.564Z" transform="translate(-267.797 -198.358)" fill="none" stroke="#0062ff" stroke-miterlimit="10" stroke-width="0.619"/>
        <path id="Path_7127" data-name="Path 7127" d="M268.535,314.6l141.721,23.817.082-1.566L268.619,313.036Z" transform="translate(-267.859 -197.395)" fill="none" stroke="#0062ff" stroke-miterlimit="10" stroke-width="0.619"/>
        <path id="Path_7128" data-name="Path 7128" d="M269.59,294.907l141.7,23.815.1-1.861-141.7-23.814Z" transform="translate(-268.261 -189.786)" fill="none" stroke="#0062ff" stroke-miterlimit="10" stroke-width="0.619"/>
        <path id="Path_7129" data-name="Path 7129" d="M272.458,241.861l141.657,23.807.1-1.817L272.557,240.044Z" transform="translate(-269.353 -169.609)" fill="none" stroke="#0062ff" stroke-miterlimit="10" stroke-width="0.619"/>
        <path id="Path_7130" data-name="Path 7130" d="M276.83,160.957l141.587,23.795.1-1.861L276.931,159.1Z" transform="translate(-271.017 -138.794)" fill="none" stroke="#0062ff" stroke-miterlimit="10" stroke-width="0.619"/>
        <path id="Path_7131" data-name="Path 7131" d="M276.683,163.788l141.589,23.8.089-1.688L276.774,162.1Z" transform="translate(-270.961 -139.938)" fill="none" stroke="#0062ff" stroke-miterlimit="10" stroke-width="0.619"/>
        <path id="Path_7132" data-name="Path 7132" d="M276.53,166.576l141.592,23.8.092-1.75-141.589-23.8Z" transform="translate(-270.903 -140.976)" fill="none" stroke="#0062ff" stroke-miterlimit="10" stroke-width="0.619"/>
        <path id="Path_7133" data-name="Path 7133" d="M276.993,158.134l141.584,23.794.082-1.566L277.077,156.568Z" transform="translate(-271.079 -137.832)" fill="none" stroke="#0062ff" stroke-miterlimit="10" stroke-width="0.619"/>
        <path id="Path_7134" data-name="Path 7134" d="M277.282,152.694l141.579,23.794.09-1.708L277.374,150.986Z" transform="translate(-271.189 -135.707)" fill="none" stroke="#0062ff" stroke-miterlimit="10" stroke-width="0.619"/>
        <path id="Path_7135" data-name="Path 7135" d="M277.129,155.493l141.582,23.794.092-1.75L277.224,153.743Z" transform="translate(-271.131 -136.757)" fill="none" stroke="#0062ff" stroke-miterlimit="10" stroke-width="0.619"/>
        <path id="Path_7136" data-name="Path 7136" d="M276.065,175.09l141.6,23.8.1-1.907-141.6-23.8Z" transform="translate(-270.725 -144.157)" fill="none" stroke="#0062ff" stroke-miterlimit="10" stroke-width="0.619"/>
        <path id="Path_7137" data-name="Path 7137" d="M275.912,178.011l141.6,23.8.092-1.75-141.6-23.8Z" transform="translate(-270.667 -145.329)" fill="none" stroke="#0062ff" stroke-miterlimit="10" stroke-width="0.619"/>
        <path id="Path_7138" data-name="Path 7138" d="M276.393,169.217l141.594,23.8.082-1.566-141.592-23.8Z" transform="translate(-270.851 -142.051)" fill="none" stroke="#0062ff" stroke-miterlimit="10" stroke-width="0.619"/>
        <path id="Path_7139" data-name="Path 7139" d="M276.231,172.04l141.6,23.8.1-1.861-141.594-23.8Z" transform="translate(-270.789 -143.013)" fill="none" stroke="#0062ff" stroke-miterlimit="10" stroke-width="0.619"/>
        <path id="Path_7140" data-name="Path 7140" d="M278.72,126.316l-.072,1.333L339.8,137.925Z" transform="translate(-271.709 -126.316)" fill="none" stroke="#0062ff" stroke-miterlimit="10" stroke-width="0.619"/>
        <path id="Path_7141" data-name="Path 7141" d="M419.984,155.336l-141.56-23.79-.095,1.75,141.563,23.791Z" transform="translate(-271.587 -128.307)" fill="none" stroke="#0062ff" stroke-miterlimit="10" stroke-width="0.619"/>
        <path id="Path_7142" data-name="Path 7142" d="M420.05,154.011l-80.318-15.267-61.147-10.276-.1,1.906,141.56,23.79Z" transform="translate(-271.646 -127.135)" fill="none" stroke="#0062ff" stroke-miterlimit="10" stroke-width="0.619"/>
        <path id="Path_7143" data-name="Path 7143" d="M277.431,149.842l141.577,23.793.1-1.861L277.531,147.982Z" transform="translate(-271.246 -134.563)" fill="none" stroke="#0062ff" stroke-miterlimit="10" stroke-width="0.619"/>
        <path id="Path_7144" data-name="Path 7144" d="M275.775,180.652l141.6,23.8.083-1.566-141.6-23.8Z" transform="translate(-270.615 -146.404)" fill="none" stroke="#0062ff" stroke-miterlimit="10" stroke-width="0.619"/>
        <path id="Path_7145" data-name="Path 7145" d="M278.277,134.371l-.085,1.566,141.565,23.791.082-1.566Z" transform="translate(-271.535 -129.382)" fill="none" stroke="#0062ff" stroke-miterlimit="10" stroke-width="0.619"/>
        <path id="Path_7146" data-name="Path 7146" d="M277.73,144.378,419.3,168.171l.092-1.75-141.57-23.792Z" transform="translate(-271.359 -132.526)" fill="none" stroke="#0062ff" stroke-miterlimit="10" stroke-width="0.619"/>
        <path id="Path_7147" data-name="Path 7147" d="M277.593,147.019l141.574,23.793.082-1.566L277.678,145.454Z" transform="translate(-271.307 -133.601)" fill="none" stroke="#0062ff" stroke-miterlimit="10" stroke-width="0.619"/>
        <path id="Path_7148" data-name="Path 7148" d="M278.03,138.76,419.6,162.551l.1-1.861L278.13,136.9Z" transform="translate(-271.474 -130.345)" fill="none" stroke="#0062ff" stroke-miterlimit="10" stroke-width="0.619"/>
        <path id="Path_7149" data-name="Path 7149" d="M277.883,141.591l141.57,23.792.089-1.688L277.974,139.9Z" transform="translate(-271.418 -131.488)" fill="none" stroke="#0062ff" stroke-miterlimit="10" stroke-width="0.619"/>
        <path id="Path_7150" data-name="Path 7150" d="M274.286,208.131l141.628,23.8.089-1.688-141.626-23.8Z" transform="translate(-270.048 -156.818)" fill="none" stroke="#0062ff" stroke-miterlimit="10" stroke-width="0.619"/>
        <path id="Path_7151" data-name="Path 7151" d="M273.668,219.433l141.638,23.8.1-1.907-141.635-23.8Z" transform="translate(-269.813 -161.037)" fill="none" stroke="#0062ff" stroke-miterlimit="10" stroke-width="0.619"/>
        <path id="Path_7152" data-name="Path 7152" d="M273.515,222.354l141.64,23.8.092-1.75L273.61,220.6Z" transform="translate(-269.755 -162.209)" fill="none" stroke="#0062ff" stroke-miterlimit="10" stroke-width="0.619"/>
        <path id="Path_7153" data-name="Path 7153" d="M273.834,216.383l141.635,23.8.1-1.861-141.633-23.8Z" transform="translate(-269.876 -159.894)" fill="none" stroke="#0062ff" stroke-miterlimit="10" stroke-width="0.619"/>
        <path id="Path_7154" data-name="Path 7154" d="M274,213.56l141.633,23.8.082-1.566-141.63-23.8Z" transform="translate(-269.938 -158.931)" fill="none" stroke="#0062ff" stroke-miterlimit="10" stroke-width="0.619"/>
        <path id="Path_7155" data-name="Path 7155" d="M272.916,233.437l141.65,23.806.092-1.75L273.011,231.687Z" transform="translate(-269.527 -166.428)" fill="none" stroke="#0062ff" stroke-miterlimit="10" stroke-width="0.619"/>
        <path id="Path_7156" data-name="Path 7156" d="M273.378,225l141.643,23.8.082-1.566-141.64-23.8Z" transform="translate(-269.703 -163.284)" fill="none" stroke="#0062ff" stroke-miterlimit="10" stroke-width="0.619"/>
        <path id="Path_7157" data-name="Path 7157" d="M274.133,210.919l141.63,23.8.092-1.75-141.628-23.8Z" transform="translate(-269.99 -157.856)" fill="none" stroke="#0062ff" stroke-miterlimit="10" stroke-width="0.619"/>
        <path id="Path_7158" data-name="Path 7158" d="M273.069,230.65l141.647,23.805.089-1.688-141.645-23.8Z" transform="translate(-269.585 -165.39)" fill="none" stroke="#0062ff" stroke-miterlimit="10" stroke-width="0.619"/>
        <path id="Path_7159" data-name="Path 7159" d="M273.216,227.818l141.645,23.8.1-1.861-141.643-23.8Z" transform="translate(-269.641 -164.247)" fill="none" stroke="#0062ff" stroke-miterlimit="10" stroke-width="0.619"/>
        <path id="Path_7160" data-name="Path 7160" d="M274.433,205.3l141.626,23.8.1-1.861-141.623-23.8Z" transform="translate(-270.104 -155.675)" fill="none" stroke="#0062ff" stroke-miterlimit="10" stroke-width="0.619"/>
        <path id="Path_7161" data-name="Path 7161" d="M275.014,194.558l141.616,23.8.1-1.861L275.114,192.7Z" transform="translate(-270.325 -151.585)" fill="none" stroke="#0062ff" stroke-miterlimit="10" stroke-width="0.619"/>
        <path id="Path_7162" data-name="Path 7162" d="M272.779,236.078l141.652,23.806.082-1.566-141.65-23.806Z" transform="translate(-269.475 -167.503)" fill="none" stroke="#0062ff" stroke-miterlimit="10" stroke-width="0.619"/>
        <path id="Path_7163" data-name="Path 7163" d="M275.313,189.094l141.611,23.8.092-1.75-141.609-23.8Z" transform="translate(-270.439 -149.548)" fill="none" stroke="#0062ff" stroke-miterlimit="10" stroke-width="0.619"/>
        <path id="Path_7164" data-name="Path 7164" d="M275.466,186.307l141.609,23.8.089-1.688-141.606-23.8Z" transform="translate(-270.497 -148.51)" fill="none" stroke="#0062ff" stroke-miterlimit="10" stroke-width="0.619"/>
        <path id="Path_7165" data-name="Path 7165" d="M275.176,191.735l141.614,23.8.082-1.566-141.611-23.8Z" transform="translate(-270.387 -150.623)" fill="none" stroke="#0062ff" stroke-miterlimit="10" stroke-width="0.619"/>
        <path id="Path_7166" data-name="Path 7166" d="M274.6,202.477l141.623,23.8.082-1.566-141.621-23.8Z" transform="translate(-270.166 -154.712)" fill="none" stroke="#0062ff" stroke-miterlimit="10" stroke-width="0.619"/>
        <path id="Path_7167" data-name="Path 7167" d="M275.613,183.475l141.606,23.8.1-1.861-141.6-23.8Z" transform="translate(-270.553 -147.367)" fill="none" stroke="#0062ff" stroke-miterlimit="10" stroke-width="0.619"/>
        <path id="Path_7168" data-name="Path 7168" d="M274.732,199.836l141.621,23.8.092-1.75-141.618-23.8Z" transform="translate(-270.218 -153.637)" fill="none" stroke="#0062ff" stroke-miterlimit="10" stroke-width="0.619"/>
        <path id="Path_7169" data-name="Path 7169" d="M274.885,197.178l141.618,23.8.078-1.477L274.965,195.7Z" transform="translate(-270.276 -152.729)" fill="none" stroke="#0062ff" stroke-miterlimit="10" stroke-width="0.619"/>
      </g>
      <text id="_COMMODORE_64_" data-name="****** COMMODORE 64 *******" transform="translate(181.918 100.051) rotate(9.361)" fill="#99c2ff" font-size="7" font-family="BitcountGridSingle-BoldSquare, Bitcount Grid Single" font-weight="700"><tspan x="0" y="0">****** COMMODORE 64 *******</tspan></text>
      <text id="READY." transform="translate(180.129 115.361) rotate(9.361)" fill="#99c2ff" font-size="7" font-family="BitcountGridSingle-BoldSquare, Bitcount Grid Single" font-weight="700"><tspan x="0" y="0">READY.</tspan></text>
    </g>
  </g>
</svg>
