<?xml version="1.0" encoding="utf-8"?>
<!-- Generator: Adobe Illustrator 26.0.3, SVG Export Plug-In . SVG Version: 6.00 Build 0)  -->
<svg version="1.1" id="Layer_1" xmlns="http://www.w3.org/2000/svg" xmlns:xlink="http://www.w3.org/1999/xlink" x="0px" y="0px"
	 viewBox="0 0 1004 129" style="enable-background:new 0 0 1004 129;" xml:space="preserve">
<style type="text/css">
	.st0{fill:#FFFFFF;}
	.st1{enable-background:new    ;}
	.st2{fill:#856FFB;}
	.st3{fill:#45D8DD;}
	.st4{fill:#FF44A9;}
	.st5{fill:#F2B21B;}
</style>
<path class="st0" d="M20,99c-0.9,0-1.7-0.2-2.4-0.5s-1.2-0.9-1.5-1.7L1.4,58.4c-0.1-0.3-0.2-0.6-0.3-0.9C1,57.2,1,57,1,56.8
	c0-0.8,0.3-1.5,1-2.1s1.5-1.1,2.5-1.5s1.9-0.6,2.8-0.6c0.7,0,1.3,0.1,1.9,0.4c0.6,0.3,0.9,0.7,1.1,1.4l10.5,29.5l8.1-26.2
	c0.3-1,0.8-1.6,1.4-1.8c0.6-0.3,1.3-0.4,2.1-0.4s1.6,0.1,2.2,0.4c0.6,0.3,1.1,0.9,1.4,1.8l7.9,26.4l10.6-29.7
	c0.4-1.2,1.4-1.8,2.9-1.8c0.9,0,1.8,0.2,2.8,0.5s1.8,0.8,2.5,1.5c0.7,0.6,1,1.4,1,2.3c0,0.2,0,0.4-0.1,0.8c-0.1,0.3-0.2,0.6-0.3,0.8
	L48.7,97c-0.3,0.8-0.7,1.3-1.5,1.6c-0.7,0.3-1.5,0.4-2.4,0.4c-1,0-1.9-0.2-2.6-0.5c-0.7-0.3-1.2-0.8-1.5-1.4l-8.4-24.5l-8.2,24.2
	c-0.3,0.8-0.8,1.3-1.6,1.7C21.9,98.8,21,99,20,99z"/>
<path class="st0" d="M75,41.7c-1.6,0-2.9-0.5-4.1-1.6c-1.1-1.1-1.7-2.3-1.7-3.6c0-1.5,0.6-2.7,1.7-3.7c1.1-1,2.5-1.5,4.1-1.5
	s2.9,0.5,4,1.5s1.7,2.2,1.7,3.7c0,1.3-0.6,2.5-1.7,3.6C77.9,41.1,76.5,41.7,75,41.7z M75,98c-1.5,0-2.6-0.3-3.6-1
	c-0.9-0.7-1.4-1.5-1.4-2.3V56.2c0-1,0.5-1.7,1.4-2.3S73.5,53,75,53c1.4,0,2.6,0.3,3.6,0.9c1,0.6,1.5,1.4,1.5,2.3v38.5
	c0,0.8-0.5,1.6-1.5,2.3C77.5,97.7,76.3,98,75,98z"/>
<path class="st0" d="M106.8,98c-5.4,0-9.5-1.2-12.4-3.6s-4.3-6.1-4.3-11.3V35.5c0-1,0.5-1.7,1.6-2.3c1-0.6,2.2-0.9,3.4-0.9
	s2.3,0.3,3.4,0.9c1.1,0.6,1.6,1.4,1.6,2.3V53h11.6c0.9,0,1.6,0.4,2,1.1c0.5,0.8,0.7,1.6,0.7,2.6s-0.2,1.8-0.7,2.6s-1.2,1.1-2,1.1
	h-11.6v22.8c0,2.3,0.5,3.9,1.5,4.8c1,0.9,2.7,1.4,5.2,1.4h3.2c1.5,0,2.5,0.4,3.3,1.3c0.7,0.9,1.1,1.9,1.1,3s-0.4,2.1-1.1,2.9
	c-0.7,0.9-1.8,1.3-3.3,1.3h-3.2V98z"/>
<path class="st0" d="M126.3,98c-1.5,0-2.6-0.3-3.6-1c-0.9-0.7-1.4-1.5-1.4-2.3V29.4c0-1,0.5-1.7,1.4-2.3s2.1-0.9,3.6-0.9
	c1.4,0,2.6,0.3,3.6,0.9c1,0.6,1.5,1.4,1.5,2.3v30.2c1-1.8,2.5-3.5,4.5-5c2.1-1.5,4.6-2.2,7.6-2.2c3,0,5.7,0.8,8.2,2.5s4.5,3.9,6,6.7
	s2.3,6,2.3,9.5v23.6c0,1.1-0.5,1.9-1.6,2.5c-1,0.6-2.2,0.9-3.5,0.9c-1.1,0-2.2-0.3-3.3-0.9c-1.1-0.6-1.6-1.4-1.6-2.5V71.1
	c0-1.6-0.4-3.2-1.3-4.8c-0.9-1.5-2-2.8-3.5-3.7c-1.4-1-3-1.4-4.8-1.4c-1.5,0-3,0.4-4.4,1.2s-2.5,1.9-3.4,3.4s-1.3,3.2-1.3,5.3v23.6
	c0,0.8-0.5,1.6-1.5,2.3C128.9,97.7,127.7,98,126.3,98z"/>
<path class="st0" d="M502.8,98.8c-3.5,0-6.5-1-8.9-3.1c-2.5-2.1-3.7-5.2-3.7-9.5c0-3.6,1-6.4,2.9-8.4s4.5-3.3,7.8-4.1
	s7.2-1.1,11.5-1.1h4.2v-1.7c0-1.6-0.3-3.2-0.9-4.8s-1.6-2.9-2.9-3.9c-1.4-1-3.2-1.6-5.6-1.6c-2.3,0-4.1,0.2-5.4,0.7
	c-1.3,0.4-2.3,0.9-3,1.4c-0.8,0.5-1.5,0.8-2.1,0.8c-1.1,0-2-0.6-2.7-1.7c-0.6-1.1-0.9-2.2-0.9-3.4c0-1.1,0.7-2.2,2.2-3.1
	c1.5-0.9,3.3-1.6,5.6-2.2c2.2-0.5,4.4-0.8,6.6-0.8c4.7,0,8.4,0.9,11.2,2.6c2.8,1.7,4.8,4,6.1,6.8s1.9,5.8,1.9,9v23.8
	c0,0.9-0.5,1.7-1.4,2.3s-2.1,1-3.5,1c-1.3,0-2.3-0.3-3.2-1s-1.3-1.4-1.3-2.3v-3.3c-1.6,1.9-3.6,3.6-6,5.1
	C508.8,98,506.1,98.8,502.8,98.8z M506.4,91.2c1.6,0,3.2-0.5,4.7-1.4c1.6-1,2.9-2.2,3.9-3.6c1-1.5,1.6-2.9,1.6-4.5v-3.5h-2.4
	c-2.4,0-4.7,0.1-6.8,0.4c-2.2,0.3-3.9,0.9-5.2,1.9s-1.9,2.5-1.9,4.5c0,2.2,0.6,3.7,1.8,4.7C503.2,90.7,504.7,91.2,506.4,91.2z"/>
<path class="st0" d="M541.6,98c-1.5,0-2.6-0.3-3.6-1c-0.9-0.7-1.4-1.5-1.4-2.3V56.2c0-1,0.5-1.7,1.4-2.3s2.1-0.9,3.6-0.9
	c1.2,0,2.2,0.3,3.1,0.9c0.9,0.6,1.3,1.4,1.3,2.3v3.4c0.9-1.8,2.5-3.5,4.7-5s4.9-2.2,8-2.2c3,0,5.7,0.8,8.2,2.5s4.5,3.9,6,6.7
	s2.3,6,2.3,9.5v23.6c0,1.1-0.5,1.9-1.6,2.5c-1,0.6-2.2,0.9-3.5,0.9c-1.1,0-2.2-0.3-3.3-0.9c-1.1-0.6-1.6-1.4-1.6-2.5V71.1
	c0-1.6-0.4-3.2-1.3-4.8c-0.9-1.5-2-2.8-3.5-3.7c-1.5-1-3.1-1.4-4.8-1.4c-1.5,0-3,0.4-4.4,1.2s-2.5,1.9-3.4,3.4s-1.3,3.2-1.3,5.3
	v23.6c0,0.8-0.5,1.6-1.5,2.3C544.2,97.7,543,98,541.6,98z"/>
<path class="st0" d="M600.3,98.8c-3,0-5.7-0.9-8.3-2.7c-2.5-1.8-4.6-4.1-6.1-7c-1.6-2.9-2.3-6-2.3-9.3v-8.7c0-3.5,0.8-6.6,2.3-9.5
	c1.6-2.8,3.6-5.1,6.1-6.7c2.5-1.7,5.4-2.5,8.5-2.5c3,0,5.6,0.7,7.7,2.2c2.1,1.5,3.6,3.2,4.7,5V29.4c0-1,0.5-1.7,1.5-2.3
	s2.2-0.9,3.6-0.9c1.4,0,2.5,0.3,3.5,0.9c0.9,0.6,1.4,1.4,1.4,2.3v65.3c0,0.8-0.5,1.6-1.4,2.3s-2.1,1-3.5,1c-1.2,0-2.3-0.3-3.2-1
	s-1.4-1.5-1.4-2.3v-3.3c-1,2-2.6,3.7-5,5.2C606,98,603.3,98.8,600.3,98.8z M603.1,89.9c1.8,0,3.5-0.5,4.9-1.5c1.5-1,2.6-2.1,3.5-3.4
	c0.9-1.2,1.3-2.2,1.3-3V71.1c0-2.1-0.5-3.9-1.4-5.3c-1-1.5-2.2-2.6-3.6-3.4c-1.5-0.8-3-1.2-4.6-1.2c-1.8,0-3.4,0.5-4.9,1.4
	c-1.5,1-2.7,2.2-3.5,3.7c-0.9,1.5-1.3,3.1-1.3,4.8v8.7c0,1.6,0.4,3.3,1.3,4.8c0.9,1.6,2,2.8,3.5,3.8
	C599.8,89.5,601.4,89.9,603.1,89.9z"/>
<g>
	<g class="st1">
		<path class="st2" d="M670.6,98.8c-4.6,0-8.3-0.8-11.3-2.5c-2.9-1.6-5.1-3.9-6.5-6.7s-2.1-6.1-2.1-9.7v-8.6c0-3.5,0.7-6.8,2.1-9.6
			c1.4-2.9,3.5-5.1,6.5-6.8c2.9-1.6,6.6-2.5,11.1-2.5c2.9,0,5.5,0.3,7.6,1c2.2,0.7,3.9,1.6,5.1,2.6c1.2,1,1.9,2.1,1.9,3.3
			c0,0.6-0.2,1.3-0.5,2c-0.3,0.8-0.8,1.5-1.4,2c-0.6,0.5-1.3,0.8-2.1,0.8c-0.6,0-1.3-0.3-2-0.8s-1.7-1-2.9-1.5s-2.8-0.7-4.8-0.7
			c-3.5,0-6.2,0.9-7.9,2.7s-2.6,4.2-2.6,7.4v8.6c0,3.2,0.9,5.6,2.6,7.4c1.7,1.8,4.4,2.7,8,2.7c2.1,0,3.7-0.3,4.9-0.8
			s2.2-1.1,2.9-1.6s1.4-0.8,2.1-0.8c0.9,0,1.7,0.3,2.3,0.8c0.7,0.5,1.2,1.1,1.5,1.9c0.3,0.8,0.5,1.5,0.5,2.1c0,1.1-0.7,2.2-1.9,3.3
			c-1.3,1.1-3.1,2.1-5.3,2.8C676.1,98.4,673.5,98.8,670.6,98.8z"/>
	</g>
</g>
<g>
	<g class="st1">
		<path class="st3" d="M697.6,98c-1.4,0-2.5-0.3-3.5-1c-0.9-0.7-1.4-1.5-1.4-2.3V56.2c0-1,0.5-1.7,1.4-2.3s2.1-0.9,3.5-0.9
			c1.3,0,2.3,0.3,3.2,0.9c0.9,0.6,1.3,1.4,1.3,2.3v4.2c0.7-1.3,1.6-2.6,2.8-3.8s2.5-2.2,4.1-3s3.3-1.2,5.1-1.2h3
			c1,0,1.9,0.4,2.7,1.3c0.8,0.9,1.1,1.9,1.1,3.1c0,1.2-0.4,2.2-1.1,3.1c-0.8,0.9-1.6,1.3-2.7,1.3h-3c-1.9,0-3.7,0.6-5.5,1.7
			c-1.8,1.1-3.2,2.7-4.3,4.8s-1.7,4.5-1.7,7.5v19.5c0,0.8-0.5,1.6-1.5,2.3C700.2,97.7,699,98,697.6,98z"/>
	</g>
</g>
<g>
	<g class="st1">
		<path class="st4" d="M747.1,98.8c-4.3,0-8.1-0.8-11.4-2.4c-3.3-1.6-5.9-3.8-7.8-6.6c-1.9-2.8-2.9-6.1-2.9-9.9v-9
			c0-3.4,0.9-6.4,2.7-9.2s4.2-5,7.2-6.7s6.3-2.5,9.9-2.5c3.4,0,6.6,0.7,9.4,2.2c2.8,1.5,5.1,3.6,6.9,6.2c1.7,2.7,2.6,5.7,2.6,9.1
			c0,2.7-0.4,4.6-1.2,5.7c-0.8,1.1-1.9,1.8-3.2,2.1s-2.7,0.4-4.2,0.4h-20v2.2c0,3.2,1.2,5.7,3.5,7.6c2.3,1.9,5.3,2.8,8.9,2.8
			c2.2,0,4-0.3,5.4-0.9c1.4-0.6,2.6-1.2,3.5-1.8c1-0.6,1.8-0.9,2.7-0.9c0.8,0,1.5,0.3,2.1,0.8s1,1.1,1.3,1.8s0.5,1.3,0.5,1.9
			c0,1-0.7,2-1.9,3.1c-1.3,1.1-3.1,2.1-5.5,2.9C753.1,98.4,750.3,98.8,747.1,98.8z M735,72h15.8c1.4,0,2.3-0.2,2.8-0.6
			c0.5-0.4,0.7-1.1,0.7-2.3c0-1.6-0.4-3.2-1.2-4.6c-0.8-1.4-2-2.5-3.4-3.3c-1.5-0.8-3.1-1.2-4.9-1.2c-1.8,0-3.4,0.4-4.8,1.1
			c-1.5,0.8-2.6,1.8-3.5,3.1s-1.3,2.9-1.3,4.7V72H735z"/>
	</g>
</g>
<g>
	<g class="st1">
		<path class="st5" d="M781.6,98.8c-3.5,0-6.5-1-8.9-3.1c-2.5-2.1-3.7-5.2-3.7-9.5c0-3.6,1-6.4,2.8-8.4c1.9-2,4.5-3.3,7.8-4.1
			s7.2-1.1,11.5-1.1h4.2v-1.7c0-1.6-0.3-3.2-0.9-4.8c-0.6-1.6-1.6-2.9-2.9-3.9c-1.4-1-3.2-1.6-5.6-1.6c-2.3,0-4.1,0.2-5.4,0.7
			c-1.3,0.4-2.3,0.9-3,1.4c-0.8,0.5-1.5,0.8-2.1,0.8c-1.1,0-2-0.6-2.7-1.7c-0.6-1.1-1-2.2-1-3.4c0-1.1,0.7-2.2,2.2-3.1
			c1.5-0.9,3.3-1.6,5.6-2.2c2.2-0.5,4.4-0.8,6.6-0.8c4.7,0,8.4,0.9,11.2,2.6c2.8,1.7,4.8,4,6.1,6.8s1.9,5.8,1.9,9v23.8
			c0,0.9-0.5,1.7-1.4,2.3s-2.1,1-3.5,1c-1.3,0-2.3-0.3-3.2-1s-1.3-1.4-1.3-2.3v-3.3c-1.6,1.9-3.6,3.6-6,5.1
			C787.7,98,784.9,98.8,781.6,98.8z M785.3,91.2c1.6,0,3.1-0.5,4.7-1.4c1.6-1,2.8-2.2,3.9-3.6c1-1.5,1.6-2.9,1.6-4.5v-3.5H793
			c-2.4,0-4.7,0.1-6.8,0.4c-2.2,0.3-3.9,0.9-5.2,1.9s-1.9,2.5-1.9,4.5c0,2.2,0.6,3.7,1.8,4.7C782,90.7,783.5,91.2,785.3,91.2z"/>
	</g>
</g>
<g>
	<g class="st1">
		<path class="st2" d="M831.9,98c-5.4,0-9.5-1.2-12.3-3.6c-2.9-2.4-4.3-6.1-4.3-11.3V35.5c0-1,0.5-1.7,1.6-2.3
			c1-0.6,2.2-0.9,3.4-0.9s2.3,0.3,3.4,0.9c1.1,0.6,1.6,1.4,1.6,2.3V53h11.6c0.9,0,1.6,0.4,2,1.1c0.5,0.8,0.7,1.6,0.7,2.6
			s-0.2,1.8-0.7,2.6s-1.2,1.1-2,1.1h-11.6v22.8c0,2.3,0.5,3.9,1.5,4.8c1,0.9,2.7,1.4,5.2,1.4h3.2c1.5,0,2.5,0.4,3.3,1.3
			c0.7,0.9,1.1,1.9,1.1,3s-0.4,2.1-1.1,2.9c-0.7,0.9-1.8,1.3-3.3,1.3h-3.3V98z"/>
	</g>
</g>
<g>
	<g class="st1">
		<path class="st3" d="M851.4,41.7c-1.6,0-2.9-0.5-4.1-1.6c-1.1-1.1-1.7-2.3-1.7-3.6c0-1.5,0.6-2.7,1.7-3.7c1.1-1,2.5-1.5,4.1-1.5
			s2.9,0.5,4,1.5s1.7,2.2,1.7,3.7c0,1.3-0.6,2.5-1.7,3.6C854.3,41.1,853,41.7,851.4,41.7z M851.4,98c-1.5,0-2.6-0.3-3.6-1
			c-0.9-0.7-1.4-1.5-1.4-2.3V56.2c0-1,0.5-1.7,1.4-2.3s2.1-0.9,3.6-0.9c1.4,0,2.6,0.3,3.6,0.9c1,0.6,1.5,1.4,1.5,2.3v38.5
			c0,0.8-0.5,1.6-1.5,2.3S852.8,98,851.4,98z"/>
	</g>
</g>
<g>
	<g class="st1">
		<path class="st4" d="M883.3,99c-1.1,0-2-0.2-2.9-0.5s-1.4-0.8-1.7-1.5l-16-38.5c-0.1-0.2-0.1-0.4-0.2-0.8
			c-0.1-0.3-0.1-0.6-0.1-0.9c0-0.8,0.4-1.6,1.1-2.2c0.7-0.6,1.6-1.1,2.6-1.5s1.9-0.6,2.8-0.6c0.6,0,1.2,0.1,1.9,0.4
			c0.6,0.3,1,0.7,1.2,1.4l11.4,30l11.2-29.8c0.3-0.6,0.6-1.1,1.1-1.5c0.5-0.3,1.1-0.5,1.9-0.5c0.7,0,1.6,0.2,2.6,0.6
			c1,0.4,2,0.9,2.8,1.6c0.8,0.7,1.2,1.4,1.2,2.1c0,0.3,0,0.6-0.1,0.9c-0.1,0.3-0.2,0.5-0.3,0.8L887.9,97c-0.3,0.6-0.9,1.1-1.8,1.5
			C885.2,98.8,884.3,99,883.3,99z"/>
	</g>
</g>
<g>
	<g class="st1">
		<path class="st5" d="M915.1,41.7c-1.6,0-2.9-0.5-4.1-1.6c-1.1-1.1-1.7-2.3-1.7-3.6c0-1.5,0.6-2.7,1.7-3.7c1.1-1,2.5-1.5,4.1-1.5
			s2.9,0.5,4,1.5s1.7,2.2,1.7,3.7c0,1.3-0.6,2.5-1.7,3.6C918,41.1,916.7,41.7,915.1,41.7z M915.1,98c-1.5,0-2.6-0.3-3.6-1
			c-0.9-0.7-1.4-1.5-1.4-2.3V56.2c0-1,0.5-1.7,1.4-2.3s2.1-0.9,3.6-0.9c1.4,0,2.6,0.3,3.6,0.9c1,0.6,1.5,1.4,1.5,2.3v38.5
			c0,0.8-0.5,1.6-1.5,2.3S916.5,98,915.1,98z"/>
	</g>
</g>
<g>
	<g class="st1">
		<path class="st2" d="M946.9,98c-5.4,0-9.5-1.2-12.4-3.6c-2.8-2.4-4.3-6.1-4.3-11.3V35.5c0-1,0.5-1.7,1.6-2.3
			c1-0.6,2.2-0.9,3.4-0.9c1.2,0,2.3,0.3,3.4,0.9c1.1,0.6,1.6,1.4,1.6,2.3V53h11.6c0.9,0,1.6,0.4,2,1.1c0.5,0.8,0.7,1.6,0.7,2.6
			s-0.2,1.8-0.7,2.6s-1.2,1.1-2,1.1h-11.6v22.8c0,2.3,0.5,3.9,1.5,4.8c1,0.9,2.7,1.4,5.2,1.4h3.2c1.5,0,2.5,0.4,3.3,1.3
			c0.7,0.9,1.1,1.9,1.1,3s-0.4,2.1-1.1,2.9c-0.7,0.9-1.8,1.3-3.3,1.3h-3.2V98z"/>
	</g>
</g>
<g>
	<g class="st1">
		<path class="st3" d="M961.7,119.4c-1.3,0-2.3-0.3-3.2-0.8c-0.9-0.5-1.3-1.7-1.3-3.5c0-1.1,0.2-2.1,0.6-3s1.1-1.3,2.1-1.3
			c1.2,0,2.5-0.3,3.9-0.9c1.4-0.6,2.8-1.6,4.2-2.9c1.4-1.3,2.5-2.9,3.5-4.9s1.7-4.3,2-6.9l-16.1-36.9c-0.3-0.4-0.4-0.9-0.4-1.3
			c0-0.8,0.4-1.6,1.1-2.3s1.6-1.3,2.6-1.8c1-0.4,2-0.7,2.9-0.7c0.6,0,1.2,0.1,1.9,0.4s1,0.7,1.2,1.4l12,30.9L989.1,54
			c0.2-0.6,0.6-1.1,1.1-1.4c0.6-0.3,1.1-0.4,1.7-0.4c0.8,0,1.7,0.2,2.7,0.7c1,0.4,2,1,2.8,1.8c0.8,0.7,1.2,1.6,1.2,2.5
			c0,0.5-0.1,0.9-0.3,1.1l-14.2,37.1c-1,2.7-2.1,5.5-3.1,8.3c-1.1,2.8-2.4,5.4-3.9,7.7c-1.6,2.3-3.5,4.2-6,5.7
			C968.4,118.7,965.3,119.4,961.7,119.4z"/>
	</g>
</g>
<g>
	<g class="st1">
		<path class="st5" d="M208.3,107.9c-3.2,0-6.3-0.6-9.2-1.9c-2.9-1.3-5.2-3-7-5.3c-1.8-2.2-2.7-4.9-2.7-7.8c0-0.6,0-1.6,0.1-2.8
			s0.2-2.6,0.4-4.1c0.2-1.5,0.4-3,0.5-4.4c0.2-1.5,0.3-2.7,0.4-3.8s0.1-1.8,0.1-2.2c0-0.9-0.3-1.6-0.9-1.9c-0.6-0.3-1.2-0.5-2-0.7
			s-1.4-0.5-2-1s-0.9-1.4-0.9-2.8c0-1.3,0.3-2.2,0.9-2.7s1.2-0.8,2-1s1.4-0.4,2-0.7s0.9-0.8,0.9-1.7c0-0.5-0.1-1.4-0.2-2.6
			c-0.2-1.2-0.3-2.6-0.6-4.1c-0.2-1.5-0.4-2.9-0.6-4.3c-0.2-1.4-0.2-2.5-0.2-3.2c0-2.1,0.5-4.1,1.6-6c1-1.9,2.5-3.6,4.3-5.1
			s3.8-2.7,6.1-3.6c2.3-0.9,4.6-1.3,7-1.3c2.1,0,3.5,0.5,4.3,1.4c0.8,1,1.2,2,1.2,3s-0.3,1.9-0.9,2.8c-0.6,0.9-1.4,1.4-2.4,1.4
			c-1.6,0-3.3,0.3-5.1,1c-1.7,0.7-3.2,1.6-4.4,2.9c-1.2,1.3-1.8,2.9-1.8,4.8c0,0.6,0.1,1.6,0.2,2.9c0.2,1.3,0.3,2.7,0.6,4.2
			c0.2,1.5,0.4,2.9,0.6,4.2s0.2,2.2,0.2,2.7c0,1.3-0.4,2.4-1.2,3.4c-0.8,1-1.5,1.6-2.1,1.8c0.6,0.2,1.3,0.8,2.1,1.7
			c0.8,0.9,1.2,2.1,1.2,3.3c0,0.6-0.1,1.7-0.2,3.3c-0.2,1.6-0.3,3.4-0.6,5.3c-0.2,1.9-0.4,3.7-0.6,5.3s-0.2,2.8-0.2,3.4
			c0,1.5,0.4,2.8,1.2,3.7c0.8,1,1.8,1.7,3,2.2s2.4,0.9,3.7,1.1c1.3,0.2,2.4,0.3,3.3,0.3s1.6,0.2,2,0.7s0.8,1,0.9,1.7
			s0.3,1.3,0.3,1.9c0,1.5-0.5,2.5-1.5,3.3C211.4,107.5,210,107.9,208.3,107.9z"/>
	</g>
</g>
<g>
	<g class="st1">
		<path class="st5" d="M440,107.9c-1.7,0-3.1-0.4-4.1-1.1c-1-0.7-1.5-1.8-1.5-3.3c0-0.6,0.1-1.2,0.3-1.9s0.5-1.2,1-1.7
			s1.2-0.7,2-0.7c0.9,0,2-0.1,3.2-0.3c1.3-0.2,2.5-0.6,3.8-1.1c1.2-0.5,2.2-1.3,3-2.2c0.8-1,1.2-2.2,1.2-3.7c0-0.6-0.1-1.8-0.3-3.4
			c-0.2-1.6-0.4-3.4-0.6-5.3c-0.2-1.9-0.4-3.7-0.6-5.3c-0.2-1.6-0.3-2.7-0.3-3.3c0-1.3,0.4-2.4,1.2-3.3c0.8-1,1.6-1.5,2.2-1.7
			c-0.6-0.2-1.4-0.8-2.2-1.8s-1.2-2.1-1.2-3.4c0-0.5,0.1-1.4,0.3-2.7s0.4-2.7,0.6-4.2c0.2-1.5,0.4-2.9,0.6-4.2
			c0.2-1.3,0.3-2.3,0.3-2.9c0-1.9-0.6-3.5-1.8-4.8s-2.6-2.3-4.4-2.9c-1.7-0.7-3.4-1-5.1-1c-1.1,0-1.9-0.5-2.5-1.4s-0.9-1.9-0.9-2.8
			c0-1.1,0.4-2.1,1.2-3c0.8-1,2.2-1.4,4.3-1.4c2.4,0,4.8,0.4,7.1,1.3c2.3,0.9,4.4,2.1,6.1,3.6c1.8,1.5,3.2,3.2,4.3,5.1
			c1.1,1.9,1.6,3.9,1.6,6c0,0.8-0.1,1.8-0.3,3.2s-0.4,2.8-0.6,4.3c-0.2,1.5-0.4,2.8-0.6,4.1s-0.3,2.1-0.3,2.6c0,0.8,0.3,1.4,0.9,1.7
			c0.6,0.3,1.2,0.5,2,0.7s1.4,0.5,2,1s0.9,1.4,0.9,2.7s-0.3,2.2-0.9,2.8c-0.6,0.5-1.2,0.8-2,1s-1.4,0.4-2,0.7s-0.9,0.9-0.9,1.9
			c0,0.4,0.1,1.1,0.2,2.2c0.1,1.1,0.3,2.3,0.5,3.8s0.3,2.9,0.5,4.4c0.1,1.5,0.3,2.8,0.4,4.1c0.1,1.2,0.2,2.2,0.2,2.8
			c0,3-0.9,5.6-2.8,7.8c-1.8,2.2-4.2,4-7,5.3S443.3,107.9,440,107.9z"/>
	</g>
</g>
<g>
	<g class="st1">
		<path class="st0" d="M260.5,98.8c-4.6,0-8.3-0.8-11.3-2.5c-2.9-1.6-5.1-3.9-6.5-6.7s-2.1-6.1-2.1-9.7v-8.6c0-3.5,0.7-6.8,2.1-9.6
			c1.4-2.9,3.5-5.1,6.5-6.8c2.9-1.6,6.6-2.5,11.1-2.5c2.9,0,5.5,0.3,7.6,1c2.2,0.7,3.9,1.6,5.1,2.6s1.9,2.1,1.9,3.3
			c0,0.6-0.2,1.3-0.5,2c-0.3,0.8-0.8,1.5-1.4,2s-1.3,0.8-2.1,0.8c-0.6,0-1.3-0.3-2-0.8s-1.7-1-2.9-1.5c-1.2-0.5-2.8-0.7-4.8-0.7
			c-3.5,0-6.2,0.9-7.9,2.7c-1.7,1.8-2.6,4.2-2.6,7.4v8.6c0,3.2,0.9,5.6,2.6,7.4c1.7,1.8,4.4,2.7,8,2.7c2.1,0,3.7-0.3,4.9-0.8
			c1.2-0.5,2.2-1.1,2.9-1.6c0.7-0.5,1.4-0.8,2.1-0.8c0.9,0,1.7,0.3,2.3,0.8c0.7,0.5,1.2,1.1,1.5,1.9c0.3,0.8,0.5,1.5,0.5,2.1
			c0,1.1-0.7,2.2-1.9,3.3c-1.3,1.1-3.1,2.1-5.3,2.8C266,98.4,263.4,98.8,260.5,98.8z"/>
		<path class="st0" d="M300.4,98.8c-3.4,0-6.6-0.9-9.6-2.7s-5.4-4.1-7.2-7c-1.8-2.9-2.7-6-2.7-9.3v-8.7c0-3.4,0.9-6.5,2.6-9.3
			s4.1-5.1,7.1-6.8s6.3-2.6,9.8-2.6s6.8,0.9,9.8,2.6c3,1.7,5.4,4,7.2,6.7c1.8,2.8,2.7,5.9,2.7,9.4v8.7c0,3.2-0.9,6.3-2.7,9.2
			s-4.2,5.3-7.2,7C307.2,97.9,303.9,98.8,300.4,98.8z M300.5,89.9c1.8,0,3.4-0.5,4.8-1.4c1.5-1,2.6-2.2,3.5-3.8s1.3-3.2,1.3-4.9
			v-8.7c0-1.7-0.4-3.3-1.3-4.8s-2.1-2.7-3.5-3.7c-1.5-1-3.1-1.4-4.9-1.4s-3.4,0.5-4.8,1.4c-1.4,1-2.6,2.2-3.4,3.7
			c-0.9,1.5-1.3,3.1-1.3,4.8v8.7c0,1.7,0.4,3.3,1.3,4.9c0.9,1.6,2,2.8,3.5,3.8C297.1,89.5,298.7,89.9,300.5,89.9z"/>
		<path class="st0" d="M343.8,98.8c-3,0-5.7-0.9-8.3-2.7c-2.5-1.8-4.6-4.1-6.1-7c-1.6-2.9-2.3-6-2.3-9.3v-8.7c0-3.5,0.8-6.6,2.3-9.5
			c1.6-2.8,3.6-5.1,6.1-6.7c2.5-1.7,5.4-2.5,8.5-2.5c3,0,5.6,0.7,7.7,2.2s3.6,3.2,4.7,5V29.4c0-1,0.5-1.7,1.5-2.3s2.2-0.9,3.6-0.9
			s2.5,0.3,3.5,0.9c0.9,0.6,1.4,1.4,1.4,2.3v65.3c0,0.8-0.5,1.6-1.4,2.3s-2.1,1-3.5,1c-1.2,0-2.3-0.3-3.2-1
			c-0.9-0.7-1.4-1.5-1.4-2.3v-3.3c-1,2-2.6,3.7-5,5.2C349.4,98,346.8,98.8,343.8,98.8z M346.6,89.9c1.8,0,3.5-0.5,4.9-1.5
			c1.5-1,2.6-2.1,3.5-3.4c0.9-1.2,1.3-2.2,1.3-3V71.1c0-2.1-0.5-3.9-1.4-5.3c-1-1.5-2.2-2.6-3.6-3.4c-1.5-0.8-3-1.2-4.6-1.2
			c-1.8,0-3.4,0.5-4.9,1.4c-1.5,1-2.7,2.2-3.5,3.7c-0.9,1.5-1.3,3.1-1.3,4.8v8.7c0,1.6,0.4,3.3,1.3,4.8c0.9,1.6,2,2.8,3.5,3.8
			C343.2,89.5,344.9,89.9,346.6,89.9z"/>
		<path class="st0" d="M397.2,98.8c-4.3,0-8.1-0.8-11.4-2.4c-3.3-1.6-5.9-3.8-7.8-6.6s-2.9-6.1-2.9-9.9v-9c0-3.4,0.9-6.4,2.7-9.2
			c1.8-2.8,4.2-5,7.2-6.7s6.3-2.5,9.9-2.5c3.4,0,6.6,0.7,9.4,2.2s5.1,3.6,6.9,6.2c1.7,2.7,2.6,5.7,2.6,9.1c0,2.7-0.4,4.6-1.2,5.7
			c-0.8,1.1-1.9,1.8-3.2,2.1s-2.7,0.4-4.2,0.4h-20v2.2c0,3.2,1.2,5.7,3.5,7.6c2.3,1.9,5.3,2.8,8.9,2.8c2.2,0,4-0.3,5.4-0.9
			c1.4-0.6,2.6-1.2,3.5-1.8c1-0.6,1.8-0.9,2.7-0.9c0.8,0,1.5,0.3,2.1,0.8s1,1.1,1.3,1.8s0.5,1.3,0.5,1.9c0,1-0.7,2-1.9,3.1
			c-1.3,1.1-3.1,2.1-5.5,2.9C403.2,98.4,400.4,98.8,397.2,98.8z M385.1,72h15.8c1.4,0,2.3-0.2,2.8-0.6c0.5-0.4,0.7-1.1,0.7-2.3
			c0-1.6-0.4-3.2-1.2-4.6c-0.8-1.4-2-2.5-3.4-3.3c-1.5-0.8-3.1-1.2-4.9-1.2s-3.4,0.4-4.8,1.1c-1.5,0.8-2.6,1.8-3.5,3.1
			s-1.3,2.9-1.3,4.7V72H385.1z"/>
	</g>
</g>
</svg>
