<?xml version="1.0" encoding="utf-8"?>
<!-- Generator: Adobe Illustrator 27.3.1, SVG Export Plug-In . SVG Version: 6.00 Build 0)  -->
<svg version="1.1" id="Layer_1" xmlns="http://www.w3.org/2000/svg" xmlns:xlink="http://www.w3.org/1999/xlink" x="0px" y="0px"
	 viewBox="0 0 1000 134" style="enable-background:new 0 0 1000 134;" xml:space="preserve">
<style type="text/css">
	.st0{enable-background:new    ;}
	.st1{fill:#F2B21B;}
	.st2{fill:#856FFB;}
	.st3{fill:#45D8DD;}
	.st4{fill:#FF44A9;}
	.st5{fill:#FFFFFF;}
</style>
<g id="_x7D__00000165914740233950112290000016229009082972272013_">
	<g transform="translate(-833 43)">
		<g>
			<g class="st0">
				<path class="st1" d="M1694.3,66.7c-1.8,0-3.3-0.4-4.3-1.2c-1.1-0.8-1.6-1.9-1.6-3.5c0-0.6,0.1-1.3,0.3-2s0.6-1.3,1.1-1.8
					c0.5-0.5,1.2-0.8,2.2-0.8c0.9,0,2.1-0.1,3.4-0.4c1.3-0.2,2.7-0.6,4-1.2c1.3-0.6,2.4-1.4,3.2-2.4c0.8-1,1.3-2.3,1.3-3.9
					c0-0.7-0.1-1.9-0.3-3.6c-0.2-1.7-0.4-3.6-0.6-5.6s-0.4-3.9-0.6-5.6c-0.2-1.7-0.3-2.9-0.3-3.5c0-1.3,0.4-2.5,1.3-3.5
					c0.9-1,1.6-1.6,2.3-1.8c-0.7-0.2-1.4-0.8-2.3-1.9c-0.9-1-1.3-2.2-1.3-3.6c0-0.5,0.1-1.5,0.3-2.8c0.2-1.3,0.4-2.8,0.6-4.4
					s0.4-3.1,0.6-4.5c0.2-1.4,0.3-2.4,0.3-3.1c0-2-0.6-3.7-1.9-5.1c-1.2-1.4-2.8-2.4-4.6-3.1c-1.8-0.7-3.6-1.1-5.4-1.1
					c-1.1,0-2-0.5-2.6-1.5c-0.6-1-0.9-2-0.9-3c0-1.1,0.4-2.2,1.3-3.2c0.8-1,2.4-1.5,4.6-1.5c2.5,0,5,0.5,7.5,1.4
					c2.4,0.9,4.6,2.2,6.5,3.8c1.9,1.6,3.4,3.4,4.5,5.4c1.1,2,1.7,4.2,1.7,6.4c0,0.8-0.1,1.9-0.3,3.4c-0.2,1.5-0.4,3-0.6,4.6
					c-0.2,1.6-0.4,3-0.6,4.3c-0.2,1.3-0.3,2.2-0.3,2.8c0,0.9,0.3,1.5,0.9,1.8c0.6,0.3,1.3,0.5,2.1,0.7c0.8,0.2,1.5,0.5,2.1,1.1
					c0.6,0.5,0.9,1.5,0.9,2.8c0,1.4-0.3,2.4-0.9,2.9c-0.6,0.5-1.3,0.9-2.1,1.1c-0.8,0.2-1.5,0.4-2.1,0.7c-0.6,0.3-0.9,1-0.9,2
					c0,0.4,0.1,1.2,0.2,2.3c0.1,1.1,0.3,2.5,0.5,4c0.2,1.5,0.4,3.1,0.5,4.7c0.1,1.6,0.3,3,0.4,4.3c0.1,1.3,0.2,2.3,0.2,3
					c0,3.2-1,5.9-2.9,8.3c-1.9,2.4-4.4,4.2-7.4,5.6S1697.7,66.7,1694.3,66.7z"/>
			</g>
		</g>
		<g>
			<g class="st0">
				<path class="st1" d="M1488.8,66.7c-3.4,0-6.7-0.7-9.7-2c-3.1-1.3-5.5-3.2-7.4-5.6c-1.9-2.4-2.9-5.1-2.9-8.3c0-0.7,0-1.7,0.2-3
					s0.3-2.7,0.5-4.3c0.2-1.6,0.4-3.1,0.6-4.7c0.2-1.5,0.3-2.9,0.4-4c0.1-1.1,0.2-1.9,0.2-2.3c0-1-0.3-1.7-0.9-2
					c-0.6-0.3-1.3-0.5-2.1-0.7c-0.8-0.2-1.5-0.5-2.1-1.1c-0.6-0.5-0.9-1.5-0.9-2.9c0-1.3,0.3-2.3,0.9-2.8c0.6-0.5,1.3-0.9,2.1-1.1
					c0.8-0.2,1.5-0.4,2.1-0.7c0.6-0.3,0.9-0.9,0.9-1.8c0-0.5-0.1-1.5-0.3-2.8c-0.2-1.3-0.4-2.7-0.6-4.3c-0.2-1.6-0.4-3.1-0.6-4.6
					c-0.2-1.5-0.3-2.6-0.3-3.4c0-2.2,0.6-4.3,1.7-6.4c1.1-2,2.6-3.9,4.5-5.4c1.9-1.6,4.1-2.8,6.5-3.8c2.4-0.9,4.9-1.4,7.4-1.4
					c2.2,0,3.7,0.5,4.6,1.5c0.8,1,1.3,2.1,1.3,3.2c0,1-0.3,2-0.9,3c-0.6,1-1.4,1.5-2.5,1.5c-1.7,0-3.5,0.4-5.4,1.1
					c-1.8,0.7-3.4,1.7-4.6,3.1c-1.2,1.4-1.9,3.1-1.9,5.1c0,0.7,0.1,1.7,0.3,3.1c0.2,1.4,0.4,2.9,0.6,4.5c0.2,1.6,0.4,3.1,0.6,4.4
					c0.2,1.3,0.3,2.3,0.3,2.8c0,1.3-0.4,2.5-1.3,3.6c-0.9,1-1.6,1.7-2.2,1.9c0.7,0.2,1.4,0.8,2.3,1.8c0.8,1,1.3,2.2,1.3,3.5
					c0,0.6-0.1,1.8-0.3,3.5c-0.2,1.7-0.4,3.6-0.6,5.6c-0.2,2-0.4,3.9-0.6,5.6c-0.2,1.7-0.3,3-0.3,3.6c0,1.6,0.4,2.9,1.3,3.9
					c0.8,1,1.9,1.8,3.2,2.4c1.3,0.6,2.6,1,3.9,1.2c1.3,0.2,2.5,0.4,3.5,0.4c0.9,0,1.6,0.3,2.1,0.8c0.5,0.5,0.8,1.1,1,1.8
					c0.2,0.7,0.3,1.4,0.3,2c0,1.5-0.5,2.7-1.6,3.5C1492.1,66.3,1490.7,66.7,1488.8,66.7z"/>
			</g>
		</g>
		<g>
			<g class="st0">
				<path class="st2" d="M951.9,54.8c-4.5,0-8.3-0.8-11.2-2.5s-5.1-3.9-6.5-6.7c-1.4-2.8-2.1-6.1-2.1-9.7v-8.5
					c0-3.5,0.7-6.7,2.1-9.6c1.4-2.9,3.5-5.1,6.4-6.8c2.9-1.6,6.6-2.5,11.1-2.5c2.9,0,5.4,0.3,7.6,1c2.2,0.7,3.9,1.6,5.1,2.6
					s1.8,2.1,1.8,3.3c0,0.6-0.2,1.2-0.5,2c-0.3,0.8-0.8,1.5-1.4,2c-0.6,0.5-1.3,0.8-2.1,0.8c-0.6,0-1.3-0.3-2-0.8
					c-0.7-0.5-1.7-1-2.9-1.5c-1.2-0.5-2.8-0.7-4.8-0.7c-3.5,0-6.2,0.9-7.9,2.6c-1.7,1.8-2.6,4.2-2.6,7.4v8.5c0,3.2,0.9,5.6,2.6,7.4
					c1.7,1.8,4.4,2.7,7.9,2.7c2.1,0,3.7-0.3,4.9-0.8c1.2-0.5,2.2-1.1,2.9-1.6c0.7-0.5,1.4-0.8,2.1-0.8c0.9,0,1.7,0.3,2.3,0.8
					c0.7,0.5,1.2,1.1,1.5,1.9c0.3,0.8,0.5,1.5,0.5,2.1c0,1.1-0.6,2.2-1.9,3.3c-1.3,1.1-3.1,2.1-5.3,2.8
					C957.4,54.4,954.8,54.8,951.9,54.8z"/>
			</g>
		</g>
		<g>
			<g class="st0">
				<path class="st3" d="M978.8,54c-1.4,0-2.5-0.3-3.5-1c-0.9-0.7-1.4-1.5-1.4-2.3V12.4c0-0.9,0.5-1.7,1.4-2.3
					c0.9-0.6,2.1-0.9,3.5-0.9c1.3,0,2.3,0.3,3.2,0.9c0.9,0.6,1.3,1.4,1.3,2.3v4.2c0.7-1.3,1.6-2.6,2.8-3.8c1.2-1.2,2.5-2.2,4.1-3
					c1.6-0.8,3.3-1.2,5.1-1.2h3c1,0,1.9,0.4,2.6,1.3c0.8,0.9,1.1,1.9,1.1,3.1c0,1.2-0.4,2.2-1.1,3.1c-0.8,0.9-1.6,1.3-2.6,1.3h-3
					c-1.9,0-3.7,0.6-5.5,1.7c-1.8,1.1-3.2,2.7-4.3,4.8c-1.1,2.1-1.7,4.5-1.7,7.4v19.4c0,0.8-0.5,1.6-1.5,2.3
					C981.4,53.7,980.2,54,978.8,54z"/>
			</g>
		</g>
		<g>
			<g class="st0">
				<path class="st4" d="M1028.1,54.8c-4.3,0-8.1-0.8-11.4-2.4c-3.3-1.6-5.9-3.8-7.8-6.6c-1.9-2.8-2.8-6.1-2.8-9.9v-9
					c0-3.3,0.9-6.4,2.7-9.2c1.8-2.8,4.2-5,7.1-6.7c3-1.7,6.2-2.5,9.8-2.5c3.4,0,6.5,0.7,9.4,2.2c2.8,1.5,5.1,3.5,6.9,6.2
					c1.7,2.6,2.6,5.7,2.6,9.1c0,2.6-0.4,4.5-1.2,5.7c-0.8,1.1-1.9,1.8-3.2,2.1c-1.3,0.3-2.7,0.4-4.2,0.4h-20v2.2
					c0,3.2,1.2,5.7,3.5,7.5c2.3,1.9,5.3,2.8,8.8,2.8c2.2,0,4-0.3,5.4-0.9c1.4-0.6,2.6-1.2,3.5-1.8c0.9-0.6,1.8-0.9,2.6-0.9
					c0.8,0,1.5,0.3,2.1,0.8c0.6,0.5,1,1.1,1.3,1.8c0.3,0.7,0.5,1.3,0.5,1.9c0,0.9-0.6,2-1.9,3.1c-1.3,1.1-3.1,2.1-5.4,2.9
					C1034.1,54.4,1031.3,54.8,1028.1,54.8z M1016.1,28.1h15.7c1.4,0,2.3-0.2,2.8-0.6s0.7-1.1,0.7-2.3c0-1.6-0.4-3.2-1.2-4.6
					c-0.8-1.4-2-2.5-3.4-3.3c-1.5-0.8-3.1-1.2-4.9-1.2c-1.8,0-3.4,0.4-4.8,1.1c-1.5,0.8-2.6,1.8-3.5,3.1c-0.9,1.3-1.3,2.9-1.3,4.6
					V28.1z"/>
			</g>
		</g>
		<g>
			<g class="st0">
				<path class="st1" d="M1062.5,54.8c-3.5,0-6.4-1-8.9-3.1c-2.5-2-3.7-5.2-3.7-9.4c0-3.6,0.9-6.4,2.8-8.3c1.9-2,4.5-3.3,7.8-4.1
					c3.3-0.8,7.1-1.1,11.5-1.1h4.2V27c0-1.6-0.3-3.2-0.9-4.8c-0.6-1.5-1.6-2.8-2.9-3.9c-1.4-1-3.2-1.6-5.5-1.6
					c-2.3,0-4.1,0.2-5.4,0.7c-1.3,0.4-2.3,0.9-3,1.4c-0.8,0.5-1.5,0.8-2.1,0.8c-1.1,0-2-0.6-2.6-1.7c-0.6-1.1-0.9-2.2-0.9-3.4
					c0-1.1,0.7-2.2,2.2-3.1c1.5-0.9,3.3-1.6,5.5-2.2c2.2-0.5,4.4-0.8,6.5-0.8c4.7,0,8.4,0.9,11.2,2.6c2.8,1.7,4.8,4,6.1,6.8
					c1.3,2.8,1.9,5.8,1.9,9v23.8c0,0.9-0.5,1.7-1.4,2.3c-0.9,0.7-2.1,1-3.5,1c-1.3,0-2.3-0.3-3.2-1c-0.9-0.7-1.3-1.4-1.3-2.3v-3.3
					c-1.6,1.9-3.6,3.6-6,5.1C1068.5,54,1065.7,54.8,1062.5,54.8z M1066.1,47.2c1.6,0,3.1-0.5,4.7-1.4c1.5-0.9,2.8-2.1,3.9-3.6
					c1-1.5,1.6-2.9,1.6-4.4v-3.5h-2.4c-2.4,0-4.7,0.1-6.8,0.4c-2.1,0.3-3.9,0.9-5.2,1.9c-1.3,1-1.9,2.5-1.9,4.5
					c0,2.1,0.6,3.7,1.8,4.7C1062.9,46.7,1064.3,47.2,1066.1,47.2z"/>
			</g>
		</g>
		<g>
			<g class="st0">
				<path class="st2" d="M1112.6,54c-5.4,0-9.5-1.2-12.3-3.5c-2.8-2.4-4.3-6.1-4.3-11.2V-8.2c0-0.9,0.5-1.7,1.6-2.3
					c1-0.6,2.2-0.9,3.4-0.9c1.2,0,2.3,0.3,3.4,0.9c1.1,0.6,1.6,1.4,1.6,2.3V9.1h11.5c0.9,0,1.6,0.4,2,1.1c0.5,0.8,0.7,1.6,0.7,2.6
					s-0.2,1.8-0.7,2.6s-1.2,1.1-2,1.1H1106v22.7c0,2.3,0.5,3.9,1.5,4.8c1,0.9,2.7,1.4,5.2,1.4h3.2c1.5,0,2.5,0.4,3.3,1.3
					c0.7,0.9,1.1,1.8,1.1,3c0,1.1-0.4,2.1-1.1,2.9c-0.7,0.9-1.8,1.3-3.3,1.3H1112.6z"/>
			</g>
		</g>
		<g>
			<g class="st0">
				<path class="st3" d="M1132-2.1c-1.6,0-2.9-0.5-4.1-1.6c-1.1-1.1-1.7-2.3-1.7-3.6c0-1.5,0.6-2.7,1.7-3.7c1.1-1,2.5-1.5,4.1-1.5
					c1.6,0,2.9,0.5,4,1.5c1.1,1,1.7,2.2,1.7,3.7c0,1.3-0.6,2.5-1.7,3.6C1134.9-2.7,1133.6-2.1,1132-2.1z M1132,54
					c-1.5,0-2.6-0.3-3.5-1c-0.9-0.7-1.4-1.5-1.4-2.3V12.4c0-0.9,0.5-1.7,1.4-2.3c0.9-0.6,2.1-0.9,3.5-0.9c1.4,0,2.6,0.3,3.5,0.9
					c1,0.6,1.5,1.4,1.5,2.3v38.3c0,0.8-0.5,1.6-1.5,2.3C1134.6,53.7,1133.4,54,1132,54z"/>
			</g>
		</g>
		<g>
			<g class="st0">
				<path class="st4" d="M1163.8,54.9c-1.1,0-2-0.2-2.9-0.5c-0.9-0.3-1.4-0.8-1.7-1.5l-15.9-38.3c-0.1-0.2-0.1-0.4-0.2-0.8
					c-0.1-0.3-0.1-0.6-0.1-0.9c0-0.8,0.4-1.5,1.1-2.2c0.7-0.6,1.6-1.1,2.6-1.5c1-0.4,1.9-0.6,2.8-0.6c0.6,0,1.2,0.1,1.8,0.4
					c0.6,0.3,1,0.7,1.2,1.4l11.4,29.9l11.2-29.7c0.3-0.6,0.6-1.1,1.1-1.5c0.5-0.3,1.1-0.5,1.9-0.5c0.7,0,1.6,0.2,2.6,0.6
					c1,0.4,2,0.9,2.7,1.6c0.8,0.7,1.2,1.4,1.2,2.1c0,0.3,0,0.6-0.1,0.9c-0.1,0.3-0.2,0.5-0.3,0.8L1168.3,53
					c-0.3,0.6-0.9,1.1-1.8,1.5C1165.7,54.8,1164.8,54.9,1163.8,54.9z"/>
			</g>
		</g>
		<g>
			<g class="st0">
				<path class="st1" d="M1195.5-2.1c-1.6,0-2.9-0.5-4.1-1.6c-1.1-1.1-1.7-2.3-1.7-3.6c0-1.5,0.6-2.7,1.7-3.7c1.1-1,2.5-1.5,4.1-1.5
					c1.6,0,2.9,0.5,4,1.5c1.1,1,1.7,2.2,1.7,3.7c0,1.3-0.6,2.5-1.7,3.6C1198.4-2.7,1197.1-2.1,1195.5-2.1z M1195.5,54
					c-1.5,0-2.6-0.3-3.5-1c-0.9-0.7-1.4-1.5-1.4-2.3V12.4c0-0.9,0.5-1.7,1.4-2.3c0.9-0.6,2.1-0.9,3.5-0.9c1.4,0,2.6,0.3,3.5,0.9
					c1,0.6,1.5,1.4,1.5,2.3v38.3c0,0.8-0.5,1.6-1.5,2.3C1198.1,53.7,1196.9,54,1195.5,54z"/>
			</g>
		</g>
		<g>
			<g class="st0">
				<path class="st2" d="M1227.2,54c-5.4,0-9.5-1.2-12.3-3.5c-2.8-2.4-4.3-6.1-4.3-11.2V-8.2c0-0.9,0.5-1.7,1.6-2.3
					c1-0.6,2.2-0.9,3.4-0.9c1.2,0,2.3,0.3,3.4,0.9c1.1,0.6,1.6,1.4,1.6,2.3V9.1h11.5c0.9,0,1.6,0.4,2,1.1c0.5,0.8,0.7,1.6,0.7,2.6
					s-0.2,1.8-0.7,2.6s-1.2,1.1-2,1.1h-11.5v22.7c0,2.3,0.5,3.9,1.5,4.8c1,0.9,2.7,1.4,5.2,1.4h3.2c1.5,0,2.5,0.4,3.3,1.3
					c0.7,0.9,1.1,1.8,1.1,3c0,1.1-0.4,2.1-1.1,2.9c-0.7,0.9-1.8,1.3-3.3,1.3H1227.2z"/>
			</g>
		</g>
		<g>
			<g class="st0">
				<path class="st3" d="M1241.9,75.3c-1.3,0-2.3-0.3-3.2-0.8c-0.9-0.5-1.3-1.7-1.3-3.5c0-1.1,0.2-2.1,0.6-3
					c0.4-0.9,1.1-1.3,2.1-1.3c1.2,0,2.5-0.3,3.9-0.9c1.4-0.6,2.8-1.5,4.2-2.8c1.4-1.3,2.5-2.9,3.5-4.9c1-2,1.7-4.3,2-6.9l-16-36.7
					c-0.3-0.4-0.4-0.9-0.4-1.3c0-0.8,0.4-1.6,1.1-2.3c0.7-0.7,1.6-1.3,2.6-1.8c1-0.4,2-0.7,2.8-0.7c0.6,0,1.2,0.1,1.8,0.4
					c0.6,0.3,1,0.7,1.2,1.4l11.9,30.8l10.3-30.8c0.2-0.6,0.6-1.1,1.1-1.4c0.6-0.3,1.1-0.4,1.7-0.4c0.8,0,1.7,0.2,2.7,0.7
					c1,0.4,2,1,2.7,1.8c0.8,0.7,1.2,1.6,1.2,2.5c0,0.5-0.1,0.9-0.3,1.1l-14.2,37c-1,2.7-2.1,5.5-3.1,8.3c-1.1,2.8-2.4,5.4-3.9,7.7
					c-1.5,2.3-3.5,4.2-6,5.6C1248.6,74.6,1245.5,75.3,1241.9,75.3z"/>
			</g>
		</g>
		<g>
			<g class="st0">
				<path class="st5" d="M1313.3,54.8c-3.5,0-6.4-1-8.9-3.1c-2.5-2-3.7-5.2-3.7-9.4c0-3.6,0.9-6.4,2.8-8.3c1.9-2,4.5-3.3,7.8-4.1
					c3.3-0.8,7.1-1.1,11.5-1.1h4.2V27c0-1.6-0.3-3.2-0.9-4.8c-0.6-1.5-1.6-2.8-2.9-3.9c-1.4-1-3.2-1.6-5.5-1.6
					c-2.3,0-4.1,0.2-5.4,0.7c-1.3,0.4-2.3,0.9-3,1.4c-0.8,0.5-1.5,0.8-2.1,0.8c-1.1,0-2-0.6-2.6-1.7c-0.6-1.1-0.9-2.2-0.9-3.4
					c0-1.1,0.7-2.2,2.2-3.1c1.5-0.9,3.3-1.6,5.5-2.2c2.2-0.5,4.4-0.8,6.5-0.8c4.7,0,8.4,0.9,11.2,2.6c2.8,1.7,4.8,4,6.1,6.8
					c1.3,2.8,1.9,5.8,1.9,9v23.8c0,0.9-0.5,1.7-1.4,2.3c-0.9,0.7-2.1,1-3.5,1c-1.3,0-2.3-0.3-3.2-1c-0.9-0.7-1.3-1.4-1.3-2.3v-3.3
					c-1.6,1.9-3.6,3.6-6,5.1C1319.3,54,1316.5,54.8,1313.3,54.8z M1316.9,47.2c1.6,0,3.1-0.5,4.7-1.4c1.5-0.9,2.8-2.1,3.9-3.6
					c1-1.5,1.6-2.9,1.6-4.4v-3.5h-2.4c-2.4,0-4.7,0.1-6.8,0.4c-2.1,0.3-3.9,0.9-5.2,1.9c-1.3,1-1.9,2.5-1.9,4.5
					c0,2.1,0.6,3.7,1.8,4.7C1313.7,46.7,1315.1,47.2,1316.9,47.2z"/>
				<path class="st5" d="M1351.9,54c-1.5,0-2.6-0.3-3.5-1c-0.9-0.7-1.4-1.5-1.4-2.3V12.4c0-0.9,0.5-1.7,1.4-2.3
					c0.9-0.6,2.1-0.9,3.5-0.9c1.2,0,2.2,0.3,3.1,0.9c0.9,0.6,1.3,1.4,1.3,2.3v3.4c0.9-1.8,2.5-3.5,4.7-5c2.2-1.5,4.8-2.2,8-2.2
					c3,0,5.7,0.8,8.2,2.5c2.5,1.7,4.5,3.9,6,6.7c1.5,2.8,2.3,5.9,2.3,9.4v23.5c0,1.1-0.5,1.9-1.6,2.5c-1,0.6-2.2,0.9-3.5,0.9
					c-1.1,0-2.2-0.3-3.3-0.9c-1.1-0.6-1.6-1.4-1.6-2.5V27.2c0-1.6-0.4-3.2-1.3-4.7c-0.9-1.5-2-2.7-3.5-3.7c-1.5-0.9-3.1-1.4-4.8-1.4
					c-1.5,0-3,0.4-4.4,1.2c-1.4,0.8-2.5,1.9-3.4,3.4c-0.9,1.5-1.3,3.2-1.3,5.3v23.5c0,0.8-0.5,1.6-1.5,2.3
					C1354.5,53.7,1353.3,54,1351.9,54z"/>
				<path class="st5" d="M1410.4,54.8c-3,0-5.7-0.9-8.2-2.6c-2.5-1.8-4.6-4.1-6.1-7c-1.5-2.9-2.3-5.9-2.3-9.2v-8.7
					c0-3.5,0.8-6.6,2.3-9.4c1.5-2.8,3.6-5,6.1-6.7c2.5-1.7,5.3-2.5,8.4-2.5c3,0,5.6,0.7,7.7,2.2c2.1,1.5,3.6,3.1,4.6,5v-30.1
					c0-0.9,0.5-1.7,1.5-2.3c1-0.6,2.2-0.9,3.6-0.9c1.4,0,2.5,0.3,3.5,0.9c0.9,0.6,1.4,1.4,1.4,2.3v65c0,0.8-0.5,1.6-1.4,2.3
					c-0.9,0.7-2.1,1-3.5,1c-1.2,0-2.3-0.3-3.2-1c-0.9-0.7-1.4-1.5-1.4-2.3v-3.3c-0.9,2-2.6,3.7-5,5.2
					C1416.1,54,1413.4,54.8,1410.4,54.8z M1413.2,46c1.8,0,3.5-0.5,4.9-1.5c1.5-1,2.6-2.1,3.5-3.4s1.3-2.2,1.3-3V27.2
					c0-2.1-0.5-3.8-1.4-5.3c-0.9-1.5-2.1-2.6-3.6-3.4c-1.5-0.8-3-1.2-4.5-1.2c-1.8,0-3.4,0.5-4.9,1.4c-1.5,0.9-2.6,2.2-3.5,3.7
					c-0.9,1.5-1.3,3.1-1.3,4.7v8.7c0,1.6,0.4,3.2,1.3,4.8c0.9,1.6,2,2.8,3.5,3.8C1409.9,45.5,1411.5,46,1413.2,46z"/>
			</g>
		</g>
		<g>
			<g class="st0">
				<path class="st5" d="M1525.6,54.8c-4.5,0-8.3-0.8-11.2-2.5s-5.1-3.9-6.5-6.7c-1.4-2.8-2.1-6.1-2.1-9.7v-8.5
					c0-3.5,0.7-6.7,2.1-9.6c1.4-2.9,3.5-5.1,6.4-6.8c2.9-1.6,6.6-2.5,11.1-2.5c2.9,0,5.4,0.3,7.6,1c2.2,0.7,3.9,1.6,5.1,2.6
					c1.2,1,1.8,2.1,1.8,3.3c0,0.6-0.2,1.2-0.5,2c-0.3,0.8-0.8,1.5-1.4,2c-0.6,0.5-1.3,0.8-2.1,0.8c-0.6,0-1.3-0.3-2-0.8
					c-0.7-0.5-1.7-1-2.9-1.5c-1.2-0.5-2.8-0.7-4.8-0.7c-3.5,0-6.2,0.9-7.9,2.6c-1.7,1.8-2.6,4.2-2.6,7.4v8.5c0,3.2,0.9,5.6,2.6,7.4
					c1.7,1.8,4.4,2.7,7.9,2.7c2.1,0,3.7-0.3,4.9-0.8c1.2-0.5,2.2-1.1,2.9-1.6c0.7-0.5,1.4-0.8,2.1-0.8c0.9,0,1.7,0.3,2.3,0.8
					c0.7,0.5,1.2,1.1,1.5,1.9c0.3,0.8,0.5,1.5,0.5,2.1c0,1.1-0.6,2.2-1.9,3.3c-1.3,1.1-3.1,2.1-5.3,2.8
					C1531.1,54.4,1528.5,54.8,1525.6,54.8z"/>
				<path class="st5" d="M1565.4,54.8c-3.4,0-6.6-0.9-9.6-2.6c-3-1.8-5.3-4.1-7.1-7c-1.8-2.9-2.7-5.9-2.7-9.2v-8.7
					c0-3.3,0.9-6.4,2.6-9.3c1.7-2.8,4.1-5.1,7.1-6.8c3-1.7,6.3-2.6,9.8-2.6c3.5,0,6.8,0.9,9.7,2.6c3,1.7,5.3,3.9,7.1,6.7
					c1.8,2.8,2.7,5.9,2.7,9.4v8.7c0,3.2-0.9,6.3-2.7,9.2c-1.8,2.9-4.2,5.2-7.2,7C1572.2,53.9,1568.9,54.8,1565.4,54.8z M1565.5,46
					c1.8,0,3.4-0.5,4.8-1.4c1.5-0.9,2.6-2.2,3.5-3.7c0.9-1.5,1.3-3.2,1.3-4.9v-8.7c0-1.7-0.4-3.3-1.3-4.8c-0.9-1.5-2.1-2.7-3.5-3.6
					c-1.5-0.9-3.1-1.4-4.9-1.4c-1.8,0-3.4,0.5-4.8,1.4c-1.4,0.9-2.6,2.2-3.4,3.6c-0.9,1.5-1.3,3.1-1.3,4.8v8.7
					c0,1.7,0.4,3.3,1.3,4.9c0.9,1.5,2,2.8,3.5,3.7C1562.1,45.5,1563.7,46,1565.5,46z"/>
				<path class="st5" d="M1608.6,54.8c-3,0-5.7-0.9-8.2-2.6c-2.5-1.8-4.6-4.1-6.1-7c-1.5-2.9-2.3-5.9-2.3-9.2v-8.7
					c0-3.5,0.8-6.6,2.3-9.4c1.5-2.8,3.6-5,6.1-6.7c2.5-1.7,5.3-2.5,8.4-2.5c3,0,5.6,0.7,7.7,2.2c2.1,1.5,3.6,3.1,4.6,5v-30.1
					c0-0.9,0.5-1.7,1.5-2.3c1-0.6,2.2-0.9,3.6-0.9c1.4,0,2.5,0.3,3.5,0.9c0.9,0.6,1.4,1.4,1.4,2.3v65c0,0.8-0.5,1.6-1.4,2.3
					c-0.9,0.7-2.1,1-3.5,1c-1.2,0-2.3-0.3-3.2-1c-0.9-0.7-1.4-1.5-1.4-2.3v-3.3c-0.9,2-2.6,3.7-5,5.2
					C1614.3,54,1611.6,54.8,1608.6,54.8z M1611.5,46c1.8,0,3.5-0.5,4.9-1.5c1.5-1,2.6-2.1,3.5-3.4s1.3-2.2,1.3-3V27.2
					c0-2.1-0.5-3.8-1.4-5.3c-0.9-1.5-2.1-2.6-3.6-3.4c-1.5-0.8-3-1.2-4.5-1.2c-1.8,0-3.4,0.5-4.9,1.4c-1.5,0.9-2.6,2.2-3.5,3.7
					c-0.9,1.5-1.3,3.1-1.3,4.7v8.7c0,1.6,0.4,3.2,1.3,4.8c0.9,1.6,2,2.8,3.5,3.8C1608.1,45.5,1609.7,46,1611.5,46z"/>
				<path class="st5" d="M1661.8,54.8c-4.3,0-8.1-0.8-11.4-2.4c-3.3-1.6-5.9-3.8-7.8-6.6c-1.9-2.8-2.8-6.1-2.8-9.9v-9
					c0-3.3,0.9-6.4,2.7-9.2c1.8-2.8,4.2-5,7.1-6.7c3-1.7,6.2-2.5,9.8-2.5c3.4,0,6.5,0.7,9.4,2.2c2.8,1.5,5.1,3.5,6.9,6.2
					c1.7,2.6,2.6,5.7,2.6,9.1c0,2.6-0.4,4.5-1.2,5.7c-0.8,1.1-1.9,1.8-3.2,2.1c-1.3,0.3-2.7,0.4-4.2,0.4h-20v2.2
					c0,3.2,1.2,5.7,3.5,7.5c2.3,1.9,5.3,2.8,8.8,2.8c2.2,0,4-0.3,5.4-0.9c1.4-0.6,2.6-1.2,3.5-1.8c0.9-0.6,1.8-0.9,2.7-0.9
					c0.8,0,1.5,0.3,2.1,0.8c0.6,0.5,1,1.1,1.3,1.8c0.3,0.7,0.5,1.3,0.5,1.9c0,0.9-0.6,2-1.9,3.1c-1.3,1.1-3.1,2.1-5.4,2.9
					C1667.8,54.4,1665,54.8,1661.8,54.8z M1649.8,28.1h15.7c1.4,0,2.3-0.2,2.8-0.6c0.5-0.4,0.7-1.1,0.7-2.3c0-1.6-0.4-3.2-1.2-4.6
					c-0.8-1.4-2-2.5-3.4-3.3c-1.5-0.8-3.1-1.2-4.9-1.2c-1.8,0-3.4,0.4-4.8,1.1c-1.5,0.8-2.6,1.8-3.5,3.1c-0.9,1.3-1.3,2.9-1.3,4.6
					V28.1z"/>
			</g>
		</g>
	</g>
</g>
</svg>
