<?xml version="1.0" encoding="utf-8"?>
<!-- Generator: Adobe Illustrator 26.0.3, SVG Export Plug-In . SVG Version: 6.00 Build 0)  -->
<svg version="1.1" id="Layer_1" xmlns="http://www.w3.org/2000/svg" xmlns:xlink="http://www.w3.org/1999/xlink" x="0px" y="0px"
	 viewBox="0 0 822.5 93.2" style="enable-background:new 0 0 822.5 93.2;" xml:space="preserve">
<style type="text/css">
	.st0{fill:#FFFFFF;}
	.st1{fill:#856FFB;}
	.st2{fill:#45D8DD;}
	.st3{fill:#FF44A9;}
	.st4{fill:#F2B21B;}
</style>
<path class="st0" d="M317.7,72.6c-3.2,0.1-6.4-1-8.9-3.1c-2.5-2.1-3.7-5.2-3.7-9.5c0-3.6,1-6.4,2.9-8.4c2.1-2.1,4.9-3.5,7.8-4.1
	c3.8-0.8,7.6-1.2,11.5-1.1h4.2v-1.7c0-1.6-0.3-3.3-0.9-4.8c-0.6-1.5-1.6-2.9-2.9-3.9c-1.6-1.1-3.6-1.7-5.6-1.6
	c-1.8-0.1-3.7,0.2-5.4,0.7c-1.1,0.3-2.1,0.8-3,1.4c-0.6,0.4-1.3,0.7-2.1,0.8c-1.1,0-2.2-0.7-2.7-1.7c-0.6-1-0.9-2.2-0.9-3.4
	c0-1.1,0.7-2.2,2.2-3.1c1.8-1,3.6-1.7,5.6-2.2c2.2-0.5,4.4-0.8,6.6-0.8c4.7,0,8.4,0.9,11.2,2.6c2.7,1.6,4.8,4,6.1,6.8
	c1.3,2.8,1.9,5.9,1.9,9v23.8c0,1-0.6,1.8-1.4,2.3c-1,0.7-2.3,1-3.5,1c-1.2,0.1-2.3-0.3-3.2-1c-0.8-0.5-1.3-1.4-1.3-2.3V65
	c-1.7,2-3.7,3.7-6,5.1C323.7,71.8,320.7,72.7,317.7,72.6z M321.3,65c1.7,0,3.3-0.5,4.7-1.4c1.5-0.9,2.9-2.2,3.9-3.6
	c1-1.3,1.5-2.9,1.6-4.5V52h-2.4c-2.3,0-4.5,0.1-6.8,0.4c-1.9,0.2-3.7,0.8-5.2,1.9c-1.3,1.1-2,2.8-1.9,4.5c0,2.2,0.6,3.7,1.8,4.7
	C318.2,64.5,319.7,65.1,321.3,65z"/>
<path class="st0" d="M356.5,71.8c-1.3,0.1-2.5-0.3-3.6-1c-0.8-0.5-1.3-1.4-1.4-2.3V30c0-1,0.5-1.8,1.4-2.3c1.1-0.6,2.3-1,3.6-0.9
	c1.1,0,2.2,0.3,3.1,0.9c0.8,0.5,1.3,1.4,1.3,2.3v3.4c1.1-2,2.7-3.8,4.7-5c2.4-1.5,5.2-2.3,8-2.2c2.9,0,5.8,0.8,8.2,2.5
	c2.5,1.7,4.6,4,6,6.7c1.5,2.9,2.3,6.2,2.3,9.5v23.6c0,1.1-0.6,2.1-1.6,2.5c-1.1,0.6-2.3,0.9-3.5,0.9c-1.2,0-2.3-0.3-3.3-0.9
	c-1-0.4-1.6-1.4-1.6-2.5V44.9c0-1.7-0.5-3.3-1.3-4.8c-0.8-1.5-2-2.8-3.5-3.7c-1.4-0.9-3.1-1.4-4.8-1.4c-1.5,0-3.1,0.4-4.4,1.2
	c-1.4,0.8-2.6,2-3.4,3.4c-0.9,1.6-1.4,3.4-1.3,5.3v23.6c-0.1,1-0.7,1.8-1.5,2.3C358.9,71.5,357.7,71.9,356.5,71.8z"/>
<path class="st0" d="M415.2,72.6c-3,0-5.9-0.9-8.3-2.7c-2.6-1.8-4.7-4.2-6.1-7c-1.6-2.9-2.3-6.1-2.3-9.3v-8.7c0-3.3,0.8-6.6,2.3-9.5
	c1.5-2.7,3.6-5,6.1-6.7c2.5-1.7,5.5-2.5,8.5-2.5c2.7-0.1,5.4,0.7,7.7,2.2c1.9,1.3,3.5,3,4.7,5V3.2c0-1,0.6-1.9,1.5-2.3
	c1.1-0.6,2.3-0.9,3.6-0.9c1.2,0,2.4,0.3,3.5,0.9c0.8,0.5,1.4,1.3,1.4,2.3v65.3c-0.1,0.9-0.6,1.8-1.4,2.3c-1,0.7-2.3,1.1-3.5,1
	c-1.1,0-2.3-0.3-3.2-1c-0.8-0.5-1.3-1.4-1.4-2.3v-3.3c-1.1,2.2-2.9,4-5,5.2C420.8,71.8,418,72.6,415.2,72.6z M418,63.7
	c1.8,0,3.5-0.5,4.9-1.5c1.4-0.9,2.6-2.1,3.5-3.4c0.7-0.8,1.2-1.9,1.3-3V44.9c0.1-1.9-0.4-3.7-1.4-5.3c-0.9-1.4-2.1-2.6-3.6-3.4
	c-1.4-0.8-3-1.2-4.6-1.2c-1.7,0-3.4,0.5-4.9,1.4c-1.5,0.9-2.7,2.2-3.5,3.7c-0.9,1.4-1.3,3.1-1.3,4.8v8.7c0,1.7,0.4,3.3,1.3,4.8
	c0.8,1.5,2,2.8,3.5,3.8C414.6,63.2,416.3,63.7,418,63.7L418,63.7z"/>
<g>
	<path class="st1" d="M485.5,72.6c-4.6,0-8.3-0.8-11.3-2.5c-2.8-1.5-5.1-3.9-6.5-6.7c-1.4-3-2.2-6.3-2.1-9.7v-8.6
		c-0.1-3.3,0.7-6.6,2.1-9.6c1.4-2.9,3.7-5.3,6.5-6.8c3.4-1.8,7.2-2.6,11.1-2.5c2.6-0.1,5.1,0.3,7.6,1c1.8,0.5,3.6,1.4,5.1,2.6
		c1.1,0.8,1.8,2,1.9,3.3c0,0.7-0.2,1.4-0.5,2c-0.3,0.8-0.8,1.5-1.4,2c-0.6,0.5-1.3,0.8-2.1,0.8c-0.7-0.1-1.4-0.3-2-0.8
		c-0.9-0.6-1.9-1.1-2.9-1.5c-1.5-0.5-3.2-0.8-4.8-0.7c-3.5,0-6.2,0.9-7.9,2.7c-1.8,2-2.7,4.7-2.6,7.4v8.6c-0.1,2.7,0.8,5.4,2.6,7.4
		c1.7,1.8,4.4,2.7,8,2.7c1.7,0.1,3.3-0.2,4.9-0.8c1-0.4,2-1,2.9-1.6c0.6-0.5,1.3-0.8,2.1-0.8c0.8,0,1.7,0.3,2.3,0.8
		c0.7,0.5,1.2,1.1,1.5,1.9c0.3,0.7,0.5,1.4,0.5,2.1c-0.1,1.3-0.8,2.5-1.9,3.3c-1.6,1.3-3.4,2.2-5.3,2.8
		C490.8,72.2,488.1,72.6,485.5,72.6z"/>
</g>
<g>
	<path class="st2" d="M512.5,71.8c-1.2,0.1-2.5-0.3-3.5-1c-0.8-0.5-1.3-1.4-1.4-2.3V30c0-1,0.5-1.8,1.4-2.3c1.1-0.6,2.3-1,3.5-0.9
		c1.1,0,2.3,0.3,3.2,0.9c0.8,0.5,1.3,1.4,1.3,2.3v4.2c0.7-1.4,1.7-2.7,2.8-3.8c1.2-1.2,2.6-2.2,4.1-3c1.6-0.8,3.3-1.2,5.1-1.2h3
		c1,0,2,0.5,2.7,1.3c0.8,0.9,1.1,2,1.1,3.1c0,1.1-0.4,2.2-1.1,3.1c-0.6,0.8-1.6,1.3-2.7,1.3h-3c-2,0-3.9,0.6-5.5,1.7
		c-1.8,1.2-3.3,2.8-4.3,4.8c-1.2,2.3-1.8,4.9-1.7,7.5v19.5c-0.1,1-0.7,1.8-1.5,2.3C515,71.5,513.7,71.9,512.5,71.8z"/>
</g>
<g>
	<path class="st3" d="M562,72.6c-3.9,0.1-7.8-0.7-11.4-2.4c-3.1-1.5-5.8-3.7-7.8-6.6c-2-2.9-3-6.4-2.9-9.9v-9c0-3.3,0.9-6.5,2.7-9.2
		c1.8-2.8,4.3-5.1,7.2-6.7c8.9-5.2,20.4-2.6,26.2,5.9c1.7,2.7,2.6,5.9,2.6,9.1c0,2.7-0.4,4.6-1.2,5.7c-0.8,1.1-1.9,1.8-3.2,2.1
		c-1.4,0.3-2.8,0.4-4.2,0.4h-20v2.2c-0.1,2.9,1.2,5.8,3.5,7.6c2.5,2,5.7,2.9,8.9,2.8c1.8,0.1,3.7-0.2,5.4-0.9
		c1.2-0.5,2.4-1.1,3.5-1.8c0.8-0.6,1.7-0.9,2.7-0.9c0.8,0,1.5,0.3,2.1,0.8c0.6,0.5,1,1.1,1.3,1.8c0.3,0.6,0.5,1.2,0.5,1.9
		c0,1-0.7,2-1.9,3.1c-1.6,1.3-3.5,2.3-5.5,2.9C567.7,72.3,564.9,72.6,562,72.6z M549.9,45.8h15.8c1,0.1,2-0.1,2.8-0.6
		c0.5-0.4,0.7-1.1,0.7-2.3c0-1.6-0.4-3.2-1.2-4.6c-0.8-1.4-2-2.5-3.4-3.3c-1.5-0.8-3.2-1.2-4.9-1.2c-1.7,0-3.3,0.4-4.8,1.1
		c-1.4,0.7-2.6,1.8-3.5,3.1c-0.9,1.4-1.4,3-1.3,4.7v3.1H549.9z"/>
</g>
<g>
	<path class="st4" d="M596.5,72.6c-3.2,0.1-6.4-1-8.9-3.1c-2.5-2.1-3.7-5.2-3.7-9.5c-0.2-3.1,0.8-6.1,2.8-8.4
		c2.1-2.1,4.9-3.5,7.8-4.1c3.8-0.8,7.6-1.2,11.5-1.1h4.2v-1.7c0-1.6-0.3-3.3-0.9-4.8c-0.6-1.5-1.6-2.9-2.9-3.9
		c-1.6-1.1-3.6-1.7-5.6-1.6c-1.8-0.1-3.7,0.2-5.4,0.7c-1.1,0.3-2.1,0.8-3,1.4c-0.6,0.4-1.3,0.7-2.1,0.8c-1.1,0-2.2-0.7-2.7-1.7
		c-0.6-1-1-2.2-1-3.4c0-1.1,0.7-2.2,2.2-3.1c1.8-1,3.6-1.7,5.6-2.2c2.2-0.5,4.4-0.8,6.6-0.8c4.7,0,8.4,0.9,11.2,2.6
		c2.7,1.6,4.8,4,6.1,6.8c1.3,2.8,1.9,5.9,1.9,9v23.8c0,1-0.6,1.8-1.4,2.3c-1,0.7-2.3,1-3.5,1c-1.2,0.1-2.3-0.3-3.2-1
		c-0.8-0.5-1.3-1.4-1.3-2.3V65c-1.7,2-3.7,3.7-6,5.1C602.4,71.8,599.5,72.7,596.5,72.6z M600.2,65c1.7,0,3.3-0.5,4.7-1.4
		c1.5-1,2.8-2.2,3.9-3.6c1-1.3,1.5-2.9,1.6-4.5V52h-2.5c-2.3,0-4.5,0.1-6.8,0.4c-1.9,0.2-3.7,0.8-5.2,1.9c-1.3,1.1-2,2.8-1.9,4.5
		c0,2.2,0.6,3.7,1.8,4.7C597,64.5,598.6,65.1,600.2,65z"/>
</g>
<g>
	<path class="st1" d="M646.8,71.8c-5.4,0-9.5-1.2-12.3-3.6c-2.9-2.4-4.3-6.1-4.3-11.3V9.3c0-1,0.6-1.9,1.6-2.3
		c1-0.6,2.2-0.9,3.4-0.9c1.2,0,2.4,0.3,3.4,0.9c0.9,0.4,1.6,1.3,1.6,2.3v17.5h11.6c0.8,0,1.6,0.4,2,1.1c0.9,1.6,0.9,3.6,0,5.2
		c-0.4,0.7-1.2,1.1-2,1.1h-11.6V57c0,2.3,0.5,3.9,1.5,4.8s2.7,1.4,5.2,1.4h3.2c1.2-0.1,2.5,0.4,3.3,1.3c0.7,0.8,1.1,1.9,1.1,3
		c0,1.1-0.4,2.1-1.1,2.9c-0.8,0.9-2.1,1.4-3.3,1.3L646.8,71.8L646.8,71.8z"/>
</g>
<g>
	<path class="st2" d="M666.3,15.5c-1.5,0-3-0.5-4.1-1.6c-1-0.9-1.6-2.2-1.7-3.6c0-1.4,0.6-2.8,1.7-3.7c1.1-1,2.6-1.5,4.1-1.5
		c1.5,0,2.9,0.5,4,1.5c1.1,0.9,1.7,2.3,1.7,3.7c-0.1,1.4-0.7,2.7-1.7,3.6C669.2,14.9,667.8,15.5,666.3,15.5z M666.3,71.8
		c-1.3,0.1-2.5-0.3-3.6-1c-0.8-0.5-1.3-1.4-1.4-2.3V30c0-1,0.5-1.8,1.4-2.3c1.1-0.6,2.3-1,3.6-0.9c1.3,0,2.5,0.3,3.6,0.9
		c0.9,0.4,1.5,1.3,1.5,2.3v38.5c-0.1,1-0.7,1.8-1.5,2.3C668.8,71.5,667.6,71.9,666.3,71.8z"/>
</g>
<g>
	<path class="st3" d="M698.2,72.8c-1,0-2-0.2-2.9-0.5c-0.8-0.2-1.4-0.8-1.7-1.5l-16-38.5c-0.1-0.3-0.2-0.5-0.2-0.8
		c-0.1-0.3-0.1-0.6-0.1-0.9c0-0.9,0.4-1.7,1.1-2.2c0.8-0.6,1.7-1.1,2.6-1.5c0.9-0.4,1.8-0.6,2.8-0.6c0.7,0,1.3,0.1,1.9,0.4
		c0.6,0.3,1,0.8,1.2,1.4l11.4,30l11.2-29.8c0.2-0.6,0.6-1.1,1.1-1.5c0.6-0.3,1.2-0.5,1.9-0.5c0.9,0,1.8,0.2,2.6,0.6
		c1,0.4,2,0.9,2.8,1.6c0.7,0.5,1.1,1.3,1.2,2.1c0,0.3,0,0.6-0.1,0.9c-0.1,0.3-0.2,0.5-0.3,0.8l-15.9,38.5c-0.4,0.7-1,1.2-1.8,1.5
		C700.1,72.6,699.2,72.8,698.2,72.8z"/>
</g>
<g>
	<path class="st4" d="M730,15.5c-1.5,0-3-0.5-4.1-1.6c-1-0.9-1.6-2.2-1.7-3.6c0-1.4,0.6-2.8,1.7-3.7c1.1-1,2.6-1.5,4.1-1.5
		c1.5,0,2.9,0.5,4,1.5c1.1,0.9,1.7,2.3,1.7,3.7c-0.1,1.4-0.7,2.7-1.7,3.6C732.9,14.9,731.5,15.5,730,15.5z M730,71.8
		c-1.3,0.1-2.5-0.3-3.6-1c-0.8-0.5-1.3-1.4-1.4-2.3V30c0-1,0.5-1.8,1.4-2.3c1.1-0.6,2.3-1,3.6-0.9c1.3,0,2.5,0.3,3.6,0.9
		c0.9,0.4,1.5,1.3,1.5,2.3v38.5c-0.1,1-0.7,1.8-1.5,2.3C732.5,71.5,731.3,71.9,730,71.8z"/>
</g>
<g>
	<path class="st1" d="M761.8,71.8c-5.4,0-9.5-1.2-12.4-3.6c-2.9-2.4-4.3-6.1-4.3-11.3V9.3c0-1,0.6-1.9,1.6-2.3
		c1-0.6,2.2-0.9,3.4-0.9c1.2,0,2.4,0.3,3.4,0.9c0.9,0.4,1.6,1.3,1.6,2.3v17.5h11.6c0.8,0,1.6,0.4,2,1.1c0.9,1.6,0.9,3.6,0,5.2
		c-0.4,0.7-1.2,1.1-2,1.1h-11.6V57c0,2.3,0.5,3.9,1.5,4.8s2.7,1.4,5.2,1.4h3.2c1.2-0.1,2.5,0.4,3.3,1.3c0.7,0.8,1.1,1.9,1.1,3
		c0,1.1-0.4,2.1-1.1,2.9c-0.8,0.9-2.1,1.4-3.3,1.3L761.8,71.8L761.8,71.8z"/>
</g>
<g>
	<path class="st2" d="M776.6,93.2c-1.1,0-2.2-0.3-3.2-0.8c-0.9-0.5-1.3-1.7-1.3-3.5c0-1,0.2-2.1,0.6-3c0.3-0.8,1.2-1.4,2.1-1.3
		c1.3,0,2.7-0.3,3.9-0.9c1.6-0.7,3-1.7,4.2-2.9c1.5-1.4,2.6-3.1,3.5-4.9c1.1-2.2,1.7-4.5,2-6.9l-16.1-36.9c-0.3-0.4-0.4-0.8-0.4-1.3
		c0-0.9,0.4-1.7,1.1-2.3c0.8-0.7,1.6-1.3,2.6-1.8c0.9-0.4,1.9-0.6,2.9-0.7c0.7,0,1.3,0.1,1.9,0.4c0.6,0.2,1.1,0.8,1.2,1.4l12,30.9
		L804,27.8c0.2-0.6,0.6-1.1,1.1-1.4c0.5-0.3,1.1-0.4,1.7-0.4c0.9,0,1.9,0.3,2.7,0.7c1,0.4,2,1,2.8,1.8c0.7,0.6,1.2,1.5,1.2,2.5
		c0,0.4-0.1,0.8-0.3,1.1L799,69.2c-1,2.7-2.1,5.5-3.1,8.3c-1,2.7-2.3,5.3-3.9,7.7c-1.6,2.3-3.6,4.3-6,5.7
		C783.1,92.5,779.9,93.3,776.6,93.2z"/>
</g>
<g>
	<path class="st4" d="M23.2,81.7c-3.2,0-6.3-0.6-9.2-1.9c-2.7-1.2-5.1-3-7-5.3c-1.8-2.2-2.7-5-2.7-7.8c0-0.6,0-1.6,0.1-2.8
		c0.1-1.2,0.2-2.6,0.4-4.1s0.4-3,0.5-4.4s0.3-2.7,0.4-3.8s0.1-1.8,0.1-2.2c0.1-0.8-0.3-1.5-0.9-1.9c-0.6-0.3-1.3-0.5-2-0.7
		c-0.7-0.2-1.4-0.5-2-1C0.2,45-0.1,44,0,43c-0.1-1,0.2-2,0.9-2.7c0.6-0.5,1.3-0.8,2-1c0.7-0.2,1.4-0.4,2-0.7c0.6-0.3,1-1,0.9-1.7
		c0-0.5-0.1-1.4-0.2-2.6S5.3,31.7,5,30.2s-0.4-2.9-0.6-4.3c-0.1-1.1-0.2-2.1-0.2-3.2c0-2.1,0.5-4.2,1.6-6c1.1-2,2.5-3.7,4.3-5.1
		c1.8-1.5,3.9-2.7,6.1-3.6c2.2-0.9,4.6-1.3,7-1.3c2.1,0,3.5,0.5,4.3,1.4c0.7,0.8,1.2,1.9,1.2,3c0,1-0.3,2-0.9,2.8
		c-0.5,0.9-1.4,1.4-2.4,1.4c-1.7,0-3.5,0.4-5.1,1c-1.7,0.6-3.2,1.6-4.4,2.9c-1.2,1.3-1.8,3-1.8,4.8c0,0.6,0.1,1.6,0.2,2.9
		s0.3,2.7,0.6,4.2s0.4,2.9,0.6,4.2c0.1,0.9,0.2,1.8,0.2,2.7c0,1.2-0.4,2.4-1.2,3.4c-0.5,0.8-1.3,1.4-2.1,1.8c0.8,0.4,1.5,1,2.1,1.7
		c0.8,0.9,1.2,2.1,1.2,3.3c0,0.6-0.1,1.7-0.2,3.3s-0.3,3.4-0.6,5.3s-0.4,3.7-0.6,5.3c-0.1,1.1-0.2,2.3-0.2,3.4
		c-0.1,1.3,0.4,2.7,1.2,3.7c0.8,1,1.8,1.7,3,2.2c1.2,0.5,2.4,0.9,3.7,1.1c1.1,0.2,2.2,0.3,3.3,0.3c0.7-0.1,1.5,0.2,2,0.7
		c0.5,0.5,0.8,1.1,0.9,1.7c0.1,0.6,0.2,1.3,0.3,1.9c0.1,1.3-0.5,2.5-1.5,3.3C26.3,81.3,24.9,81.7,23.2,81.7z"/>
</g>
<g>
	<path class="st4" d="M254.9,81.7c-1.4,0.1-2.9-0.3-4.1-1.1c-1-0.8-1.6-2-1.5-3.3c0-0.6,0.1-1.3,0.3-1.9c0.2-0.6,0.5-1.2,1-1.7
		c0.5-0.5,1.3-0.7,2-0.7c1.1,0,2.1-0.1,3.2-0.3c1.3-0.2,2.6-0.6,3.8-1.1c1.2-0.5,2.2-1.3,3-2.2c0.8-1.1,1.2-2.4,1.2-3.7
		c0-1.1-0.1-2.3-0.3-3.4c-0.2-1.6-0.4-3.4-0.6-5.3s-0.4-3.7-0.6-5.3c-0.2-1.1-0.3-2.2-0.3-3.3c0-1.2,0.4-2.4,1.2-3.3
		c0.6-0.8,1.3-1.4,2.2-1.7c-0.9-0.4-1.6-1-2.2-1.8c-0.8-1-1.2-2.2-1.2-3.4c0-0.9,0.1-1.8,0.3-2.7c0.2-1.3,0.4-2.7,0.6-4.2
		s0.4-2.9,0.6-4.2c0.2-1,0.3-1.9,0.3-2.9c0-1.8-0.6-3.5-1.8-4.8c-1.2-1.3-2.7-2.3-4.4-2.9c-1.6-0.7-3.4-1-5.1-1c-1,0-2-0.5-2.5-1.4
		c-0.6-0.8-0.9-1.8-0.9-2.8c0-1.1,0.4-2.2,1.2-3c0.8-1,2.2-1.4,4.3-1.4c2.4,0,4.8,0.4,7.1,1.3c2.2,0.8,4.3,2.1,6.1,3.6
		c1.7,1.4,3.2,3.2,4.3,5.1c1.1,1.8,1.6,3.9,1.6,6c0,1.1-0.1,2.1-0.3,3.2c-0.2,1.4-0.4,2.8-0.6,4.3s-0.4,2.8-0.6,4.1
		c-0.2,0.9-0.3,1.7-0.3,2.6c-0.1,0.7,0.3,1.4,0.9,1.7c0.6,0.3,1.3,0.5,2,0.7c0.7,0.2,1.4,0.5,2,1c0.7,0.7,1,1.7,0.9,2.7
		c0.1,1-0.2,2-0.9,2.8c-0.6,0.5-1.3,0.8-2,1c-0.7,0.2-1.4,0.4-2,0.7c-0.7,0.4-1,1.1-0.9,1.9c0,0.4,0.1,1.1,0.2,2.2s0.3,2.3,0.5,3.8
		s0.3,2.9,0.5,4.4s0.3,2.8,0.4,4.1c0.1,1.3,0.2,2.2,0.2,2.8c0.1,2.9-0.9,5.6-2.8,7.8c-1.9,2.3-4.3,4.1-7,5.3
		C261.1,81.2,258,81.8,254.9,81.7z"/>
</g>
<g>
	<path class="st0" d="M75.4,72.6c-4.6,0-8.3-0.8-11.3-2.5c-2.8-1.5-5.1-3.9-6.5-6.7c-1.4-3-2.2-6.3-2.1-9.7v-8.6
		c-0.1-3.3,0.7-6.6,2.1-9.6c1.4-2.9,3.7-5.3,6.5-6.8c3.4-1.8,7.2-2.6,11.1-2.5c2.6-0.1,5.1,0.3,7.6,1c1.8,0.5,3.6,1.4,5.1,2.6
		c1.1,0.8,1.8,2,1.9,3.3c0,0.7-0.2,1.4-0.5,2c-0.3,0.8-0.8,1.5-1.4,2c-0.6,0.5-1.3,0.8-2.1,0.8c-0.7-0.1-1.4-0.3-2-0.8
		c-0.9-0.6-1.9-1.1-2.9-1.5c-1.5-0.5-3.2-0.8-4.8-0.7c-3.5,0-6.2,0.9-7.9,2.7c-1.8,2-2.7,4.7-2.6,7.4v8.6c-0.1,2.7,0.8,5.4,2.6,7.4
		c1.7,1.8,4.4,2.7,8,2.7c1.7,0.1,3.3-0.2,4.9-0.8c1-0.4,2-1,2.9-1.6c0.6-0.5,1.3-0.8,2.1-0.8c0.8,0,1.7,0.3,2.3,0.8
		c0.7,0.5,1.2,1.1,1.5,1.9c0.3,0.7,0.5,1.4,0.5,2.1c-0.1,1.3-0.8,2.5-1.9,3.3c-1.6,1.3-3.4,2.2-5.3,2.8C80.7,72.2,78,72.6,75.4,72.6
		z"/>
	<path class="st0" d="M115.3,72.6c-3.4,0-6.7-0.9-9.6-2.7c-2.9-1.7-5.4-4.1-7.2-7c-1.8-2.8-2.7-6-2.7-9.3v-8.7
		c0-3.3,0.9-6.5,2.6-9.3c1.7-2.8,4.2-5.2,7.1-6.8c6.1-3.5,13.5-3.5,19.6,0c2.9,1.6,5.4,3.9,7.2,6.7c1.8,2.8,2.7,6.1,2.7,9.4v8.7
		c0,3.3-0.9,6.5-2.7,9.2c-1.8,2.9-4.2,5.3-7.2,7C122.2,71.7,118.8,72.6,115.3,72.6z M115.4,63.7c1.7,0,3.4-0.5,4.8-1.4
		c1.5-1,2.7-2.3,3.5-3.8c0.9-1.5,1.3-3.2,1.3-4.9v-8.7c0-1.7-0.4-3.4-1.3-4.8c-0.9-1.5-2.1-2.7-3.5-3.7c-1.5-1-3.2-1.4-4.9-1.4
		c-1.7,0-3.4,0.5-4.8,1.4c-1.4,1-2.6,2.2-3.4,3.7c-0.9,1.4-1.3,3.1-1.3,4.8v8.7c0,1.7,0.4,3.4,1.3,4.9c0.8,1.5,2,2.8,3.5,3.8
		C112,63.3,113.7,63.8,115.4,63.7z"/>
	<path class="st0" d="M158.7,72.6c-3,0-5.9-0.9-8.3-2.7c-2.6-1.8-4.7-4.2-6.1-7c-1.6-2.9-2.3-6.1-2.3-9.3v-8.7
		c0-3.3,0.8-6.6,2.3-9.5c1.5-2.7,3.6-5,6.1-6.7c2.5-1.7,5.5-2.5,8.5-2.5c2.7-0.1,5.4,0.7,7.7,2.2c1.9,1.3,3.5,3,4.7,5V3.2
		c0-1,0.6-1.9,1.5-2.3c1.1-0.6,2.3-0.9,3.6-0.9c1.2,0,2.4,0.3,3.5,0.9c0.8,0.5,1.4,1.3,1.4,2.3v65.3c-0.1,0.9-0.6,1.8-1.4,2.3
		c-1,0.7-2.3,1.1-3.5,1c-1.1,0-2.3-0.3-3.2-1c-0.8-0.5-1.3-1.4-1.4-2.3v-3.3c-1.1,2.2-2.9,4-5,5.2C164.3,71.8,161.5,72.6,158.7,72.6
		z M161.5,63.7c1.8,0,3.5-0.5,4.9-1.5c1.4-0.9,2.6-2.1,3.5-3.4c0.7-0.8,1.2-1.9,1.3-3V44.9c0.1-1.9-0.4-3.7-1.4-5.3
		c-0.9-1.4-2.1-2.6-3.6-3.4c-1.4-0.8-3-1.2-4.6-1.2c-1.7,0-3.4,0.5-4.9,1.4c-1.5,0.9-2.7,2.2-3.5,3.7c-0.9,1.4-1.3,3.1-1.3,4.8v8.7
		c0,1.7,0.4,3.3,1.3,4.8c0.8,1.5,2,2.8,3.5,3.8C158.1,63.2,159.8,63.8,161.5,63.7z"/>
	<path class="st0" d="M212.1,72.6c-3.9,0.1-7.8-0.7-11.4-2.4c-3.1-1.5-5.8-3.7-7.8-6.6c-2-2.9-3-6.4-2.9-9.9v-9
		c0-3.3,0.9-6.5,2.7-9.2c1.8-2.8,4.3-5.1,7.2-6.7c8.9-5.2,20.4-2.6,26.2,5.9c1.7,2.7,2.6,5.9,2.6,9.1c0,2.7-0.4,4.6-1.2,5.7
		c-0.8,1.1-1.9,1.8-3.2,2.1c-1.4,0.3-2.8,0.4-4.2,0.4h-20v2.2c-0.1,2.9,1.2,5.8,3.5,7.6c2.5,2,5.7,2.9,8.9,2.8
		c1.8,0.1,3.7-0.2,5.4-0.9c1.2-0.5,2.4-1.1,3.5-1.8c0.8-0.6,1.7-0.9,2.7-0.9c0.8,0,1.5,0.3,2.1,0.8c0.6,0.5,1,1.1,1.3,1.8
		c0.3,0.6,0.5,1.2,0.5,1.9c0,1-0.7,2-1.9,3.1c-1.6,1.3-3.5,2.3-5.5,2.9C217.8,72.3,215,72.6,212.1,72.6z M200,45.8h15.8
		c1,0.1,2-0.1,2.8-0.6c0.5-0.4,0.7-1.1,0.7-2.3c0-1.6-0.4-3.2-1.2-4.6c-0.8-1.4-2-2.5-3.4-3.3c-1.5-0.8-3.2-1.2-4.9-1.2
		c-1.7,0-3.3,0.4-4.8,1.1c-1.4,0.7-2.6,1.8-3.5,3.1c-0.9,1.4-1.4,3-1.3,4.7v3.1H200z"/>
</g>
</svg>
