<svg id="Layer_1" data-name="Layer 1" xmlns="http://www.w3.org/2000/svg" viewBox="0 0 823.52 98.21"><defs><style>.cls-1{fill:#fff;}.cls-2{fill:#856ffb;}.cls-3{fill:#45d8dd;}.cls-4{fill:#ff44a9;}.cls-5{fill:#f2b21b;}</style></defs><path class="cls-1" d="M322.72,72.6a13.26,13.26,0,0,1-8.9-3.1c-2.5-2.1-3.7-5.2-3.7-9.5,0-3.6,1-6.4,2.9-8.4a15.59,15.59,0,0,1,7.8-4.1,48.87,48.87,0,0,1,11.5-1.1h4.2V44.7a13.15,13.15,0,0,0-.9-4.8,9.34,9.34,0,0,0-2.9-3.9,9.15,9.15,0,0,0-5.6-1.6,16.44,16.44,0,0,0-5.4.7,10.15,10.15,0,0,0-3,1.4,4.86,4.86,0,0,1-2.1.8,3.12,3.12,0,0,1-2.7-1.7,6.66,6.66,0,0,1-.9-3.4c0-1.1.7-2.2,2.2-3.1a22.51,22.51,0,0,1,5.6-2.2,29.94,29.94,0,0,1,6.6-.8c4.7,0,8.4.9,11.2,2.6a15.45,15.45,0,0,1,6.1,6.8,21.34,21.34,0,0,1,1.9,9V68.3a2.73,2.73,0,0,1-1.4,2.3,6.2,6.2,0,0,1-3.5,1,4.52,4.52,0,0,1-3.2-1,2.79,2.79,0,0,1-1.3-2.3V65a24.65,24.65,0,0,1-6,5.1A14.37,14.37,0,0,1,322.72,72.6Zm3.6-7.6a8.62,8.62,0,0,0,4.7-1.4,13.4,13.4,0,0,0,3.9-3.6,8.14,8.14,0,0,0,1.6-4.5V52h-2.4a51.6,51.6,0,0,0-6.8.4,10.6,10.6,0,0,0-5.2,1.9,5.52,5.52,0,0,0-1.9,4.5c0,2.2.6,3.7,1.8,4.7A6.16,6.16,0,0,0,326.32,65Z"/><path class="cls-1" d="M361.52,71.8a5.83,5.83,0,0,1-3.6-1,3.14,3.14,0,0,1-1.4-2.3V30a2.55,2.55,0,0,1,1.4-2.3,6.42,6.42,0,0,1,3.6-.9,5.58,5.58,0,0,1,3.1.9,2.79,2.79,0,0,1,1.3,2.3v3.4a13.28,13.28,0,0,1,4.7-5,15.15,15.15,0,0,1,16.2.3,18.5,18.5,0,0,1,6,6.7,20.81,20.81,0,0,1,2.3,9.5V68.5a2.64,2.64,0,0,1-1.6,2.5,7.27,7.27,0,0,1-3.5.9,6.3,6.3,0,0,1-3.3-.9,2.64,2.64,0,0,1-1.6-2.5V44.9a10.24,10.24,0,0,0-1.3-4.8,9.51,9.51,0,0,0-3.5-3.7,9,9,0,0,0-4.8-1.4,8.51,8.51,0,0,0-4.4,1.2,9.24,9.24,0,0,0-3.4,3.4,9.76,9.76,0,0,0-1.3,5.3V68.5a3.08,3.08,0,0,1-1.5,2.3A5.23,5.23,0,0,1,361.52,71.8Z"/><path class="cls-1" d="M420.22,72.6a13.7,13.7,0,0,1-8.3-2.7,18.64,18.64,0,0,1-6.1-7,19.21,19.21,0,0,1-2.3-9.3V44.9a20.81,20.81,0,0,1,2.3-9.5,19.59,19.59,0,0,1,6.1-6.7,15.1,15.1,0,0,1,8.5-2.5,13.25,13.25,0,0,1,7.7,2.2,16,16,0,0,1,4.7,5V3.2a2.53,2.53,0,0,1,1.5-2.3,7.4,7.4,0,0,1,3.6-.9,7.27,7.27,0,0,1,3.5.9,2.73,2.73,0,0,1,1.4,2.3V68.5a3.14,3.14,0,0,1-1.4,2.3,5.52,5.52,0,0,1-3.5,1,5.31,5.31,0,0,1-3.2-1,3.14,3.14,0,0,1-1.4-2.3V65.2a12.53,12.53,0,0,1-5,5.2A16.7,16.7,0,0,1,420.22,72.6Zm2.8-8.9a8.34,8.34,0,0,0,4.9-1.5,12.45,12.45,0,0,0,3.5-3.4,5.47,5.47,0,0,0,1.3-3V44.9a9,9,0,0,0-1.4-5.3,9.87,9.87,0,0,0-3.6-3.4,9.26,9.26,0,0,0-4.6-1.2,9.64,9.64,0,0,0-8.4,5.1,8.91,8.91,0,0,0-1.3,4.8v8.7a9.12,9.12,0,0,0,1.3,4.8,10.55,10.55,0,0,0,3.5,3.8,8.25,8.25,0,0,0,4.8,1.5Z"/><path class="cls-2" d="M490.52,72.6c-4.6,0-8.3-.8-11.3-2.5a15.57,15.57,0,0,1-6.5-6.7,21.4,21.4,0,0,1-2.1-9.7V45.1a21.25,21.25,0,0,1,2.1-9.6,15.32,15.32,0,0,1,6.5-6.8,22.3,22.3,0,0,1,11.1-2.5,24.41,24.41,0,0,1,7.6,1,14.43,14.43,0,0,1,5.1,2.6,4.53,4.53,0,0,1,1.9,3.3,4.49,4.49,0,0,1-.5,2,4.85,4.85,0,0,1-1.4,2,3.25,3.25,0,0,1-2.1.8,3.86,3.86,0,0,1-2-.8,15.62,15.62,0,0,0-2.9-1.5,13,13,0,0,0-4.8-.7c-3.5,0-6.2.9-7.9,2.7a10.51,10.51,0,0,0-2.6,7.4v8.6a10.51,10.51,0,0,0,2.6,7.4c1.7,1.8,4.4,2.7,8,2.7a11.73,11.73,0,0,0,4.9-.8,16.06,16.06,0,0,0,2.9-1.6,3.25,3.25,0,0,1,2.1-.8,3.84,3.84,0,0,1,2.3.8,4,4,0,0,1,1.5,1.9,5.26,5.26,0,0,1,.5,2.1,4.53,4.53,0,0,1-1.9,3.3,15.89,15.89,0,0,1-5.3,2.8A25.77,25.77,0,0,1,490.52,72.6Z"/><path class="cls-3" d="M517.52,71.8a5.52,5.52,0,0,1-3.5-1,3.14,3.14,0,0,1-1.4-2.3V30a2.55,2.55,0,0,1,1.4-2.3,6.32,6.32,0,0,1,3.5-.9,5.94,5.94,0,0,1,3.2.9A2.76,2.76,0,0,1,522,30v4.2a15,15,0,0,1,2.8-3.8,17,17,0,0,1,4.1-3,11.15,11.15,0,0,1,5.1-1.2h3a3.66,3.66,0,0,1,2.7,1.3,4.57,4.57,0,0,1,1.1,3.1,5.05,5.05,0,0,1-1.1,3.1A3.39,3.39,0,0,1,537,35h-3a9.73,9.73,0,0,0-5.5,1.7,12.5,12.5,0,0,0-4.3,4.8,15,15,0,0,0-1.7,7.5V68.5a3.08,3.08,0,0,1-1.5,2.3A5.47,5.47,0,0,1,517.52,71.8Z"/><path class="cls-4" d="M567,72.6a25.2,25.2,0,0,1-11.4-2.4,19.87,19.87,0,0,1-7.8-6.6,16.63,16.63,0,0,1-2.9-9.9v-9a16.5,16.5,0,0,1,2.7-9.2,20.12,20.12,0,0,1,7.2-6.7A19.74,19.74,0,0,1,581,34.7a17.21,17.21,0,0,1,2.6,9.1q0,4.05-1.2,5.7a5.34,5.34,0,0,1-3.2,2.1,19.74,19.74,0,0,1-4.2.4H555v2.2a9.33,9.33,0,0,0,3.5,7.6,13.54,13.54,0,0,0,8.9,2.8,12.63,12.63,0,0,0,5.4-.9,22.67,22.67,0,0,0,3.5-1.8A4.41,4.41,0,0,1,579,61a3.25,3.25,0,0,1,2.1.8,4.66,4.66,0,0,1,1.3,1.8,4.08,4.08,0,0,1,.5,1.9c0,1-.7,2-1.9,3.1a16.25,16.25,0,0,1-5.5,2.9A30.9,30.9,0,0,1,567,72.6ZM554.9,45.8h15.8a4.5,4.5,0,0,0,2.8-.6c.5-.4.7-1.1.7-2.3a9.26,9.26,0,0,0-1.2-4.6,9.05,9.05,0,0,0-3.4-3.3,10.44,10.44,0,0,0-4.9-1.2,11.24,11.24,0,0,0-4.8,1.1,9.41,9.41,0,0,0-3.5,3.1,7.76,7.76,0,0,0-1.3,4.7v3.1Z"/><path class="cls-5" d="M601.52,72.6a13.26,13.26,0,0,1-8.9-3.1c-2.5-2.1-3.7-5.2-3.7-9.5a11.61,11.61,0,0,1,2.8-8.4,15.59,15.59,0,0,1,7.8-4.1A49.73,49.73,0,0,1,611,46.4h4.2V44.7a13.15,13.15,0,0,0-.9-4.8,9.34,9.34,0,0,0-2.9-3.9,9.15,9.15,0,0,0-5.6-1.6,16.44,16.44,0,0,0-5.4.7,10.15,10.15,0,0,0-3,1.4,4.86,4.86,0,0,1-2.1.8,3.12,3.12,0,0,1-2.7-1.7,6.7,6.7,0,0,1-1-3.4c0-1.1.7-2.2,2.2-3.1a22.51,22.51,0,0,1,5.6-2.2,29.94,29.94,0,0,1,6.6-.8c4.7,0,8.4.9,11.2,2.6a15.45,15.45,0,0,1,6.1,6.8,21.34,21.34,0,0,1,1.9,9V68.3a2.73,2.73,0,0,1-1.4,2.3,6.2,6.2,0,0,1-3.5,1,4.52,4.52,0,0,1-3.2-1,2.79,2.79,0,0,1-1.3-2.3V65a24.65,24.65,0,0,1-6,5.1A13.6,13.6,0,0,1,601.52,72.6Zm3.7-7.6a8.62,8.62,0,0,0,4.7-1.4,16.69,16.69,0,0,0,3.9-3.6,8.14,8.14,0,0,0,1.6-4.5V52h-2.5a51.6,51.6,0,0,0-6.8.4,10.6,10.6,0,0,0-5.2,1.9,5.52,5.52,0,0,0-1.9,4.5c0,2.2.6,3.7,1.8,4.7a6.38,6.38,0,0,0,4.4,1.5Z"/><path class="cls-2" d="M651.82,71.8q-8.1,0-12.3-3.6c-2.9-2.4-4.3-6.1-4.3-11.3V9.3a2.46,2.46,0,0,1,1.6-2.3,6.87,6.87,0,0,1,6.8,0,2.62,2.62,0,0,1,1.6,2.3V26.8h11.6a2.33,2.33,0,0,1,2,1.1,5.34,5.34,0,0,1,0,5.2,2.33,2.33,0,0,1-2,1.1h-11.6V57q0,3.45,1.5,4.8c1,.9,2.7,1.4,5.2,1.4h3.2a4.11,4.11,0,0,1,3.3,1.3,4.64,4.64,0,0,1,1.1,3,4.36,4.36,0,0,1-1.1,2.9,4.11,4.11,0,0,1-3.3,1.3Z"/><path class="cls-3" d="M671.32,15.5a5.75,5.75,0,0,1-4.1-1.6,5.35,5.35,0,0,1-1.7-3.6,4.8,4.8,0,0,1,1.7-3.7,6.11,6.11,0,0,1,4.1-1.5,5.86,5.86,0,0,1,4,1.5,4.8,4.8,0,0,1,1.7,3.7,5.35,5.35,0,0,1-1.7,3.6A6,6,0,0,1,671.32,15.5Zm0,56.3a5.83,5.83,0,0,1-3.6-1,3.14,3.14,0,0,1-1.4-2.3V30a2.55,2.55,0,0,1,1.4-2.3,6.42,6.42,0,0,1,3.6-.9,7.4,7.4,0,0,1,3.6.9,2.53,2.53,0,0,1,1.5,2.3V68.5a3.08,3.08,0,0,1-1.5,2.3A5.83,5.83,0,0,1,671.32,71.8Z"/><path class="cls-4" d="M703.22,72.8a9.2,9.2,0,0,1-2.9-.5,2.55,2.55,0,0,1-1.7-1.5l-16-38.5a2.41,2.41,0,0,1-.2-.8,2.74,2.74,0,0,1-.1-.9,2.68,2.68,0,0,1,1.1-2.2,13.2,13.2,0,0,1,2.6-1.5,6.74,6.74,0,0,1,2.8-.6,4,4,0,0,1,1.9.4,2.35,2.35,0,0,1,1.2,1.4l11.4,30,11.2-29.8a3.24,3.24,0,0,1,1.1-1.5,4.08,4.08,0,0,1,1.9-.5,5.87,5.87,0,0,1,2.6.6,9.51,9.51,0,0,1,2.8,1.6,3,3,0,0,1,1.2,2.1,2.74,2.74,0,0,1-.1.9c-.1.3-.2.5-.3.8l-15.9,38.5a3.37,3.37,0,0,1-1.8,1.5A8.65,8.65,0,0,1,703.22,72.8Z"/><path class="cls-5" d="M735,15.5a5.75,5.75,0,0,1-4.1-1.6,5.35,5.35,0,0,1-1.7-3.6,4.8,4.8,0,0,1,1.7-3.7A6.11,6.11,0,0,1,735,5.1a5.86,5.86,0,0,1,4,1.5,4.8,4.8,0,0,1,1.7,3.7,5.35,5.35,0,0,1-1.7,3.6A6,6,0,0,1,735,15.5Zm0,56.3a5.83,5.83,0,0,1-3.6-1,3.14,3.14,0,0,1-1.4-2.3V30a2.55,2.55,0,0,1,1.4-2.3,6.42,6.42,0,0,1,3.6-.9,7.4,7.4,0,0,1,3.6.9,2.53,2.53,0,0,1,1.5,2.3V68.5a3.08,3.08,0,0,1-1.5,2.3A5.83,5.83,0,0,1,735,71.8Z"/><path class="cls-2" d="M766.82,71.8c-5.4,0-9.5-1.2-12.4-3.6s-4.3-6.1-4.3-11.3V9.3a2.46,2.46,0,0,1,1.6-2.3,6.87,6.87,0,0,1,6.8,0,2.62,2.62,0,0,1,1.6,2.3V26.8h11.6a2.33,2.33,0,0,1,2,1.1,5.34,5.34,0,0,1,0,5.2,2.33,2.33,0,0,1-2,1.1h-11.6V57q0,3.45,1.5,4.8c1,.9,2.7,1.4,5.2,1.4H770a4.11,4.11,0,0,1,3.3,1.3,4.64,4.64,0,0,1,1.1,3,4.36,4.36,0,0,1-1.1,2.9,4.11,4.11,0,0,1-3.3,1.3l-3.2.1Z"/><path class="cls-3" d="M781.62,93.2a7.28,7.28,0,0,1-3.2-.8c-.9-.5-1.3-1.7-1.3-3.5a7.73,7.73,0,0,1,.6-3,2.08,2.08,0,0,1,2.1-1.3,8.92,8.92,0,0,0,3.9-.9,13.85,13.85,0,0,0,4.2-2.9,16.82,16.82,0,0,0,3.5-4.9,21.06,21.06,0,0,0,2-6.9l-16.1-36.9a2,2,0,0,1-.4-1.3,3,3,0,0,1,1.1-2.3,12,12,0,0,1,2.6-1.8,9.33,9.33,0,0,1,2.9-.7,4,4,0,0,1,1.9.4,1.89,1.89,0,0,1,1.2,1.4l12,30.9L809,27.8a2.59,2.59,0,0,1,1.1-1.4,3.36,3.36,0,0,1,1.7-.4,6.37,6.37,0,0,1,2.7.7,8.46,8.46,0,0,1,2.8,1.8,3.35,3.35,0,0,1,1.2,2.5,2,2,0,0,1-.3,1.1L804,69.2c-1,2.7-2.1,5.5-3.1,8.3a37.64,37.64,0,0,1-3.9,7.7,19.21,19.21,0,0,1-6,5.7A18.18,18.18,0,0,1,781.62,93.2Z"/><path class="cls-5" d="M28.22,81.7A22.34,22.34,0,0,1,19,79.8a19.2,19.2,0,0,1-7-5.3,12.34,12.34,0,0,1-2.7-7.8c0-.6,0-1.6.1-2.8s.2-2.6.4-4.1.4-3,.5-4.4.3-2.7.4-3.8.1-1.8.1-2.2a2,2,0,0,0-.9-1.9,11.56,11.56,0,0,0-2-.7,5.38,5.38,0,0,1-2-1A3.67,3.67,0,0,1,5,43a3.32,3.32,0,0,1,.9-2.7,5.38,5.38,0,0,1,2-1,11.56,11.56,0,0,0,2-.7,1.67,1.67,0,0,0,.9-1.7c0-.5-.1-1.4-.2-2.6a35.22,35.22,0,0,0-.6-4.1c-.3-1.5-.4-2.9-.6-4.3-.1-1.1-.2-2.1-.2-3.2a11.51,11.51,0,0,1,1.6-6,16.26,16.26,0,0,1,4.3-5.1A23.41,23.41,0,0,1,21.22,8a18.62,18.62,0,0,1,7-1.3c2.1,0,3.5.5,4.3,1.4a4.55,4.55,0,0,1,.3,5.8,2.69,2.69,0,0,1-2.4,1.4,14.83,14.83,0,0,0-5.1,1,10.93,10.93,0,0,0-4.4,2.9,7,7,0,0,0-1.8,4.8c0,.6.1,1.6.2,2.9a37.25,37.25,0,0,0,.6,4.2c.3,1.5.4,2.9.6,4.2a24.52,24.52,0,0,1,.2,2.7,5.38,5.38,0,0,1-1.2,3.4,5.16,5.16,0,0,1-2.1,1.8,6.78,6.78,0,0,1,2.1,1.7,5,5,0,0,1,1.2,3.3c0,.6-.1,1.7-.2,3.3s-.3,3.4-.6,5.3-.4,3.7-.6,5.3c-.1,1.1-.2,2.3-.2,3.4a5.51,5.51,0,0,0,1.2,3.7,7.28,7.28,0,0,0,3,2.2A15.76,15.76,0,0,0,27,72.5a18.25,18.25,0,0,0,3.3.3,2.47,2.47,0,0,1,2,.7,3.17,3.17,0,0,1,.9,1.7c.1.6.2,1.3.3,1.9A3.85,3.85,0,0,1,32,80.4C31.32,81.3,29.92,81.7,28.22,81.7Z"/><path class="cls-5" d="M259.92,81.7a6.69,6.69,0,0,1-4.1-1.1,3.85,3.85,0,0,1-1.5-3.3,6.14,6.14,0,0,1,.3-1.9,4.31,4.31,0,0,1,1-1.7,2.87,2.87,0,0,1,2-.7,17.25,17.25,0,0,0,3.2-.3,16.22,16.22,0,0,0,3.8-1.1,8.37,8.37,0,0,0,3-2.2,6.31,6.31,0,0,0,1.2-3.7,19.36,19.36,0,0,0-.3-3.4c-.2-1.6-.4-3.4-.6-5.3s-.4-3.7-.6-5.3a18.25,18.25,0,0,1-.3-3.3,5,5,0,0,1,1.2-3.3,4.57,4.57,0,0,1,2.2-1.7,6,6,0,0,1-3.4-5.2,12.28,12.28,0,0,1,.3-2.7q.3-1.95.6-4.2t.6-4.2a14.13,14.13,0,0,0,.3-2.9,7,7,0,0,0-1.8-4.8,10.93,10.93,0,0,0-4.4-2.9,12.75,12.75,0,0,0-5.1-1,2.85,2.85,0,0,1-2.5-1.4,4.68,4.68,0,0,1-.9-2.8,4.24,4.24,0,0,1,1.2-3c.8-1,2.2-1.4,4.3-1.4a19.55,19.55,0,0,1,7.1,1.3,20.77,20.77,0,0,1,6.1,3.6,19.14,19.14,0,0,1,4.3,5.1,11.51,11.51,0,0,1,1.6,6,17.25,17.25,0,0,1-.3,3.2c-.2,1.4-.4,2.8-.6,4.3s-.4,2.8-.6,4.1a11.33,11.33,0,0,0-.3,2.6,1.67,1.67,0,0,0,.9,1.7,11.56,11.56,0,0,0,2,.7,5.38,5.38,0,0,1,2,1,3.32,3.32,0,0,1,.9,2.7,3.67,3.67,0,0,1-.9,2.8,5.38,5.38,0,0,1-2,1,11.56,11.56,0,0,0-2,.7,1.83,1.83,0,0,0-.9,1.9c0,.4.1,1.1.2,2.2s.3,2.3.5,3.8.3,2.9.5,4.4.3,2.8.4,4.1.2,2.2.2,2.8a11.19,11.19,0,0,1-2.8,7.8,19.2,19.2,0,0,1-7,5.3A21.37,21.37,0,0,1,259.92,81.7Z"/><path class="cls-1" d="M80.42,72.6c-4.6,0-8.3-.8-11.3-2.5a15.57,15.57,0,0,1-6.5-6.7,21.4,21.4,0,0,1-2.1-9.7V45.1a21.25,21.25,0,0,1,2.1-9.6,15.32,15.32,0,0,1,6.5-6.8,22.3,22.3,0,0,1,11.1-2.5,24.45,24.45,0,0,1,7.6,1,14.43,14.43,0,0,1,5.1,2.6,4.53,4.53,0,0,1,1.9,3.3,4.49,4.49,0,0,1-.5,2,4.85,4.85,0,0,1-1.4,2,3.25,3.25,0,0,1-2.1.8,3.86,3.86,0,0,1-2-.8,15.62,15.62,0,0,0-2.9-1.5,13,13,0,0,0-4.8-.7c-3.5,0-6.2.9-7.9,2.7a10.51,10.51,0,0,0-2.6,7.4v8.6a10.51,10.51,0,0,0,2.6,7.4c1.7,1.8,4.4,2.7,8,2.7a11.73,11.73,0,0,0,4.9-.8A16.52,16.52,0,0,0,89,61.3a3.25,3.25,0,0,1,2.1-.8,3.84,3.84,0,0,1,2.3.8,4,4,0,0,1,1.5,1.9,5.26,5.26,0,0,1,.5,2.1,4.53,4.53,0,0,1-1.9,3.3,15.89,15.89,0,0,1-5.3,2.8A26,26,0,0,1,80.42,72.6Z"/><path class="cls-1" d="M120.32,72.6a18.07,18.07,0,0,1-9.6-2.7,21.06,21.06,0,0,1-7.2-7,17,17,0,0,1-2.7-9.3V44.9a17.93,17.93,0,0,1,2.6-9.3,19.38,19.38,0,0,1,7.1-6.8,19.61,19.61,0,0,1,19.6,0,20.12,20.12,0,0,1,7.2,6.7,17.37,17.37,0,0,1,2.7,9.4v8.7a16.5,16.5,0,0,1-2.7,9.2,20.21,20.21,0,0,1-7.2,7A17.79,17.79,0,0,1,120.32,72.6Zm.1-8.9a9,9,0,0,0,4.8-1.4,10.55,10.55,0,0,0,3.5-3.8,9.47,9.47,0,0,0,1.3-4.9V44.9a8.91,8.91,0,0,0-1.3-4.8,12.48,12.48,0,0,0-3.5-3.7,8.76,8.76,0,0,0-4.9-1.4,9,9,0,0,0-4.8,1.4,10.86,10.86,0,0,0-3.4,3.7,8.91,8.91,0,0,0-1.3,4.8v8.7a9.47,9.47,0,0,0,1.3,4.9,10.55,10.55,0,0,0,3.5,3.8A7.55,7.55,0,0,0,120.42,63.7Z"/><path class="cls-1" d="M163.72,72.6a13.7,13.7,0,0,1-8.3-2.7,18.64,18.64,0,0,1-6.1-7,19.21,19.21,0,0,1-2.3-9.3V44.9a20.81,20.81,0,0,1,2.3-9.5,19.59,19.59,0,0,1,6.1-6.7,15.1,15.1,0,0,1,8.5-2.5,13.25,13.25,0,0,1,7.7,2.2,16,16,0,0,1,4.7,5V3.2a2.53,2.53,0,0,1,1.5-2.3,7.4,7.4,0,0,1,3.6-.9,7.27,7.27,0,0,1,3.5.9,2.73,2.73,0,0,1,1.4,2.3V68.5a3.14,3.14,0,0,1-1.4,2.3,5.52,5.52,0,0,1-3.5,1,5.31,5.31,0,0,1-3.2-1,3.14,3.14,0,0,1-1.4-2.3V65.2a12.53,12.53,0,0,1-5,5.2A16.7,16.7,0,0,1,163.72,72.6Zm2.8-8.9a8.34,8.34,0,0,0,4.9-1.5,12.45,12.45,0,0,0,3.5-3.4,5.47,5.47,0,0,0,1.3-3V44.9a9,9,0,0,0-1.4-5.3,9.87,9.87,0,0,0-3.6-3.4,9.26,9.26,0,0,0-4.6-1.2,9.64,9.64,0,0,0-8.4,5.1,8.91,8.91,0,0,0-1.3,4.8v8.7a9.12,9.12,0,0,0,1.3,4.8,10.55,10.55,0,0,0,3.5,3.8A7.6,7.6,0,0,0,166.52,63.7Z"/><path class="cls-1" d="M217.12,72.6a25.2,25.2,0,0,1-11.4-2.4,19.87,19.87,0,0,1-7.8-6.6,16.63,16.63,0,0,1-2.9-9.9v-9a16.5,16.5,0,0,1,2.7-9.2,20.12,20.12,0,0,1,7.2-6.7,19.74,19.74,0,0,1,26.2,5.9,17.21,17.21,0,0,1,2.6,9.1q0,4.05-1.2,5.7a5.34,5.34,0,0,1-3.2,2.1,19.74,19.74,0,0,1-4.2.4h-20v2.2a9.33,9.33,0,0,0,3.5,7.6,13.54,13.54,0,0,0,8.9,2.8,12.63,12.63,0,0,0,5.4-.9,22.67,22.67,0,0,0,3.5-1.8,4.41,4.41,0,0,1,2.7-.9,3.25,3.25,0,0,1,2.1.8,4.66,4.66,0,0,1,1.3,1.8,4.08,4.08,0,0,1,.5,1.9c0,1-.7,2-1.9,3.1a16.25,16.25,0,0,1-5.5,2.9A30.9,30.9,0,0,1,217.12,72.6ZM205,45.8h15.8a4.5,4.5,0,0,0,2.8-.6c.5-.4.7-1.1.7-2.3a9.26,9.26,0,0,0-1.2-4.6,9.05,9.05,0,0,0-3.4-3.3,10.44,10.44,0,0,0-4.9-1.2,11.24,11.24,0,0,0-4.8,1.1,9.41,9.41,0,0,0-3.5,3.1,7.76,7.76,0,0,0-1.3,4.7v3.1Z"/></svg>