<svg id="Layer_1" data-name="Layer 1" xmlns="http://www.w3.org/2000/svg" viewBox="0 0 813.52 93.21"><defs><style>.cls-1{fill:#fff;}.cls-2{fill:#856ffb;}.cls-3{fill:#45d8dd;}.cls-4{fill:#ff44a9;}.cls-5{fill:#f2b21b;}</style></defs><path class="cls-1" d="M317.72,72.6a13.26,13.26,0,0,1-8.9-3.1c-2.5-2.1-3.7-5.2-3.7-9.5,0-3.6,1-6.4,2.9-8.4a15.54,15.54,0,0,1,7.8-4.1,49.3,49.3,0,0,1,11.5-1.1h4.2V44.7a13.19,13.19,0,0,0-.9-4.8,9.32,9.32,0,0,0-2.9-3.9,9.18,9.18,0,0,0-5.6-1.6,16.37,16.37,0,0,0-5.4.7,10.32,10.32,0,0,0-3,1.4,4.85,4.85,0,0,1-2.1.8,3.13,3.13,0,0,1-2.7-1.7,6.65,6.65,0,0,1-.9-3.4c0-1.1.7-2.2,2.2-3.1a22.51,22.51,0,0,1,5.6-2.2,29.77,29.77,0,0,1,6.6-.8c4.7,0,8.4.9,11.2,2.6a15.44,15.44,0,0,1,6.1,6.8,21.39,21.39,0,0,1,1.9,9V68.3a2.74,2.74,0,0,1-1.4,2.3,6.2,6.2,0,0,1-3.5,1,4.55,4.55,0,0,1-3.2-1,2.77,2.77,0,0,1-1.3-2.3V65a24.6,24.6,0,0,1-6,5.1A14.36,14.36,0,0,1,317.72,72.6Zm3.6-7.6a8.63,8.63,0,0,0,4.7-1.4,13.42,13.42,0,0,0,3.9-3.6,8.19,8.19,0,0,0,1.6-4.5V52h-2.4a51.7,51.7,0,0,0-6.8.4,10.58,10.58,0,0,0-5.2,1.9,5.51,5.51,0,0,0-1.9,4.5c0,2.2.6,3.7,1.8,4.7A6.13,6.13,0,0,0,321.32,65Z"/><path class="cls-1" d="M356.52,71.8a5.8,5.8,0,0,1-3.6-1,3.15,3.15,0,0,1-1.4-2.3V30a2.54,2.54,0,0,1,1.4-2.3,6.44,6.44,0,0,1,3.6-.9,5.61,5.61,0,0,1,3.1.9,2.77,2.77,0,0,1,1.3,2.3v3.4a13.27,13.27,0,0,1,4.7-5,15.15,15.15,0,0,1,16.2.3,18.42,18.42,0,0,1,6,6.7,20.81,20.81,0,0,1,2.3,9.5V68.5a2.64,2.64,0,0,1-1.6,2.5,7.3,7.3,0,0,1-3.5.9,6.29,6.29,0,0,1-3.3-.9,2.64,2.64,0,0,1-1.6-2.5V44.9a10.15,10.15,0,0,0-1.3-4.8,9.56,9.56,0,0,0-3.5-3.7,9,9,0,0,0-4.8-1.4,8.56,8.56,0,0,0-4.4,1.2,9.24,9.24,0,0,0-3.4,3.4,9.72,9.72,0,0,0-1.3,5.3V68.5a3.09,3.09,0,0,1-1.5,2.3A5.24,5.24,0,0,1,356.52,71.8Z"/><path class="cls-1" d="M415.22,72.6a13.74,13.74,0,0,1-8.3-2.7,18.69,18.69,0,0,1-6.1-7,19.13,19.13,0,0,1-2.3-9.3V44.9a20.81,20.81,0,0,1,2.3-9.5,19.64,19.64,0,0,1,6.1-6.7,15.1,15.1,0,0,1,8.5-2.5,13.28,13.28,0,0,1,7.7,2.2,16,16,0,0,1,4.7,5V3.2a2.53,2.53,0,0,1,1.5-2.3,7.4,7.4,0,0,1,3.6-.9,7.3,7.3,0,0,1,3.5.9,2.74,2.74,0,0,1,1.4,2.3V68.5a3.15,3.15,0,0,1-1.4,2.3,5.51,5.51,0,0,1-3.5,1,5.28,5.28,0,0,1-3.2-1,3.15,3.15,0,0,1-1.4-2.3V65.2a12.53,12.53,0,0,1-5,5.2A16.69,16.69,0,0,1,415.22,72.6Zm2.8-8.9a8.36,8.36,0,0,0,4.9-1.5,12.61,12.61,0,0,0,3.5-3.4,5.45,5.45,0,0,0,1.3-3V44.9a9,9,0,0,0-1.4-5.3,9.8,9.8,0,0,0-3.6-3.4,9.29,9.29,0,0,0-4.6-1.2,9.64,9.64,0,0,0-8.4,5.1,8.88,8.88,0,0,0-1.3,4.8v8.7a9.12,9.12,0,0,0,1.3,4.8,10.58,10.58,0,0,0,3.5,3.8,8.27,8.27,0,0,0,4.8,1.5Z"/><path class="cls-2" d="M485.52,72.6c-4.6,0-8.3-.8-11.3-2.5a15.57,15.57,0,0,1-6.5-6.7,21.46,21.46,0,0,1-2.1-9.7V45.1a21.33,21.33,0,0,1,2.1-9.6,15.27,15.27,0,0,1,6.5-6.8,22.35,22.35,0,0,1,11.1-2.5,24.45,24.45,0,0,1,7.6,1,14.52,14.52,0,0,1,5.1,2.6,4.54,4.54,0,0,1,1.9,3.3,4.55,4.55,0,0,1-.5,2,4.83,4.83,0,0,1-1.4,2,3.23,3.23,0,0,1-2.1.8,3.86,3.86,0,0,1-2-.8,15.93,15.93,0,0,0-2.9-1.5,13,13,0,0,0-4.8-.7c-3.5,0-6.2.9-7.9,2.7a10.51,10.51,0,0,0-2.6,7.4v8.6a10.51,10.51,0,0,0,2.6,7.4c1.7,1.8,4.4,2.7,8,2.7a11.75,11.75,0,0,0,4.9-.8,16.41,16.41,0,0,0,2.9-1.6,3.23,3.23,0,0,1,2.1-.8,3.78,3.78,0,0,1,2.3.8,4,4,0,0,1,1.5,1.9,5.37,5.37,0,0,1,.5,2.1,4.54,4.54,0,0,1-1.9,3.3,15.92,15.92,0,0,1-5.3,2.8A25.91,25.91,0,0,1,485.52,72.6Z"/><path class="cls-3" d="M512.52,71.8a5.51,5.51,0,0,1-3.5-1,3.15,3.15,0,0,1-1.4-2.3V30a2.54,2.54,0,0,1,1.4-2.3,6.32,6.32,0,0,1,3.5-.9,6,6,0,0,1,3.2.9A2.77,2.77,0,0,1,517,30v4.2a15,15,0,0,1,2.8-3.8,17.3,17.3,0,0,1,4.1-3,11.25,11.25,0,0,1,5.1-1.2h3a3.68,3.68,0,0,1,2.7,1.3,4.55,4.55,0,0,1,1.1,3.1,5.1,5.1,0,0,1-1.1,3.1A3.37,3.37,0,0,1,532,35h-3a9.67,9.67,0,0,0-5.5,1.7,12.47,12.47,0,0,0-4.3,4.8,15,15,0,0,0-1.7,7.5V68.5a3.09,3.09,0,0,1-1.5,2.3A5.51,5.51,0,0,1,512.52,71.8Z"/><path class="cls-4" d="M562,72.6a25.15,25.15,0,0,1-11.4-2.4,19.89,19.89,0,0,1-7.8-6.6,16.65,16.65,0,0,1-2.9-9.9v-9a16.52,16.52,0,0,1,2.7-9.2,20.11,20.11,0,0,1,7.2-6.7A19.75,19.75,0,0,1,576,34.7a17.18,17.18,0,0,1,2.6,9.1q0,4.05-1.2,5.7a5.35,5.35,0,0,1-3.2,2.1,19.92,19.92,0,0,1-4.2.4H550v2.2a9.33,9.33,0,0,0,3.5,7.6,13.53,13.53,0,0,0,8.9,2.8,12.55,12.55,0,0,0,5.4-.9,23.13,23.13,0,0,0,3.5-1.8A4.39,4.39,0,0,1,574,61a3.23,3.23,0,0,1,2.1.8,4.63,4.63,0,0,1,1.3,1.8,4.14,4.14,0,0,1,.5,1.9c0,1-.7,2-1.9,3.1a16.14,16.14,0,0,1-5.5,2.9A30.52,30.52,0,0,1,562,72.6Zm-12.1-26.8h15.8a4.46,4.46,0,0,0,2.8-.6c.5-.4.7-1.1.7-2.3a9.29,9.29,0,0,0-1.2-4.6,9,9,0,0,0-3.4-3.3,10.44,10.44,0,0,0-4.9-1.2,11.25,11.25,0,0,0-4.8,1.1,9.48,9.48,0,0,0-3.5,3.1,7.79,7.79,0,0,0-1.3,4.7v3.1Z"/><path class="cls-5" d="M596.52,72.6a13.26,13.26,0,0,1-8.9-3.1c-2.5-2.1-3.7-5.2-3.7-9.5a11.61,11.61,0,0,1,2.8-8.4,15.54,15.54,0,0,1,7.8-4.1A49.3,49.3,0,0,1,606,46.4h4.2V44.7a13.19,13.19,0,0,0-.9-4.8,9.32,9.32,0,0,0-2.9-3.9,9.18,9.18,0,0,0-5.6-1.6,16.37,16.37,0,0,0-5.4.7,10.32,10.32,0,0,0-3,1.4,4.85,4.85,0,0,1-2.1.8,3.13,3.13,0,0,1-2.7-1.7,6.74,6.74,0,0,1-1-3.4c0-1.1.7-2.2,2.2-3.1a22.51,22.51,0,0,1,5.6-2.2,29.77,29.77,0,0,1,6.6-.8c4.7,0,8.4.9,11.2,2.6a15.44,15.44,0,0,1,6.1,6.8,21.39,21.39,0,0,1,1.9,9V68.3a2.74,2.74,0,0,1-1.4,2.3,6.2,6.2,0,0,1-3.5,1,4.55,4.55,0,0,1-3.2-1,2.77,2.77,0,0,1-1.3-2.3V65a24.6,24.6,0,0,1-6,5.1A13.56,13.56,0,0,1,596.52,72.6Zm3.7-7.6a8.63,8.63,0,0,0,4.7-1.4,16.72,16.72,0,0,0,3.9-3.6,8.19,8.19,0,0,0,1.6-4.5V52h-2.5a51.7,51.7,0,0,0-6.8.4,10.58,10.58,0,0,0-5.2,1.9,5.51,5.51,0,0,0-1.9,4.5c0,2.2.6,3.7,1.8,4.7A6.37,6.37,0,0,0,600.22,65Z"/><path class="cls-2" d="M646.82,71.8q-8.1,0-12.3-3.6c-2.9-2.4-4.3-6.1-4.3-11.3V9.3a2.47,2.47,0,0,1,1.6-2.3,6.87,6.87,0,0,1,6.8,0,2.62,2.62,0,0,1,1.6,2.3V26.8h11.6a2.31,2.31,0,0,1,2,1.1,5.34,5.34,0,0,1,0,5.2,2.31,2.31,0,0,1-2,1.1h-11.6V57q0,3.45,1.5,4.8c1,.9,2.7,1.4,5.2,1.4h3.2a4.1,4.1,0,0,1,3.3,1.3,4.62,4.62,0,0,1,1.1,3,4.36,4.36,0,0,1-1.1,2.9,4.1,4.1,0,0,1-3.3,1.3l-3.3.1Z"/><path class="cls-3" d="M666.32,15.5a5.74,5.74,0,0,1-4.1-1.6,5.33,5.33,0,0,1-1.7-3.6,4.8,4.8,0,0,1,1.7-3.7,6.1,6.1,0,0,1,4.1-1.5,5.85,5.85,0,0,1,4,1.5,4.8,4.8,0,0,1,1.7,3.7,5.33,5.33,0,0,1-1.7,3.6A6,6,0,0,1,666.32,15.5Zm0,56.3a5.8,5.8,0,0,1-3.6-1,3.15,3.15,0,0,1-1.4-2.3V30a2.54,2.54,0,0,1,1.4-2.3,6.44,6.44,0,0,1,3.6-.9,7.4,7.4,0,0,1,3.6.9,2.53,2.53,0,0,1,1.5,2.3V68.5a3.09,3.09,0,0,1-1.5,2.3A5.8,5.8,0,0,1,666.32,71.8Z"/><path class="cls-4" d="M698.22,72.8a9.29,9.29,0,0,1-2.9-.5,2.56,2.56,0,0,1-1.7-1.5l-16-38.5a2.35,2.35,0,0,1-.2-.8,2.77,2.77,0,0,1-.1-.9,2.66,2.66,0,0,1,1.1-2.2,13.5,13.5,0,0,1,2.6-1.5,6.71,6.71,0,0,1,2.8-.6,4.06,4.06,0,0,1,1.9.4,2.36,2.36,0,0,1,1.2,1.4l11.4,30,11.2-29.8a3.27,3.27,0,0,1,1.1-1.5,4.14,4.14,0,0,1,1.9-.5,5.83,5.83,0,0,1,2.6.6,9.7,9.7,0,0,1,2.8,1.6,3,3,0,0,1,1.2,2.1,2.77,2.77,0,0,1-.1.9c-.1.3-.2.5-.3.8l-15.9,38.5a3.35,3.35,0,0,1-1.8,1.5A8.68,8.68,0,0,1,698.22,72.8Z"/><path class="cls-5" d="M730,15.5a5.74,5.74,0,0,1-4.1-1.6,5.33,5.33,0,0,1-1.7-3.6,4.8,4.8,0,0,1,1.7-3.7A6.1,6.1,0,0,1,730,5.1a5.85,5.85,0,0,1,4,1.5,4.8,4.8,0,0,1,1.7,3.7,5.33,5.33,0,0,1-1.7,3.6A6,6,0,0,1,730,15.5Zm0,56.3a5.8,5.8,0,0,1-3.6-1,3.15,3.15,0,0,1-1.4-2.3V30a2.54,2.54,0,0,1,1.4-2.3,6.44,6.44,0,0,1,3.6-.9,7.4,7.4,0,0,1,3.6.9,2.53,2.53,0,0,1,1.5,2.3V68.5a3.09,3.09,0,0,1-1.5,2.3A5.8,5.8,0,0,1,730,71.8Z"/><path class="cls-2" d="M761.82,71.8c-5.4,0-9.5-1.2-12.4-3.6s-4.3-6.1-4.3-11.3V9.3a2.47,2.47,0,0,1,1.6-2.3,6.87,6.87,0,0,1,6.8,0,2.62,2.62,0,0,1,1.6,2.3V26.8h11.6a2.31,2.31,0,0,1,2,1.1,5.34,5.34,0,0,1,0,5.2,2.31,2.31,0,0,1-2,1.1h-11.6V57q0,3.45,1.5,4.8c1,.9,2.7,1.4,5.2,1.4H765a4.1,4.1,0,0,1,3.3,1.3,4.62,4.62,0,0,1,1.1,3,4.36,4.36,0,0,1-1.1,2.9,4.1,4.1,0,0,1-3.3,1.3l-3.2.1Z"/><path class="cls-3" d="M776.62,93.2a7.22,7.22,0,0,1-3.2-.8c-.9-.5-1.3-1.7-1.3-3.5a7.65,7.65,0,0,1,.6-3,2.08,2.08,0,0,1,2.1-1.3,8.91,8.91,0,0,0,3.9-.9,13.71,13.71,0,0,0,4.2-2.9,16.9,16.9,0,0,0,3.5-4.9,21,21,0,0,0,2-6.9l-16.1-36.9a2,2,0,0,1-.4-1.3,3,3,0,0,1,1.1-2.3,12,12,0,0,1,2.6-1.8,9.47,9.47,0,0,1,2.9-.7,4.06,4.06,0,0,1,1.9.4,1.89,1.89,0,0,1,1.2,1.4l12,30.9L804,27.8a2.59,2.59,0,0,1,1.1-1.4,3.29,3.29,0,0,1,1.7-.4,6.37,6.37,0,0,1,2.7.7,8.39,8.39,0,0,1,2.8,1.8,3.34,3.34,0,0,1,1.2,2.5,2,2,0,0,1-.3,1.1L799,69.2c-1,2.7-2.1,5.5-3.1,8.3a37.15,37.15,0,0,1-3.9,7.7,19.2,19.2,0,0,1-6,5.7A18.2,18.2,0,0,1,776.62,93.2Z"/><path class="cls-5" d="M23.22,81.7A22.3,22.3,0,0,1,14,79.8a19.15,19.15,0,0,1-7-5.3,12.33,12.33,0,0,1-2.7-7.8c0-.6,0-1.6.1-2.8s.2-2.6.4-4.1.4-3,.5-4.4.3-2.7.4-3.8.1-1.8.1-2.2a2,2,0,0,0-.9-1.9,11.76,11.76,0,0,0-2-.7,5.38,5.38,0,0,1-2-1A3.66,3.66,0,0,1,0,43a3.32,3.32,0,0,1,.9-2.7,5.38,5.38,0,0,1,2-1,11.76,11.76,0,0,0,2-.7,1.68,1.68,0,0,0,.9-1.7c0-.5-.1-1.4-.2-2.6A37,37,0,0,0,5,30.2c-.3-1.5-.4-2.9-.6-4.3-.1-1.1-.2-2.1-.2-3.2a11.49,11.49,0,0,1,1.6-6,16.26,16.26,0,0,1,4.3-5.1A23.36,23.36,0,0,1,16.22,8a18.51,18.51,0,0,1,7-1.3c2.1,0,3.5.5,4.3,1.4a4.55,4.55,0,0,1,.3,5.8,2.69,2.69,0,0,1-2.4,1.4,14.92,14.92,0,0,0-5.1,1,10.93,10.93,0,0,0-4.4,2.9,7,7,0,0,0-1.8,4.8c0,.6.1,1.6.2,2.9a35.33,35.33,0,0,0,.6,4.2c.3,1.5.4,2.9.6,4.2a24.52,24.52,0,0,1,.2,2.7,5.43,5.43,0,0,1-1.2,3.4,5.2,5.2,0,0,1-2.1,1.8,6.84,6.84,0,0,1,2.1,1.7,5,5,0,0,1,1.2,3.3c0,.6-.1,1.7-.2,3.3s-.3,3.4-.6,5.3-.4,3.7-.6,5.3c-.1,1.1-.2,2.3-.2,3.4a5.49,5.49,0,0,0,1.2,3.7,7.33,7.33,0,0,0,3,2.2A15.77,15.77,0,0,0,22,72.5a18.41,18.41,0,0,0,3.3.3,2.49,2.49,0,0,1,2,.7,3.15,3.15,0,0,1,.9,1.7c.1.6.2,1.3.3,1.9A3.85,3.85,0,0,1,27,80.4C26.32,81.3,24.92,81.7,23.22,81.7Z"/><path class="cls-5" d="M254.92,81.7a6.69,6.69,0,0,1-4.1-1.1,3.85,3.85,0,0,1-1.5-3.3,6.28,6.28,0,0,1,.3-1.9,4.25,4.25,0,0,1,1-1.7,2.88,2.88,0,0,1,2-.7,17.33,17.33,0,0,0,3.2-.3,16.57,16.57,0,0,0,3.8-1.1,8.35,8.35,0,0,0,3-2.2,6.28,6.28,0,0,0,1.2-3.7,19.53,19.53,0,0,0-.3-3.4c-.2-1.6-.4-3.4-.6-5.3s-.4-3.7-.6-5.3a18.41,18.41,0,0,1-.3-3.3,5,5,0,0,1,1.2-3.3,4.56,4.56,0,0,1,2.2-1.7,6,6,0,0,1-3.4-5.2,12.41,12.41,0,0,1,.3-2.7q.3-1.95.6-4.2t.6-4.2a14.28,14.28,0,0,0,.3-2.9,7,7,0,0,0-1.8-4.8,10.93,10.93,0,0,0-4.4-2.9,12.88,12.88,0,0,0-5.1-1,2.85,2.85,0,0,1-2.5-1.4,4.68,4.68,0,0,1-.9-2.8,4.23,4.23,0,0,1,1.2-3c.8-1,2.2-1.4,4.3-1.4a19.39,19.39,0,0,1,7.1,1.3,20.9,20.9,0,0,1,6.1,3.6,19.14,19.14,0,0,1,4.3,5.1,11.49,11.49,0,0,1,1.6,6,17.33,17.33,0,0,1-.3,3.2c-.2,1.4-.4,2.8-.6,4.3s-.4,2.8-.6,4.1a11.53,11.53,0,0,0-.3,2.6,1.68,1.68,0,0,0,.9,1.7,11.76,11.76,0,0,0,2,.7,5.38,5.38,0,0,1,2,1,3.32,3.32,0,0,1,.9,2.7,3.66,3.66,0,0,1-.9,2.8,5.38,5.38,0,0,1-2,1,11.76,11.76,0,0,0-2,.7,1.82,1.82,0,0,0-.9,1.9c0,.4.1,1.1.2,2.2s.3,2.3.5,3.8.3,2.9.5,4.4.3,2.8.4,4.1.2,2.2.2,2.8a11.2,11.2,0,0,1-2.8,7.8,19.15,19.15,0,0,1-7,5.3A21.23,21.23,0,0,1,254.92,81.7Z"/><path class="cls-1" d="M75.42,72.6c-4.6,0-8.3-.8-11.3-2.5a15.57,15.57,0,0,1-6.5-6.7,21.46,21.46,0,0,1-2.1-9.7V45.1a21.33,21.33,0,0,1,2.1-9.6,15.27,15.27,0,0,1,6.5-6.8,22.35,22.35,0,0,1,11.1-2.5,24.45,24.45,0,0,1,7.6,1,14.52,14.52,0,0,1,5.1,2.6,4.54,4.54,0,0,1,1.9,3.3,4.55,4.55,0,0,1-.5,2,4.83,4.83,0,0,1-1.4,2,3.23,3.23,0,0,1-2.1.8,3.86,3.86,0,0,1-2-.8,15.93,15.93,0,0,0-2.9-1.5,13,13,0,0,0-4.8-.7c-3.5,0-6.2.9-7.9,2.7a10.51,10.51,0,0,0-2.6,7.4v8.6a10.51,10.51,0,0,0,2.6,7.4c1.7,1.8,4.4,2.7,8,2.7a11.75,11.75,0,0,0,4.9-.8A16.41,16.41,0,0,0,84,61.3a3.23,3.23,0,0,1,2.1-.8,3.78,3.78,0,0,1,2.3.8,4,4,0,0,1,1.5,1.9,5.37,5.37,0,0,1,.5,2.1,4.54,4.54,0,0,1-1.9,3.3,15.92,15.92,0,0,1-5.3,2.8A25.91,25.91,0,0,1,75.42,72.6Z"/><path class="cls-1" d="M115.32,72.6a18.1,18.1,0,0,1-9.6-2.7,21,21,0,0,1-7.2-7,17.08,17.08,0,0,1-2.7-9.3V44.9a17.88,17.88,0,0,1,2.6-9.3,19.31,19.31,0,0,1,7.1-6.8,19.61,19.61,0,0,1,19.6,0,20.11,20.11,0,0,1,7.2,6.7,17.42,17.42,0,0,1,2.7,9.4v8.7a16.52,16.52,0,0,1-2.7,9.2,20.13,20.13,0,0,1-7.2,7A17.76,17.76,0,0,1,115.32,72.6Zm.1-8.9a9,9,0,0,0,4.8-1.4,10.58,10.58,0,0,0,3.5-3.8,9.47,9.47,0,0,0,1.3-4.9V44.9a8.88,8.88,0,0,0-1.3-4.8,12.37,12.37,0,0,0-3.5-3.7,8.71,8.71,0,0,0-4.9-1.4,9,9,0,0,0-4.8,1.4,10.94,10.94,0,0,0-3.4,3.7,8.88,8.88,0,0,0-1.3,4.8v8.7a9.47,9.47,0,0,0,1.3,4.9,10.58,10.58,0,0,0,3.5,3.8A7.52,7.52,0,0,0,115.42,63.7Z"/><path class="cls-1" d="M158.72,72.6a13.74,13.74,0,0,1-8.3-2.7,18.69,18.69,0,0,1-6.1-7,19.13,19.13,0,0,1-2.3-9.3V44.9a20.81,20.81,0,0,1,2.3-9.5,19.64,19.64,0,0,1,6.1-6.7,15.1,15.1,0,0,1,8.5-2.5,13.28,13.28,0,0,1,7.7,2.2,16,16,0,0,1,4.7,5V3.2a2.53,2.53,0,0,1,1.5-2.3,7.4,7.4,0,0,1,3.6-.9,7.3,7.3,0,0,1,3.5.9,2.74,2.74,0,0,1,1.4,2.3V68.5a3.15,3.15,0,0,1-1.4,2.3,5.51,5.51,0,0,1-3.5,1,5.28,5.28,0,0,1-3.2-1,3.15,3.15,0,0,1-1.4-2.3V65.2a12.53,12.53,0,0,1-5,5.2A16.69,16.69,0,0,1,158.72,72.6Zm2.8-8.9a8.36,8.36,0,0,0,4.9-1.5,12.61,12.61,0,0,0,3.5-3.4,5.45,5.45,0,0,0,1.3-3V44.9a9,9,0,0,0-1.4-5.3,9.8,9.8,0,0,0-3.6-3.4,9.29,9.29,0,0,0-4.6-1.2,9.64,9.64,0,0,0-8.4,5.1,8.88,8.88,0,0,0-1.3,4.8v8.7a9.12,9.12,0,0,0,1.3,4.8,10.58,10.58,0,0,0,3.5,3.8A7.61,7.61,0,0,0,161.52,63.7Z"/><path class="cls-1" d="M212.12,72.6a25.15,25.15,0,0,1-11.4-2.4,19.89,19.89,0,0,1-7.8-6.6,16.65,16.65,0,0,1-2.9-9.9v-9a16.52,16.52,0,0,1,2.7-9.2,20.11,20.11,0,0,1,7.2-6.7,19.75,19.75,0,0,1,26.2,5.9,17.18,17.18,0,0,1,2.6,9.1q0,4.05-1.2,5.7a5.35,5.35,0,0,1-3.2,2.1,19.92,19.92,0,0,1-4.2.4h-20v2.2a9.33,9.33,0,0,0,3.5,7.6,13.53,13.53,0,0,0,8.9,2.8,12.55,12.55,0,0,0,5.4-.9,23.13,23.13,0,0,0,3.5-1.8,4.39,4.39,0,0,1,2.7-.9,3.23,3.23,0,0,1,2.1.8,4.63,4.63,0,0,1,1.3,1.8,4.14,4.14,0,0,1,.5,1.9c0,1-.7,2-1.9,3.1a16.14,16.14,0,0,1-5.5,2.9A30.52,30.52,0,0,1,212.12,72.6ZM200,45.8h15.8a4.46,4.46,0,0,0,2.8-.6c.5-.4.7-1.1.7-2.3a9.29,9.29,0,0,0-1.2-4.6,9,9,0,0,0-3.4-3.3,10.44,10.44,0,0,0-4.9-1.2,11.25,11.25,0,0,0-4.8,1.1,9.48,9.48,0,0,0-3.5,3.1,7.79,7.79,0,0,0-1.3,4.7v3.1Z"/></svg>