<svg xmlns="http://www.w3.org/2000/svg" width="363.97" height="276.668" viewBox="0 0 363.97 276.668">
  <g id="Artwork_3" data-name="Artwork 3" transform="matrix(0.914, 0.407, -0.407, 0.914, 181.985, 138.334)">
    <g id="Group_402" data-name="Group 402" transform="translate(-159.479 -73.35)">
      <rect id="Rectangle_237" data-name="Rectangle 237" width="318.958" height="146.7" rx="14.29" fill="#fff" stroke="#fff" stroke-miterlimit="10" stroke-width="9.785"/>
      <rect id="Rectangle_238" data-name="Rectangle 238" width="318.958" height="146.7" rx="14.29"/>
      <rect id="Rectangle_239" data-name="Rectangle 239" width="18.715" height="18.715" rx="4.605" transform="translate(20.989 15.048)" fill="#856ffb"/>
      <rect id="Rectangle_240" data-name="Rectangle 240" width="18.715" height="18.715" rx="4.605" transform="translate(46.178 15.048)" fill="#f2b21b"/>
      <rect id="Rectangle_241" data-name="Rectangle 241" width="18.715" height="18.715" rx="4.605" transform="translate(71.367 15.048)" fill="#ff44a9"/>
      <rect id="Rectangle_242" data-name="Rectangle 242" width="18.715" height="18.715" rx="4.605" transform="translate(96.556 15.048)" fill="#45d8dd"/>
      <rect id="Rectangle_243" data-name="Rectangle 243" width="18.715" height="18.715" rx="4.605" transform="translate(121.745 15.048)" fill="#856ffb"/>
      <rect id="Rectangle_244" data-name="Rectangle 244" width="18.715" height="18.715" rx="4.605" transform="translate(146.934 15.048)" fill="#f2b21b"/>
      <rect id="Rectangle_245" data-name="Rectangle 245" width="18.715" height="18.715" rx="4.605" transform="translate(172.122 15.048)" fill="#ff44a9"/>
      <rect id="Rectangle_246" data-name="Rectangle 246" width="18.715" height="18.715" rx="4.605" transform="translate(197.311 15.048)" fill="#45d8dd"/>
      <rect id="Rectangle_247" data-name="Rectangle 247" width="18.715" height="18.715" rx="4.605" transform="translate(222.5 15.048)" fill="#856ffb"/>
      <rect id="Rectangle_248" data-name="Rectangle 248" width="18.715" height="18.715" rx="4.605" transform="translate(247.037 15.048)" fill="#f2b21b"/>
      <rect id="Rectangle_249" data-name="Rectangle 249" width="29.191" height="17.921" rx="3.676" transform="translate(20.989 39.24)" fill="#f2b21b"/>
      <rect id="Rectangle_250" data-name="Rectangle 250" width="37.216" height="17.921" rx="2.992" transform="translate(20.989 63.856)" fill="#ff44a9"/>
      <rect id="Rectangle_251" data-name="Rectangle 251" width="29.12" height="17.921" rx="3.672" transform="translate(270.649 15.048)" fill="#ff44a9"/>
      <rect id="Rectangle_252" data-name="Rectangle 252" width="18.715" height="18.715" rx="4.605" transform="translate(55.203 39.24)" fill="#ff44a9"/>
      <rect id="Rectangle_253" data-name="Rectangle 253" width="18.715" height="18.715" rx="4.605" transform="translate(80.392 39.24)" fill="#45d8dd"/>
      <rect id="Rectangle_254" data-name="Rectangle 254" width="18.715" height="18.715" rx="4.605" transform="translate(105.581 39.24)" fill="#856ffb"/>
      <rect id="Rectangle_255" data-name="Rectangle 255" width="18.715" height="18.715" rx="4.605" transform="translate(130.77 39.24)" fill="#f2b21b"/>
      <rect id="Rectangle_256" data-name="Rectangle 256" width="18.715" height="18.715" rx="4.605" transform="translate(154.943 39.24)" fill="#ff44a9"/>
      <rect id="Rectangle_257" data-name="Rectangle 257" width="18.715" height="18.715" rx="4.605" transform="translate(180.131 39.24)" fill="#45d8dd"/>
      <rect id="Rectangle_258" data-name="Rectangle 258" width="18.715" height="18.715" rx="4.605" transform="translate(205.32 39.24)" fill="#856ffb"/>
      <rect id="Rectangle_259" data-name="Rectangle 259" width="18.715" height="18.715" rx="4.605" transform="translate(230.509 39.24)" fill="#f2b21b"/>
      <rect id="Rectangle_260" data-name="Rectangle 260" width="18.715" height="18.715" rx="4.605" transform="translate(255.547 39.24)" fill="#ff44a9"/>
      <rect id="Rectangle_261" data-name="Rectangle 261" width="18.715" height="18.715" rx="4.605" transform="translate(280.207 39.24)" fill="#45d8dd"/>
      <rect id="Rectangle_262" data-name="Rectangle 262" width="35.728" height="17.921" rx="2.931" transform="translate(263.025 63.856)" fill="#f2b21b"/>
      <rect id="Rectangle_263" data-name="Rectangle 263" width="18.715" height="18.715" rx="4.605" transform="translate(63.129 63.062)" fill="#f2b21b"/>
      <rect id="Rectangle_264" data-name="Rectangle 264" width="18.715" height="18.715" rx="4.605" transform="translate(88.318 63.062)" fill="#ff44a9"/>
      <rect id="Rectangle_265" data-name="Rectangle 265" width="18.715" height="18.715" rx="4.605" transform="translate(113.507 63.062)" fill="#45d8dd"/>
      <rect id="Rectangle_266" data-name="Rectangle 266" width="18.715" height="18.715" rx="4.605" transform="translate(138.696 63.062)" fill="#856ffb"/>
      <rect id="Rectangle_267" data-name="Rectangle 267" width="18.715" height="18.715" rx="4.605" transform="translate(163.885 63.062)" fill="#f2b21b"/>
      <rect id="Rectangle_268" data-name="Rectangle 268" width="18.715" height="18.715" rx="4.605" transform="translate(189.074 63.062)" fill="#ff44a9"/>
      <rect id="Rectangle_269" data-name="Rectangle 269" width="18.715" height="18.715" rx="4.605" transform="translate(214.263 63.062)" fill="#45d8dd"/>
      <rect id="Rectangle_270" data-name="Rectangle 270" width="18.715" height="18.715" rx="4.605" transform="translate(239.452 63.062)" fill="#856ffb"/>
      <rect id="Rectangle_271" data-name="Rectangle 271" width="18.715" height="18.715" rx="4.605" transform="translate(68.477 87.408)" fill="#856ffb"/>
      <rect id="Rectangle_272" data-name="Rectangle 272" width="18.715" height="18.715" rx="4.605" transform="translate(92.033 87.408)" fill="#f2b21b"/>
      <rect id="Rectangle_273" data-name="Rectangle 273" width="18.715" height="18.715" rx="4.605" transform="translate(115.59 87.408)" fill="#ff44a9"/>
      <rect id="Rectangle_274" data-name="Rectangle 274" width="18.715" height="18.715" rx="4.605" transform="translate(139.147 87.408)" fill="#45d8dd"/>
      <rect id="Rectangle_275" data-name="Rectangle 275" width="18.715" height="18.715" rx="4.605" transform="translate(162.703 87.408)" fill="#856ffb"/>
      <rect id="Rectangle_276" data-name="Rectangle 276" width="18.715" height="18.715" rx="4.605" transform="translate(186.26 87.408)" fill="#f2b21b"/>
      <rect id="Rectangle_277" data-name="Rectangle 277" width="18.715" height="18.715" rx="4.605" transform="translate(209.817 87.408)" fill="#ff44a9"/>
      <rect id="Rectangle_278" data-name="Rectangle 278" width="42.379" height="17.921" rx="3.193" transform="translate(20.828 87.874)" fill="#45d8dd"/>
      <rect id="Rectangle_279" data-name="Rectangle 279" width="41.3" height="17.921" rx="3.152" transform="translate(257.603 87.576)" fill="#856ffb"/>
      <rect id="Rectangle_280" data-name="Rectangle 280" width="18.715" height="18.715" rx="4.605" transform="translate(233.373 86.88)" fill="#45d8dd"/>
      <rect id="Rectangle_281" data-name="Rectangle 281" width="135.932" height="18.715" rx="9.358" transform="translate(92.033 111.303)" fill="#ff44a9"/>
      <rect id="Rectangle_282" data-name="Rectangle 282" width="18.715" height="18.715" rx="4.605" transform="translate(21.842 111.303)" fill="#856ffb"/>
      <rect id="Rectangle_283" data-name="Rectangle 283" width="42.341" height="18.715" rx="4.511" transform="translate(45.368 111.303)" fill="#f2b21b"/>
      <rect id="Rectangle_284" data-name="Rectangle 284" width="18.715" height="18.715" rx="4.605" transform="translate(233.474 111.303)" fill="#45d8dd"/>
      <rect id="Rectangle_285" data-name="Rectangle 285" width="18.715" height="18.715" rx="4.605" transform="translate(256.835 111.303)" fill="#856ffb"/>
      <rect id="Rectangle_286" data-name="Rectangle 286" width="18.715" height="18.715" rx="4.605" transform="translate(280.197 111.303)" fill="#f2b21b"/>
    </g>
  </g>
</svg>
