<svg xmlns="http://www.w3.org/2000/svg" width="125.558" height="120.995" viewBox="0 0 125.558 120.995">
  <g id="Artwork_61" data-name="Artwork 61" transform="translate(62.779 60.4)">
    <g id="Group_4667" data-name="Group 4667" transform="translate(-57.051 -54.812)">
      <path id="Path_13024" data-name="Path 13024" d="M69.667,8.789,78.558,26.8a11.277,11.277,0,0,0,8.493,6.173l19.88,2.889a11.28,11.28,0,0,1,6.251,19.24L98.8,69.126a11.273,11.273,0,0,0-3.244,9.985l3.4,19.8A11.281,11.281,0,0,1,82.583,110.8L64.8,101.455a11.278,11.278,0,0,0-10.5,0L36.521,110.8A11.28,11.28,0,0,1,20.153,98.91l3.4-19.8A11.279,11.279,0,0,0,20.3,69.126L5.918,55.1a11.28,11.28,0,0,1,6.253-19.24l19.88-2.889A11.281,11.281,0,0,0,40.545,26.8L49.436,8.789A11.279,11.279,0,0,1,69.667,8.789Z" transform="translate(-2.5 -2.5)" fill="#fff" stroke="#fff" stroke-miterlimit="10" stroke-width="11.179"/>
      <path id="Path_13025" data-name="Path 13025" d="M69.667,8.789,78.558,26.8a11.277,11.277,0,0,0,8.493,6.173l19.88,2.889a11.28,11.28,0,0,1,6.251,19.24L98.8,69.126a11.273,11.273,0,0,0-3.244,9.985l3.4,19.8A11.281,11.281,0,0,1,82.583,110.8L64.8,101.455a11.278,11.278,0,0,0-10.5,0L36.521,110.8A11.28,11.28,0,0,1,20.153,98.91l3.4-19.8A11.279,11.279,0,0,0,20.3,69.126L5.918,55.1a11.28,11.28,0,0,1,6.253-19.24l19.88-2.889A11.281,11.281,0,0,0,40.545,26.8L49.436,8.789A11.279,11.279,0,0,1,69.667,8.789Z" transform="translate(-2.5 -2.5)" stroke="#000" stroke-miterlimit="10" stroke-width="4.471"/>
      <path id="Path_13026" data-name="Path 13026" d="M69.667,8.789,78.558,26.8a11.277,11.277,0,0,0,8.493,6.173l19.88,2.889a11.28,11.28,0,0,1,6.251,19.24L98.8,69.126a11.273,11.273,0,0,0-3.244,9.985l3.4,19.8A11.281,11.281,0,0,1,82.583,110.8L64.8,101.455a11.278,11.278,0,0,0-10.5,0L36.521,110.8A11.28,11.28,0,0,1,20.153,98.91l3.4-19.8A11.279,11.279,0,0,0,20.3,69.126L5.918,55.1a11.28,11.28,0,0,1,6.253-19.24l19.88-2.889A11.281,11.281,0,0,0,40.545,26.8L49.436,8.789A11.279,11.279,0,0,1,69.667,8.789Z" transform="translate(-2.5 -2.5)" fill="#f2b21b" stroke="#f2b21b" stroke-miterlimit="10" stroke-width="0.601"/>
    </g>
  </g>
</svg>
